<?xml version="1.0" encoding="utf-8"?>
<!-- Generator: Adobe Illustrator 22.1.0, SVG Export Plug-In . SVG Version: 6.00 Build 0)  -->
<svg version="1.1" id="レイヤー_1" xmlns="http://www.w3.org/2000/svg" xmlns:xlink="http://www.w3.org/1999/xlink" x="0px"
	 y="0px" viewBox="0 0 200 200" enable-background="new 0 0 200 200" xml:space="preserve">
<g>
	<linearGradient id="SVGID_1_" gradientUnits="userSpaceOnUse" x1="70.7021" y1="19.5047" x2="129.2979" y2="180.4953">
		<stop  offset="0" style="stop-color:#F7E2E9"/>
		<stop  offset="1" style="stop-color:#C42F63"/>
	</linearGradient>
	<path fill="url(#SVGID_1_)" d="M100,14.3621c-47.2966,0-85.6381,38.3414-85.6381,85.6379S52.7034,185.6379,100,185.6379
		S185.6381,147.2966,185.6381,100S147.2966,14.3621,100,14.3621z M102.9468,152.9545h-5.7152h-41.524
		c0.3572-4.5544,4.1077-8.1263,8.662-8.3049l8.5727-0.1786c7.144-0.1785,14.02-3.2148,18.8422-8.4834
		c5.09-5.6259,7.0546-13.0378-8.8407-18.3958c-29.3795-9.9124-26.0754-54.4726-26.0754-54.4726
		c35.0053,4.197,41.8814-12.2339,41.8814-12.2339l1.5181-3.304l1.0716,2.9469c0.0894,0.3571,0.2679,0.7144,0.4465,0.9822
		c1.6967,3.0361,10.8052,15.2703,41.6135,11.6089c0,0,3.3041,44.5602-26.0754,54.4726
		c-15.8953,5.358-13.9307,12.6804-8.8406,18.3958c4.8222,5.2686,11.6982,8.3049,18.8421,8.4834l8.5728,0.1786
		c4.5542,0.0894,8.3941,3.6613,8.662,8.3049H102.9468z"/>
	<g>
		<g>
			<defs>
				<path id="SVGID_2_" d="M111.8769,108.3943c16.7883-7.0546,14.8237-33.4872,14.8237-33.4872
					c-19.1993,2.3219-24.8252-5.358-25.9861-7.2333c-0.0893-0.1786-0.1786-0.4465-0.2679-0.6251l-0.6251-1.8754l-0.893,2.0539
					c0,0-4.2864,10.2694-26.1647,7.6798c0,0-1.9646,26.3433,14.8237,33.4872c1.2502,0.5359,2.4111,1.0715,3.6612,1.6966
					l8.8407,4.465l8.4834-4.5544C109.555,109.4658,110.7159,108.9299,111.8769,108.3943z"/>
			</defs>
			<clipPath id="SVGID_3_">
				<use xlink:href="#SVGID_2_"  overflow="visible"/>
			</clipPath>
			<g clip-path="url(#SVGID_3_)">
				<g>
					<g>
						<defs>
							<rect id="SVGID_4_" x="53.9216" y="67.2272" width="102.7835" height="47.5072"/>
						</defs>
						<defs>
							<rect id="SVGID_5_" x="53.9216" y="67.2272" width="102.7835" height="47.5072"/>
						</defs>
						<defs>
							<rect id="SVGID_6_" x="53.9216" y="67.2272" width="102.7835" height="47.5072"/>
						</defs>
						<defs>
							<rect id="SVGID_7_" x="53.9216" y="67.2272" width="102.7835" height="47.5072"/>
						</defs>
						<defs>
							<rect id="SVGID_8_" x="53.9216" y="67.2272" width="102.7835" height="47.5072"/>
						</defs>
						<defs>
							<rect id="SVGID_9_" x="53.9216" y="67.2272" width="102.7835" height="47.5072"/>
						</defs>
						<defs>
							<rect id="SVGID_10_" x="53.9216" y="67.2272" width="102.7835" height="47.5072"/>
						</defs>
						<defs>
							<rect id="SVGID_11_" x="53.9216" y="67.2272" width="102.7835" height="47.5072"/>
						</defs>
						<defs>
							<rect id="SVGID_12_" x="53.9216" y="67.2272" width="102.7835" height="47.5072"/>
						</defs>
						<defs>
							<rect id="SVGID_13_" x="53.9216" y="67.2272" width="102.7835" height="47.5072"/>
						</defs>
						<defs>
							<rect id="SVGID_14_" x="53.9216" y="67.2272" width="102.7835" height="47.5072"/>
						</defs>
						<defs>
							<rect id="SVGID_15_" x="53.9216" y="67.2272" width="102.7835" height="47.5072"/>
						</defs>
						<clipPath id="SVGID_16_">
							<use xlink:href="#SVGID_4_"  overflow="visible"/>
						</clipPath>
						<clipPath id="SVGID_17_" clip-path="url(#SVGID_16_)">
							<use xlink:href="#SVGID_5_"  overflow="visible"/>
						</clipPath>
						<clipPath id="SVGID_18_" clip-path="url(#SVGID_17_)">
							<use xlink:href="#SVGID_6_"  overflow="visible"/>
						</clipPath>
						<clipPath id="SVGID_19_" clip-path="url(#SVGID_18_)">
							<use xlink:href="#SVGID_7_"  overflow="visible"/>
						</clipPath>
						<clipPath id="SVGID_20_" clip-path="url(#SVGID_19_)">
							<use xlink:href="#SVGID_8_"  overflow="visible"/>
						</clipPath>
						<clipPath id="SVGID_21_" clip-path="url(#SVGID_20_)">
							<use xlink:href="#SVGID_9_"  overflow="visible"/>
						</clipPath>
						<clipPath id="SVGID_22_" clip-path="url(#SVGID_21_)">
							<use xlink:href="#SVGID_10_"  overflow="visible"/>
						</clipPath>
						<clipPath id="SVGID_23_" clip-path="url(#SVGID_22_)">
							<use xlink:href="#SVGID_11_"  overflow="visible"/>
						</clipPath>
						<clipPath id="SVGID_24_" clip-path="url(#SVGID_23_)">
							<use xlink:href="#SVGID_12_"  overflow="visible"/>
						</clipPath>
						<clipPath id="SVGID_25_" clip-path="url(#SVGID_24_)">
							<use xlink:href="#SVGID_13_"  overflow="visible"/>
						</clipPath>
						<clipPath id="SVGID_26_" clip-path="url(#SVGID_25_)">
							<use xlink:href="#SVGID_14_"  overflow="visible"/>
						</clipPath>
						<clipPath id="SVGID_27_" clip-path="url(#SVGID_26_)">
							<use xlink:href="#SVGID_15_"  overflow="visible"/>
						</clipPath>
						<linearGradient id="SVGID_28_" gradientUnits="userSpaceOnUse" x1="103.7506" y1="66.4236" x2="103.7506" y2="118.5743">
							<stop  offset="0" style="stop-color:#FFFFFF"/>
							<stop  offset="1" style="stop-color:#C42F63"/>
						</linearGradient>
						<line clip-path="url(#SVGID_27_)" fill="url(#SVGID_28_)" x1="65.6198" y1="66.4236" x2="-1.8012" y2="118.5743"/>
						<linearGradient id="SVGID_29_" gradientUnits="userSpaceOnUse" x1="103.7506" y1="66.4236" x2="103.7506" y2="118.5743">
							<stop  offset="0" style="stop-color:#FFFFFF"/>
							<stop  offset="1" style="stop-color:#C42F63"/>
						</linearGradient>
						<line clip-path="url(#SVGID_27_)" fill="url(#SVGID_29_)" x1="78.7468" y1="66.4236" x2="11.2365" y2="118.5743"/>
						<linearGradient id="SVGID_30_" gradientUnits="userSpaceOnUse" x1="103.7506" y1="66.4236" x2="103.7506" y2="118.5743">
							<stop  offset="0" style="stop-color:#FFFFFF"/>
							<stop  offset="1" style="stop-color:#C42F63"/>
						</linearGradient>
						<line clip-path="url(#SVGID_27_)" fill="url(#SVGID_30_)" x1="91.7845" y1="66.4236" x2="24.2742" y2="118.5743"/>
						<linearGradient id="SVGID_31_" gradientUnits="userSpaceOnUse" x1="103.7506" y1="66.4236" x2="103.7506" y2="118.5743">
							<stop  offset="0" style="stop-color:#FFFFFF"/>
							<stop  offset="1" style="stop-color:#C42F63"/>
						</linearGradient>
						<line clip-path="url(#SVGID_27_)" fill="url(#SVGID_31_)" x1="104.8222" y1="66.4236" x2="37.4012" y2="118.5743"/>
						<linearGradient id="SVGID_32_" gradientUnits="userSpaceOnUse" x1="103.7506" y1="66.4236" x2="103.7506" y2="118.5743">
							<stop  offset="0" style="stop-color:#FFFFFF"/>
							<stop  offset="1" style="stop-color:#C42F63"/>
						</linearGradient>
						<line clip-path="url(#SVGID_27_)" fill="url(#SVGID_32_)" x1="117.8599" y1="66.4236" x2="50.4389" y2="118.5743"/>
						<linearGradient id="SVGID_33_" gradientUnits="userSpaceOnUse" x1="103.7506" y1="66.4236" x2="103.7506" y2="118.5743">
							<stop  offset="0" style="stop-color:#FFFFFF"/>
							<stop  offset="1" style="stop-color:#C42F63"/>
						</linearGradient>
						<line clip-path="url(#SVGID_27_)" fill="url(#SVGID_33_)" x1="130.8976" y1="66.4236" x2="63.4766" y2="118.5743"/>
						<linearGradient id="SVGID_34_" gradientUnits="userSpaceOnUse" x1="103.7506" y1="66.4236" x2="103.7506" y2="118.5743">
							<stop  offset="0" style="stop-color:#FFFFFF"/>
							<stop  offset="1" style="stop-color:#C42F63"/>
						</linearGradient>
						<line clip-path="url(#SVGID_27_)" fill="url(#SVGID_34_)" x1="144.0246" y1="66.4236" x2="76.5143" y2="118.5743"/>
						<linearGradient id="SVGID_35_" gradientUnits="userSpaceOnUse" x1="103.7506" y1="66.4236" x2="103.7506" y2="118.5743">
							<stop  offset="0" style="stop-color:#FFFFFF"/>
							<stop  offset="1" style="stop-color:#C42F63"/>
						</linearGradient>
						<line clip-path="url(#SVGID_27_)" fill="url(#SVGID_35_)" x1="157.0623" y1="66.4236" x2="89.552" y2="118.5743"/>
						<linearGradient id="SVGID_36_" gradientUnits="userSpaceOnUse" x1="103.7506" y1="66.4236" x2="103.7506" y2="118.5743">
							<stop  offset="0" style="stop-color:#FFFFFF"/>
							<stop  offset="1" style="stop-color:#C42F63"/>
						</linearGradient>
						<line clip-path="url(#SVGID_27_)" fill="url(#SVGID_36_)" x1="170.1" y1="66.4236" x2="102.679" y2="118.5743"/>
						<linearGradient id="SVGID_37_" gradientUnits="userSpaceOnUse" x1="103.7506" y1="66.4236" x2="103.7506" y2="118.5743">
							<stop  offset="0" style="stop-color:#FFFFFF"/>
							<stop  offset="1" style="stop-color:#C42F63"/>
						</linearGradient>
						<line clip-path="url(#SVGID_27_)" fill="url(#SVGID_37_)" x1="183.1377" y1="66.4236" x2="115.7167" y2="118.5743"/>
						<linearGradient id="SVGID_38_" gradientUnits="userSpaceOnUse" x1="103.7506" y1="66.4236" x2="103.7506" y2="118.5743">
							<stop  offset="0" style="stop-color:#FFFFFF"/>
							<stop  offset="1" style="stop-color:#C42F63"/>
						</linearGradient>
						<line clip-path="url(#SVGID_27_)" fill="url(#SVGID_38_)" x1="196.1754" y1="66.4236" x2="128.7544" y2="118.5743"/>
						<linearGradient id="SVGID_39_" gradientUnits="userSpaceOnUse" x1="103.7506" y1="66.4236" x2="103.7506" y2="118.5743">
							<stop  offset="0" style="stop-color:#FFFFFF"/>
							<stop  offset="1" style="stop-color:#C42F63"/>
						</linearGradient>
						<line clip-path="url(#SVGID_27_)" fill="url(#SVGID_39_)" x1="209.3024" y1="66.4236" x2="141.7921" y2="118.5743"/>
					</g>
				</g>
				<g>
					<g>
						<defs>
							<rect id="SVGID_40_" x="53.9216" y="67.2272" width="102.7835" height="47.5072"/>
						</defs>
						<defs>
							<rect id="SVGID_41_" x="53.9216" y="67.2272" width="102.7835" height="47.5072"/>
						</defs>
						<defs>
							<rect id="SVGID_42_" x="53.9216" y="67.2272" width="102.7835" height="47.5072"/>
						</defs>
						<defs>
							<rect id="SVGID_43_" x="53.9216" y="67.2272" width="102.7835" height="47.5072"/>
						</defs>
						<defs>
							<rect id="SVGID_44_" x="53.9216" y="67.2272" width="102.7835" height="47.5072"/>
						</defs>
						<defs>
							<rect id="SVGID_45_" x="53.9216" y="67.2272" width="102.7835" height="47.5072"/>
						</defs>
						<defs>
							<rect id="SVGID_46_" x="53.9216" y="67.2272" width="102.7835" height="47.5072"/>
						</defs>
						<defs>
							<rect id="SVGID_47_" x="53.9216" y="67.2272" width="102.7835" height="47.5072"/>
						</defs>
						<defs>
							<rect id="SVGID_48_" x="53.9216" y="67.2272" width="102.7835" height="47.5072"/>
						</defs>
						<defs>
							<rect id="SVGID_49_" x="53.9216" y="67.2272" width="102.7835" height="47.5072"/>
						</defs>
						<defs>
							<rect id="SVGID_50_" x="53.9216" y="67.2272" width="102.7835" height="47.5072"/>
						</defs>
						<defs>
							<rect id="SVGID_51_" x="53.9216" y="67.2272" width="102.7835" height="47.5072"/>
						</defs>
						<clipPath id="SVGID_52_">
							<use xlink:href="#SVGID_40_"  overflow="visible"/>
						</clipPath>
						<clipPath id="SVGID_53_" clip-path="url(#SVGID_52_)">
							<use xlink:href="#SVGID_41_"  overflow="visible"/>
						</clipPath>
						<clipPath id="SVGID_54_" clip-path="url(#SVGID_53_)">
							<use xlink:href="#SVGID_42_"  overflow="visible"/>
						</clipPath>
						<clipPath id="SVGID_55_" clip-path="url(#SVGID_54_)">
							<use xlink:href="#SVGID_43_"  overflow="visible"/>
						</clipPath>
						<clipPath id="SVGID_56_" clip-path="url(#SVGID_55_)">
							<use xlink:href="#SVGID_44_"  overflow="visible"/>
						</clipPath>
						<clipPath id="SVGID_57_" clip-path="url(#SVGID_56_)">
							<use xlink:href="#SVGID_45_"  overflow="visible"/>
						</clipPath>
						<clipPath id="SVGID_58_" clip-path="url(#SVGID_57_)">
							<use xlink:href="#SVGID_46_"  overflow="visible"/>
						</clipPath>
						<clipPath id="SVGID_59_" clip-path="url(#SVGID_58_)">
							<use xlink:href="#SVGID_47_"  overflow="visible"/>
						</clipPath>
						<clipPath id="SVGID_60_" clip-path="url(#SVGID_59_)">
							<use xlink:href="#SVGID_48_"  overflow="visible"/>
						</clipPath>
						<clipPath id="SVGID_61_" clip-path="url(#SVGID_60_)">
							<use xlink:href="#SVGID_49_"  overflow="visible"/>
						</clipPath>
						<clipPath id="SVGID_62_" clip-path="url(#SVGID_61_)">
							<use xlink:href="#SVGID_50_"  overflow="visible"/>
						</clipPath>
						<clipPath id="SVGID_63_" clip-path="url(#SVGID_62_)">
							<use xlink:href="#SVGID_51_"  overflow="visible"/>
						</clipPath>
						
							<linearGradient id="SVGID_64_" gradientUnits="userSpaceOnUse" x1="12.1561" y1="295.2875" x2="51.6625" y2="363.7146" gradientTransform="matrix(1 0 0 -1 0 422)">
							<stop  offset="0" style="stop-color:#FFFFFF"/>
							<stop  offset="0.2633" style="stop-color:#B82D58"/>
							<stop  offset="0.685" style="stop-color:#287C9A"/>
							<stop  offset="0.7965" style="stop-color:#247E9D"/>
							<stop  offset="0.9976" style="stop-color:#181738"/>
						</linearGradient>
						
							<line clip-path="url(#SVGID_63_)" fill="none" stroke="url(#SVGID_64_)" stroke-width="0.3655" stroke-miterlimit="10" x1="65.6198" y1="66.4236" x2="-1.8012" y2="118.5743"/>
						
							<linearGradient id="SVGID_65_" gradientUnits="userSpaceOnUse" x1="25.2272" y1="295.2681" x2="64.7562" y2="363.734" gradientTransform="matrix(1 0 0 -1 0 422)">
							<stop  offset="0" style="stop-color:#FFFFFF"/>
							<stop  offset="0.2633" style="stop-color:#B82D58"/>
							<stop  offset="0.685" style="stop-color:#287C9A"/>
							<stop  offset="0.7965" style="stop-color:#247E9D"/>
							<stop  offset="0.9976" style="stop-color:#181738"/>
						</linearGradient>
						
							<line clip-path="url(#SVGID_63_)" fill="none" stroke="url(#SVGID_65_)" stroke-width="0.3655" stroke-miterlimit="10" x1="78.7468" y1="66.4236" x2="11.2365" y2="118.5743"/>
						<linearGradient id="SVGID_66_" gradientUnits="userSpaceOnUse" x1="53.4753" y1="79.9868" x2="62.5834" y2="105.0111">
							<stop  offset="0" style="stop-color:#F7E2E9"/>
							<stop  offset="1" style="stop-color:#C42F63"/>
						</linearGradient>
						
							<line clip-path="url(#SVGID_63_)" fill="none" stroke="url(#SVGID_66_)" stroke-width="0.75" stroke-miterlimit="10" x1="91.7845" y1="66.4236" x2="24.2742" y2="118.5743"/>
						<linearGradient id="SVGID_67_" gradientUnits="userSpaceOnUse" x1="66.5525" y1="79.9725" x2="75.671" y2="105.0254">
							<stop  offset="0" style="stop-color:#F7E2E9"/>
							<stop  offset="1" style="stop-color:#C42F63"/>
						</linearGradient>
						
							<line clip-path="url(#SVGID_63_)" fill="none" stroke="url(#SVGID_67_)" stroke-width="0.75" stroke-miterlimit="10" x1="104.8222" y1="66.4236" x2="37.4012" y2="118.5743"/>
						<linearGradient id="SVGID_68_" gradientUnits="userSpaceOnUse" x1="79.5901" y1="79.9725" x2="88.7086" y2="105.0254">
							<stop  offset="0" style="stop-color:#F7E2E9"/>
							<stop  offset="1" style="stop-color:#C42F63"/>
						</linearGradient>
						
							<line clip-path="url(#SVGID_63_)" fill="none" stroke="url(#SVGID_68_)" stroke-width="0.75" stroke-miterlimit="10" x1="117.8599" y1="66.4236" x2="50.4389" y2="118.5743"/>
						<linearGradient id="SVGID_69_" gradientUnits="userSpaceOnUse" x1="92.6279" y1="79.9725" x2="101.7464" y2="105.0254">
							<stop  offset="0" style="stop-color:#F7E2E9"/>
							<stop  offset="1" style="stop-color:#C42F63"/>
						</linearGradient>
						
							<line clip-path="url(#SVGID_63_)" fill="none" stroke="url(#SVGID_69_)" stroke-width="0.75" stroke-miterlimit="10" x1="130.8976" y1="66.4236" x2="63.4766" y2="118.5743"/>
						<linearGradient id="SVGID_70_" gradientUnits="userSpaceOnUse" x1="105.7154" y1="79.9868" x2="114.8235" y2="105.0111">
							<stop  offset="0" style="stop-color:#F7E2E9"/>
							<stop  offset="1" style="stop-color:#C42F63"/>
						</linearGradient>
						
							<line clip-path="url(#SVGID_63_)" fill="none" stroke="url(#SVGID_70_)" stroke-width="0.75" stroke-miterlimit="10" x1="144.0246" y1="66.4236" x2="76.5143" y2="118.5743"/>
						<linearGradient id="SVGID_71_" gradientUnits="userSpaceOnUse" x1="118.7531" y1="79.9868" x2="127.8612" y2="105.0111">
							<stop  offset="0" style="stop-color:#F7E2E9"/>
							<stop  offset="1" style="stop-color:#C42F63"/>
						</linearGradient>
						
							<line clip-path="url(#SVGID_63_)" fill="none" stroke="url(#SVGID_71_)" stroke-width="0.75" stroke-miterlimit="10" x1="157.0623" y1="66.4236" x2="89.552" y2="118.5743"/>
						
							<linearGradient id="SVGID_72_" gradientUnits="userSpaceOnUse" x1="116.6362" y1="295.2875" x2="156.1427" y2="363.7146" gradientTransform="matrix(1 0 0 -1 0 422)">
							<stop  offset="0" style="stop-color:#FFFFFF"/>
							<stop  offset="0.2633" style="stop-color:#B82D58"/>
							<stop  offset="0.685" style="stop-color:#287C9A"/>
							<stop  offset="0.7965" style="stop-color:#247E9D"/>
							<stop  offset="0.9976" style="stop-color:#181738"/>
						</linearGradient>
						
							<line clip-path="url(#SVGID_63_)" fill="none" stroke="url(#SVGID_72_)" stroke-width="0.3655" stroke-miterlimit="10" x1="170.1" y1="66.4236" x2="102.679" y2="118.5743"/>
						
							<linearGradient id="SVGID_73_" gradientUnits="userSpaceOnUse" x1="129.674" y1="295.2875" x2="169.1804" y2="363.7146" gradientTransform="matrix(1 0 0 -1 0 422)">
							<stop  offset="0" style="stop-color:#FFFFFF"/>
							<stop  offset="0.2633" style="stop-color:#B82D58"/>
							<stop  offset="0.685" style="stop-color:#287C9A"/>
							<stop  offset="0.7965" style="stop-color:#247E9D"/>
							<stop  offset="0.9976" style="stop-color:#181738"/>
						</linearGradient>
						
							<line clip-path="url(#SVGID_63_)" fill="none" stroke="url(#SVGID_73_)" stroke-width="0.3655" stroke-miterlimit="10" x1="183.1377" y1="66.4236" x2="115.7167" y2="118.5743"/>
						
							<linearGradient id="SVGID_74_" gradientUnits="userSpaceOnUse" x1="142.7116" y1="295.2875" x2="182.2182" y2="363.7146" gradientTransform="matrix(1 0 0 -1 0 422)">
							<stop  offset="0" style="stop-color:#FFFFFF"/>
							<stop  offset="0.2633" style="stop-color:#B82D58"/>
							<stop  offset="0.685" style="stop-color:#287C9A"/>
							<stop  offset="0.7965" style="stop-color:#247E9D"/>
							<stop  offset="0.9976" style="stop-color:#181738"/>
						</linearGradient>
						
							<line clip-path="url(#SVGID_63_)" fill="none" stroke="url(#SVGID_74_)" stroke-width="0.3655" stroke-miterlimit="10" x1="196.1754" y1="66.4236" x2="128.7544" y2="118.5743"/>
						
							<linearGradient id="SVGID_75_" gradientUnits="userSpaceOnUse" x1="155.7828" y1="295.2681" x2="195.3117" y2="363.734" gradientTransform="matrix(1 0 0 -1 0 422)">
							<stop  offset="0" style="stop-color:#FFFFFF"/>
							<stop  offset="0.2633" style="stop-color:#B82D58"/>
							<stop  offset="0.685" style="stop-color:#287C9A"/>
							<stop  offset="0.7965" style="stop-color:#247E9D"/>
							<stop  offset="0.9976" style="stop-color:#181738"/>
						</linearGradient>
						
							<line clip-path="url(#SVGID_63_)" fill="none" stroke="url(#SVGID_75_)" stroke-width="0.3655" stroke-miterlimit="10" x1="209.3024" y1="66.4236" x2="141.7921" y2="118.5743"/>
					</g>
				</g>
				<g>
					<g>
						<defs>
							<rect id="SVGID_76_" x="53.9216" y="67.2272" width="102.7835" height="47.5072"/>
						</defs>
						<defs>
							<rect id="SVGID_77_" x="53.9216" y="67.2272" width="102.7835" height="47.5072"/>
						</defs>
						<defs>
							<rect id="SVGID_78_" x="53.9216" y="67.2272" width="102.7835" height="47.5072"/>
						</defs>
						<defs>
							<rect id="SVGID_79_" x="53.9216" y="67.2272" width="102.7835" height="47.5072"/>
						</defs>
						<defs>
							<rect id="SVGID_80_" x="53.9216" y="67.2272" width="102.7835" height="47.5072"/>
						</defs>
						<defs>
							<rect id="SVGID_81_" x="53.9216" y="67.2272" width="102.7835" height="47.5072"/>
						</defs>
						<defs>
							<rect id="SVGID_82_" x="53.9216" y="67.2272" width="102.7835" height="47.5072"/>
						</defs>
						<defs>
							<rect id="SVGID_83_" x="53.9216" y="67.2272" width="102.7835" height="47.5072"/>
						</defs>
						<defs>
							<rect id="SVGID_84_" x="53.9216" y="67.2272" width="102.7835" height="47.5072"/>
						</defs>
						<defs>
							<rect id="SVGID_85_" x="53.9216" y="67.2272" width="102.7835" height="47.5072"/>
						</defs>
						<defs>
							<rect id="SVGID_86_" x="53.9216" y="67.2272" width="102.7835" height="47.5072"/>
						</defs>
						<defs>
							<rect id="SVGID_87_" x="53.9216" y="67.2272" width="102.7835" height="47.5072"/>
						</defs>
						<clipPath id="SVGID_88_">
							<use xlink:href="#SVGID_76_"  overflow="visible"/>
						</clipPath>
						<clipPath id="SVGID_89_" clip-path="url(#SVGID_88_)">
							<use xlink:href="#SVGID_77_"  overflow="visible"/>
						</clipPath>
						<clipPath id="SVGID_90_" clip-path="url(#SVGID_89_)">
							<use xlink:href="#SVGID_78_"  overflow="visible"/>
						</clipPath>
						<clipPath id="SVGID_91_" clip-path="url(#SVGID_90_)">
							<use xlink:href="#SVGID_79_"  overflow="visible"/>
						</clipPath>
						<clipPath id="SVGID_92_" clip-path="url(#SVGID_91_)">
							<use xlink:href="#SVGID_80_"  overflow="visible"/>
						</clipPath>
						<clipPath id="SVGID_93_" clip-path="url(#SVGID_92_)">
							<use xlink:href="#SVGID_81_"  overflow="visible"/>
						</clipPath>
						<clipPath id="SVGID_94_" clip-path="url(#SVGID_93_)">
							<use xlink:href="#SVGID_82_"  overflow="visible"/>
						</clipPath>
						<clipPath id="SVGID_95_" clip-path="url(#SVGID_94_)">
							<use xlink:href="#SVGID_83_"  overflow="visible"/>
						</clipPath>
						<clipPath id="SVGID_96_" clip-path="url(#SVGID_95_)">
							<use xlink:href="#SVGID_84_"  overflow="visible"/>
						</clipPath>
						<clipPath id="SVGID_97_" clip-path="url(#SVGID_96_)">
							<use xlink:href="#SVGID_85_"  overflow="visible"/>
						</clipPath>
						<clipPath id="SVGID_98_" clip-path="url(#SVGID_97_)">
							<use xlink:href="#SVGID_86_"  overflow="visible"/>
						</clipPath>
						<clipPath id="SVGID_99_" clip-path="url(#SVGID_98_)">
							<use xlink:href="#SVGID_87_"  overflow="visible"/>
						</clipPath>
					</g>
				</g>
			</g>
			
				<linearGradient id="SVGID_100_" gradientUnits="userSpaceOnUse" x1="32.5753" y1="331.2859" x2="64.5053" y2="331.2859" gradientTransform="matrix(1 0 0 -1 0 422)">
				<stop  offset="0" style="stop-color:#FFFFFF"/>
				<stop  offset="0.2633" style="stop-color:#B82D58"/>
				<stop  offset="0.685" style="stop-color:#287C9A"/>
				<stop  offset="0.7965" style="stop-color:#247E9D"/>
				<stop  offset="0.9976" style="stop-color:#181738"/>
			</linearGradient>
			<path clip-path="url(#SVGID_3_)" fill="none" stroke="url(#SVGID_100_)" stroke-width="1.7265" stroke-miterlimit="10" d="
				M53.8323,77.8537c0,0-7.5012-6.876-14.6451-2.679s-7.5012,17.9492-1.786,21.8783c5.7152,3.9291,25.1824,9.9123,25.1824,9.9123
				s-3.0362-4.8221-3.9292-7.1439c0,0-14.1093-5.09-17.0561-8.394c-2.679-3.0361-2.679-5.6259,0.893-9.0193
				c3.572-3.304,12.8591,4.197,12.8591,4.197S54.1895,81.6936,53.8323,77.8537z"/>
			
				<linearGradient id="SVGID_101_" gradientUnits="userSpaceOnUse" x1="2961.5725" y1="331.2859" x2="2993.5027" y2="331.2859" gradientTransform="matrix(-1 0 0 -1 3129.7681 422)">
				<stop  offset="0" style="stop-color:#FFFFFF"/>
				<stop  offset="0.2633" style="stop-color:#B82D58"/>
				<stop  offset="0.685" style="stop-color:#287C9A"/>
				<stop  offset="0.7965" style="stop-color:#247E9D"/>
				<stop  offset="0.9976" style="stop-color:#181738"/>
			</linearGradient>
			<path clip-path="url(#SVGID_3_)" fill="none" stroke="url(#SVGID_101_)" stroke-width="1.7265" stroke-miterlimit="10" d="
				M146.8821,77.8537c0,0,7.5012-6.876,14.6451-2.679c7.1439,4.197,7.5012,17.9492,1.786,21.8783
				c-5.7152,3.9291-25.1824,9.9123-25.1824,9.9123s3.0362-4.8221,3.9292-7.1439c0,0,14.1093-5.09,17.0561-8.394
				c2.679-3.0361,2.679-5.6259-0.893-9.0193c-3.572-3.304-12.8591,4.197-12.8591,4.197S146.6143,81.6936,146.8821,77.8537z"/>
			<g clip-path="url(#SVGID_3_)" enable-background="new    ">
				<path d="M-23.6538,242.7285v-19.5107h8.8516v1.3818h-7.4692v18.1289H-23.6538z"/>
				<path d="M-6.5376,234.9668c1.0366,0.8232,4.0137,3.5615,4.7314,4.2529l-1.1431,1.4082
					c-0.6646-0.877-2.3394-2.6309-3.5884-3.8535v11.4297H-8.292v-12.2539c-1.2759,3.0029-3.0034,6.0605-4.5718,7.8945
					c-0.2129-0.4785-0.6646-1.2227-0.9834-1.6748c1.8604-1.9932,3.9868-5.7412,5.2095-9.0107h-4.8906v-1.7275h5.2363v-4.5195
					c-1.5947,0.4258-3.2695,0.7715-4.8643,1.0898c-0.0796-0.3721-0.3457-0.9834-0.585-1.3555
					c3.6948-0.7178,7.9478-1.8867,10.1807-3.1367l1.6479,1.3291c-0.0796,0.0801-0.186,0.1064-0.2925,0.1064
					c-0.0796,0-0.1328,0-0.2124-0.0264c-1.0898,0.5312-2.5254,1.0635-4.1201,1.5146v4.998h4.625v1.7275h-4.625V234.9668z
					 M6.6196,236.7471c1.9673,3.4824,3.8809,8.001,4.4658,10.8721l-1.8076,0.6377c-0.1592-0.7441-0.3984-1.6211-0.6909-2.5781
					c-4.4922,0.5049-9.144,1.0098-12.0679,1.2754c-0.0264,0.2129-0.186,0.3457-0.3721,0.3721l-0.7178-2.1797l2.5518-0.1855
					c1.6479-5.7148,3.4556-14.4863,4.4126-20.9189l2.5518,0.5576c-0.0532,0.2129-0.3188,0.3721-0.6646,0.4258
					c-1.0103,5.9004-2.791,14.0615-4.4126,19.7764c2.4985-0.1865,5.3428-0.4521,8.1606-0.6914
					c-0.8242-2.2861-1.9141-4.7578-3.0571-6.8311L6.6196,236.7471z"/>
				<path d="M23.1509,224.7861c-0.0532,0.3184-0.3721,0.4521-0.877,0.4785c-0.2925,1.4883-0.771,4.0664-1.0898,5.6611
					c1.1958-0.1328,2.2856-0.2393,2.9502-0.2393c4.0405-0.0527,5.4224,2.6318,5.4224,6.6191c0,1.9932-0.3721,4.3594-0.9033,5.9541
					c-0.8242,2.7109-2.5254,4.0137-4.7314,4.0137c-1.0898,0-2.5254-0.4521-4.811-2.3125c0.292-0.4785,0.5049-1.0635,0.7173-1.6211
					c2.1265,1.6475,3.2432,2.0195,4.0669,2.0195c1.5151,0,2.4189-0.957,2.9507-2.6582c0.5581-1.6475,0.8506-4.0928,0.8506-5.4492
					c-0.0269-3.0293-1.0103-4.8369-3.668-4.8105c-0.7979,0-1.8877,0.1064-3.2432,0.2656
					c-1.3291,5.4229-2.8975,10.0742-5.4492,14.3535L13.582,246.21c2.5781-4.1201,4.04-8.2402,5.2896-13.29
					c-1.356,0.1592-3.2964,0.3984-4.7314,0.6377l-0.1597-1.8604c1.3027-0.1602,3.4819-0.3994,5.2632-0.6113
					c0.3984-1.9404,0.8237-4.333,1.1431-6.6719L23.1509,224.7861z M29.3179,223.9619c1.2759,0.9834,2.7905,2.5781,3.5615,3.7217
					l-1.0366,0.7441c-0.7441-1.1436-2.3389-2.8174-3.5088-3.6953L29.3179,223.9619z M35.272,239.4316
					c-0.8774-3.8271-2.9771-7.0439-5.4229-9.0635l1.542-1.0371c2.6313,2.2061,4.9175,5.5293,5.7944,9.3828L35.272,239.4316z
					 M33.3315,222.9258c1.3022,0.9561,2.8174,2.5518,3.5884,3.6943l-1.0366,0.7705c-0.7446-1.1426-2.3394-2.8438-3.5088-3.7207
					L33.3315,222.9258z"/>
				<path d="M60.2827,239.8311H45.3706v-4.0938c-1.4619,1.249-3.083,2.2861-4.7842,3.1367
					c-0.2393-0.3457-0.7979-1.0098-1.1699-1.3555c2.8975-1.3027,5.582-3.376,7.6289-5.9277h-7.23v-1.4883h8.293
					c0.5054-0.7441,0.9307-1.5156,1.3027-2.3398l2.1265,0.665c-0.0532,0.1855-0.2661,0.2656-0.585,0.2656
					c-0.2393,0.4785-0.5049,0.957-0.771,1.4092h13.583v1.4883H49.1982c-0.4785,0.6914-1.0098,1.3291-1.5684,1.9668h12.6528V239.8311
					z M44.7593,242.3828c-0.6113,2.126-1.6743,4.0664-3.9341,5.1299l-1.4087-1.0635c2.0469-0.9307,3.2432-2.6582,3.7744-4.625
					L44.7593,242.3828z M46.248,228.8799v-1.7812h-6.5122v-1.4883h6.5122v-2.1006l2.2593,0.1328
					c-0.0269,0.1865-0.1597,0.3193-0.5049,0.373v1.5947h7.416v-2.1006l2.2856,0.1328c-0.0264,0.1865-0.1592,0.3193-0.5049,0.373
					v1.5947h6.645v1.4883h-6.645v1.7812h-1.7808v-1.7812h-7.416v1.7812H46.248z M48.3213,245.3857
					c0,0.6387,0.2124,0.7715,1.6479,0.7715h4.9438c1.1431,0,1.356-0.3193,1.4355-2.6582c0.3989,0.292,1.1431,0.5576,1.6216,0.6641
					c-0.2393,2.9238-0.7974,3.6152-2.8975,3.6152h-5.21c-2.6577,0-3.3223-0.4785-3.3223-2.3926v-3.6943l2.2856,0.1592
					c-0.0264,0.1865-0.1592,0.293-0.5049,0.3457V245.3857z M58.5015,238.4219v-3.4551H47.0718v3.4551H58.5015z M53.3716,244.0039
					c-0.957-1.0098-2.9238-2.3125-4.6519-3.083l1.1167-1.0107c1.7544,0.6914,3.7476,1.9141,4.7314,2.9512L53.3716,244.0039z
					 M62.5684,247.3799c-0.8506-1.4883-2.8706-3.5088-4.811-4.8643l1.4087-0.9043c1.9404,1.2764,4.0405,3.2432,4.9175,4.7852
					L62.5684,247.3799z"/>
				<path d="M76.3086,224.7861c-0.0532,0.3184-0.3721,0.4521-0.877,0.4785c-0.2925,1.4883-0.771,4.0664-1.0898,5.6611
					c1.1958-0.1328,2.2856-0.2393,2.9502-0.2393c4.0405-0.0527,5.4229,2.6318,5.4229,6.6191c0,1.9932-0.3726,4.3594-0.9038,5.9541
					c-0.8242,2.7109-2.5254,4.0137-4.7314,4.0137c-1.0898,0-2.5254-0.4521-4.811-2.3125c0.292-0.4785,0.5049-1.0635,0.7173-1.6211
					c2.1265,1.6475,3.2432,2.0195,4.0669,2.0195c1.5151,0,2.4189-0.957,2.9507-2.6582c0.5581-1.6475,0.8506-4.0928,0.8506-5.4492
					c-0.0269-3.0293-1.0103-4.8369-3.6685-4.8105c-0.7974,0-1.8872,0.1064-3.2427,0.2656
					c-1.3291,5.4229-2.8975,10.0742-5.4492,14.3535l-1.7539-0.8506c2.5781-4.1201,4.04-8.2402,5.2896-13.29
					c-1.356,0.1592-3.2964,0.3984-4.7314,0.6377l-0.1597-1.8604c1.3027-0.1602,3.4819-0.3994,5.2632-0.6113
					c0.3984-1.9404,0.8237-4.333,1.1431-6.6719L76.3086,224.7861z M88.6157,237.5713c-0.8506-3.8809-3.376-7.1768-5.981-9.0908
					l1.4355-1.1162c2.8174,1.9941,5.6084,5.6621,6.459,9.4629L88.6157,237.5713z"/>
				<path d="M93.8237,229.5967c2.1528,0,4.1201-0.1855,4.9971-0.3984c0.0532-1.5947,0.0796-2.4717,0.186-4.8906l2.7378,0.2129
					c-0.0532,0.292-0.2925,0.4785-0.7441,0.5312c-0.1064,1.1699-0.2124,2.8174-0.2656,3.8008l0.8237,0.3193
					c-0.6377,1.2754-0.9038,2.8438-1.063,3.8008c2.9238-2.7373,6.1665-4.6777,8.3726-4.6777c2.499,0,3.748,1.7539,3.748,4.8379
					c0,0.3447-0.0264,0.6904-0.0532,1.0361c-0.186,2.3389-0.4517,5.6621-0.4517,7.7881c0,1.5947,0.186,2.4453,1.3022,2.4453
					c0.7974,0,2.3926-0.7969,3.5356-1.7803c0.0527,0.5312,0.2656,1.6211,0.3721,2.0195c-1.356,0.9834-2.9507,1.7285-4.1733,1.7285
					c-2.2329,0-2.9771-1.3291-2.9771-4.0938c0-1.3828,0.4785-8.6924,0.4785-8.7188c0-2.3125-0.7974-3.3496-2.1001-3.3496
					c-1.9937,0-5.3428,2.1533-8.1069,5.0771c0,3.8545,0,8.5859,0.0264,12.2012h-1.8604c0.0264-1.542,0-9.1172,0.0264-10.8184
					c-0.9302,1.8604-2.7378,4.2793-4.8379,6.4053l-0.9565-1.6738c2.2061-2.0732,4.6782-5.29,5.8477-8.0273
					c0-0.7715,0.0264-1.4893,0.0532-2.3398c-0.9307,0.2129-2.8706,0.4258-4.8911,0.4521L93.8237,229.5967z"/>
				<path d="M135.5801,229.3311c-2.2598,0.7979-5.2632,1.3027-8.1606,1.5156c-1.1162,6.0869-2.7378,12.1475-4.8643,16.6123
					l-1.9136-0.7168c2.1797-4.2803,3.7744-9.7822,4.811-15.8164c-0.5317,0.0273-4.0933,0.0537-4.8911,0.0273l-0.0264-1.8076
					c0.4253,0.0264,0.9834,0.0264,1.5947,0.0264c0.2393,0,2.8975,0,3.5884-0.0264c0.2661-1.7012,0.5317-3.5625,0.6914-5.1836
					l2.7378,0.2656c-0.0269,0.293-0.3989,0.5049-0.771,0.5322c-0.1597,1.1689-0.4253,2.6045-0.6646,4.2256
					c2.605-0.2393,5.2363-0.6904,7.4429-1.4883L135.5801,229.3311z M142.6504,247.0342c-0.7974,0.0264-1.6216,0.0527-2.4453,0.0527
					c-2.4985,0-4.8643-0.1855-6.2998-0.584c-1.8872-0.5322-2.9771-1.9141-2.9502-3.6689c0.0264-1.1689,0.5312-2.498,1.6479-3.8535
					l1.5947,0.6904c-0.9302,1.0898-1.3823,2.127-1.3823,2.9512c0,2.0996,2.02,2.6309,6.8579,2.6309
					c0.9834,0,1.9937-0.0264,2.9771-0.1064V247.0342z M132.2837,234.2227c2.7378-0.8779,6.5127-1.4355,9.6489-1.3564v1.8076
					c-3.0034-0.0791-6.4854,0.3457-9.1968,1.1963L132.2837,234.2227z"/>
				<path d="M145.8384,234.5947h24.6138v1.9668h-24.6138V234.5947z"/>
				<path d="M197.1104,234.9668v1.7275h-2.4453v9.3027c0,1.9941-0.877,2.2334-4.1201,2.2334
					c-0.0796-0.4785-0.3452-1.3027-0.6113-1.7812c0.585,0.0264,1.1431,0.0264,1.5952,0.0264c1.249,0,1.3818,0,1.3818-0.4785v-9.3027
					h-4.3589v11.2432h-1.7012v-11.2432h-4.3062v11.2432h-1.6748v-11.2432h-4.1201v11.6152h-1.7544v-11.6152h-2.6577v-1.7275h2.6577
					v-9.7559h19.6699v9.7559H197.1104z M176.7495,234.9668h4.1201v-8.001h-4.1201V234.9668z M182.5444,234.9668h4.3062v-8.001
					h-4.3062V234.9668z M188.5518,234.9668h4.3589v-8.001h-4.3589V234.9668z"/>
			</g>
			<g enable-background="new    ">
				<path d="M220.5225,228.6934v19.5107h-8.8516v-1.4092h7.4692v-18.1016H220.5225z"/>
			</g>
			<g clip-path="url(#SVGID_3_)" enable-background="new    ">
				<path d="M1.8892-463.4727v-13.9326H8.21v0.9873H2.876v12.9453H1.8892z"/>
				<path d="M24.9932-469.2051H18.729l0.3228,0.0947c-0.019,0.1143-0.1709,0.209-0.3799,0.2285
					c-0.4932,3.4355-2.0498,6.8525-5.8652,8.7695c-0.209-0.2471-0.7021-0.6836-1.0249-0.9307
					c3.7393-1.8604,5.0488-4.7451,5.4858-8.1621h-7.2515v-1.2715h14.9771V-469.2051z M22.2026-474.3867H11.6675v-1.2725h10.5352
					V-474.3867z M22.4492-477.1777c0.7783,0.8164,1.6514,2.1074,2.0884,3l-0.7593,0.5117c-0.3989-0.873-1.3101-2.2207-2.0693-2.999
					L22.4492-477.1777z M24.6895-477.8223c0.7783,0.8154,1.6895,2.1064,2.1445,2.9795l-0.7778,0.4746
					c-0.3989-0.835-1.3481-2.1826-2.0884-2.9609L24.6895-477.8223z"/>
				<path d="M44.623-470.9326h-4.062v1.2725c0,3.625-1.1196,7.3076-6.0933,9.5479c-0.2466-0.3037-0.6455-0.6836-0.9678-0.9492
					c4.8213-2.0879,5.7134-5.4668,5.7134-8.5801v-1.291h-6.0361v4.6885h-1.3477v-4.6885h-3.7207v-1.29h3.7207v-4.1572l1.8223,0.1133
					c-0.019,0.1904-0.1899,0.3613-0.4746,0.3994v3.6445h6.0361v-4.3848l1.8032,0.1133c-0.019,0.1523-0.1709,0.3232-0.4556,0.3604
					v3.9111h4.062V-470.9326z M41.7002-475.9434c0.8159,0.7402,1.7461,1.8408,2.2588,2.6953l-0.6836,0.5127
					c-0.5312-0.8545-1.4614-1.9932-2.2207-2.6768L41.7002-475.9434z M43.5791-477.5186c0.8545,0.7588,1.7656,1.8408,2.2778,2.7139
					l-0.6641,0.5127c-0.5508-0.8545-1.481-1.9932-2.2593-2.6953L43.5791-477.5186z"/>
				<path d="M61.938-475.4502c-0.0757,0.0947-0.1895,0.1523-0.3604,0.1523c-0.0571,0-0.1138,0-0.1899-0.0195
					c-1.4614,1.4805-3.5684,3.208-5.4097,4.5371c0.1519,0.0566,0.3794,0.1709,0.4556,0.209
					c-0.0381,0.1133-0.209,0.2275-0.418,0.2461v10.1934h-1.3857v-9.7568c-2.0117,1.4238-4.6313,2.9619-7.2319,4.2334
					c-0.1899-0.3037-0.5312-0.7783-0.7974-1.0439c5.1821-2.3916,10.8579-6.4541,13.9141-9.8135L61.938-475.4502z"/>
				<path d="M65.168-475.127c1.9741,0.626,4.252,1.6133,5.6562,2.5811l-0.7212,1.1963c-1.3667-0.9688-3.6064-1.9746-5.5425-2.6387
					L65.168-475.127z M65.0918-461.9727c6.7388-2.0879,11.2183-5.8652,13.4961-11.124c0.3989,0.3232,0.8354,0.5703,1.2339,0.7783
					c-2.3726,5.2012-7.0044,9.2441-13.439,11.3896c-0.019,0.1709-0.1328,0.3604-0.2661,0.4365L65.0918-461.9727z"/>
				<path d="M81.8179-474.6338c1.4233-0.0566,13.1162-0.8926,15.584-0.9111l0.019,1.4238
					c-0.2466-0.0195-0.4746-0.0195-0.7021-0.0195c-1.1011,0-2.0312,0.1904-3.2461,0.9688c-2.8472,1.708-5.5996,4.7646-5.5996,7.2129
					c0,2.6572,1.8604,4.2334,6.5679,4.8408l-0.6265,1.3281c-5.3911-0.7783-7.4033-2.79-7.4033-6.1689
					c0-2.6768,2.6387-5.9229,6.1123-8.1055c-2.0879,0.1523-7.6875,0.5693-10.1362,0.7979
					c-0.0571,0.1514-0.2656,0.2842-0.4175,0.3037L81.8179-474.6338z M94.1182-470.8945c0.9111,0.6836,1.9932,1.8037,2.5815,2.6201
					l-0.7212,0.5879c-0.5317-0.835-1.6895-2.0117-2.5059-2.6387L94.1182-470.8945z M96.168-472.5645
					c0.9302,0.6826,2.0312,1.7842,2.5815,2.6191l-0.7212,0.5693c-0.5127-0.7588-1.6133-1.9355-2.5059-2.6191L96.168-472.5645z"/>
				<path d="M102.4922-470.4961c-0.7217,1.1963-1.5186,2.2588-2.3159,3.1699c-0.1328-0.3037-0.4556-0.8916-0.6646-1.1953
					c1.8223-1.9746,3.6445-5.2578,4.7456-8.542l1.5186,0.5127c-0.0757,0.1328-0.209,0.1895-0.4365,0.1709
					c-0.4937,1.3281-1.082,2.6572-1.7466,3.9287l0.5127,0.1328c-0.0381,0.1143-0.1328,0.209-0.3799,0.2285v12.585h-1.2334V-470.4961
					z M114.2798-466.1865c1.4614,1.8789,2.98,4.4033,3.5498,6.0547l-1.2148,0.5889c-0.1519-0.4941-0.3989-1.0635-0.7026-1.6895
					c-3.7583,0.3418-7.7256,0.6455-10.269,0.835c-0.0381,0.1523-0.1519,0.2275-0.2847,0.2656l-0.5317-1.5371l2.2212-0.1143
					c0.7969-1.8789,1.6895-4.707,2.2207-6.8525h-4.2329v-1.2529h12.604v1.2529h-6.8716l0.2656,0.0762
					c-0.0566,0.1328-0.2085,0.209-0.4365,0.2275c-0.5312,1.8984-1.4233,4.5371-2.2397,6.4727l7.0044-0.4365
					c-0.6455-1.1572-1.4238-2.3721-2.1831-3.3975L114.2798-466.1865z M116.5767-475.6592v1.2148h-10.0605v-1.2148H116.5767z"/>
				<path d="M125.8994-466.5283c0.6455-0.3232,1.272-0.4365,1.8794-0.4365c0.9683,0,1.6704,0.7402,1.6704,1.9355
					c0,0.4941-0.0571,1.082-0.0571,1.5381c0,1.9355,1.1392,1.9355,2.7715,1.9355c0.8354,0,1.7842-0.0566,2.4678-0.1699
					c0,0.8535,0.0566,1.3477,0.0566,1.3477c-0.7402,0.0752-1.6323,0.1133-2.4673,0.1133c-0.7783,0-1.481-0.0381-1.9741-0.1133
					c-1.3667-0.209-2.145-1.2148-2.1641-2.335c0-0.4365,0.0381-1.291,0.0381-1.8604c0-0.7969-0.3037-1.2529-0.9683-1.2529
					c-0.9111,0-2.3159,0.5312-3.3979,1.5752c-1.1006,1.082-3.1699,3.1699-3.8149,3.9297c0,0-0.209-0.2656-1.0254-1.0059
					c1.8032-1.8418,7.7637-7.6309,9.6997-9.5098c-1.3853,0.1328-5.6943,0.3789-7.8584,0.4932
					c-0.0571,0.1143-0.1519,0.1895-0.3037,0.209l-0.1138-1.5186c2.6572-0.0762,7.6494-0.3232,9.5669-0.4941l0.2847-0.1709
					l1.1011,1.0068c-0.1138,0.0947-0.2471,0.1328-0.4556,0.1514c-1.1958,1.1201-3.5308,3.2646-4.9355,4.6123V-466.5283z
					 M130.6641-474.1211c-2.0312-0.5889-5.5996-1.1582-8.1245-1.2715l0.2847-1.2725c2.6196,0.1143,6.0366,0.627,8.2002,1.2529
					L130.6641-474.1211z"/>
				<path d="M140.5562-468.8633c1.2529-0.6455,3.208-1.1006,4.7075-1.1006c3.0181,0,4.9165,1.7646,4.9165,4.5557
					c0,3.4355-3.0181,5.334-6.8335,5.334c-2.4678,0-4.1572-0.9873-4.1572-2.6582c0-1.4043,1.3857-2.543,3.1133-2.543
					c2.1445,0,3.5874,1.708,3.8721,3.4355c1.5186-0.5693,2.6196-1.7842,2.6196-3.5498c0-2.0498-1.5186-3.3594-3.9106-3.3594
					c-2.8472,0-5.6372,1.2715-6.8901,2.4863c-0.5693,0.5312-1.3101,1.3291-1.8223,1.917l-0.9683-0.9678
					c1.7085-1.7842,7.1372-6.9668,9.7188-9.377c-1.1006,0.1514-4.8975,0.3037-7.061,0.3789
					c-0.0571,0.1338-0.2471,0.2471-0.3989,0.2852l-0.1519-1.6133c2.563-0.0195,7.46-0.209,8.8457-0.418l0.2847-0.1328l1.0063,1.2344
					c-0.0952,0.0752-0.2661,0.1514-0.4556,0.1709c-1.3477,1.1006-4.9546,4.4795-6.4351,5.9033V-468.8633z M143.1758-461.2705
					c0.5693,0,1.2339-0.0762,1.7271-0.1895c-0.2085-1.4619-1.2905-2.6953-2.6953-2.6953c-0.9868,0-1.8604,0.5312-1.8604,1.4043
					C140.3472-461.5928,141.9229-461.2705,143.1758-461.2705z"/>
				<path d="M167.6084-472.9629c0.2847,0,0.3228,0,0.6074-0.0195l0.7402,0.0762c0,0.1133-0.019,0.3037-0.0381,0.4365
					c-0.2847,8.333-0.5693,11.1611-1.3286,12.0342c-0.5317,0.665-1.1392,0.7783-2.3726,0.7783
					c-0.6455,0-1.4619-0.0186-2.2402-0.0762c-0.0186-0.3789-0.1895-0.9482-0.4556-1.3281c1.3481,0.1133,2.563,0.1328,3.0371,0.1328
					c0.3989,0,0.6265-0.0566,0.8354-0.2852c0.6265-0.626,0.9302-3.3594,1.1768-10.459h-6.8145
					c-0.2656,4.0244-1.5566,8.7129-7.1943,12.1865c-0.2085-0.3223-0.6831-0.7969-0.9868-1.0059
					c5.334-3.208,6.5864-7.498,6.8525-11.1807h-6.3022v-1.29h6.3589c0.019-0.3418,0.019-0.665,0.019-0.9873v-3.2275l1.7085,0.1143
					c-0.019,0.1328-0.1328,0.2275-0.3794,0.2656v2.8477c0,0.3223,0,0.6455-0.019,0.9873H167.6084z"/>
			</g>
			<g enable-background="new    ">
				<path d="M195.2715-473.4951v13.9326h-6.3208v-1.0059h5.3335v-12.9268H195.2715z"/>
			</g>
		</g>
	</g>
</g>
<g>
</g>
<g>
</g>
<g>
</g>
<g>
</g>
<g>
</g>
<g>
</g>
<g>
</g>
<g>
</g>
<g>
</g>
<g>
</g>
<g>
</g>
<g>
</g>
<g>
</g>
<g>
</g>
<g>
</g>
</svg>
