<?xml version="1.0" encoding="utf-8"?>
<!-- Generator: Adobe Illustrator 22.1.0, SVG Export Plug-In . SVG Version: 6.00 Build 0)  -->
<svg version="1.1" id="レイヤー_1" xmlns="http://www.w3.org/2000/svg" xmlns:xlink="http://www.w3.org/1999/xlink" x="0px"
	 y="0px" viewBox="0 0 400 124.4" style="enable-background:new 0 0 400 124.4;" xml:space="preserve">
<g>
	<g>
		<path d="M116.2,22.2l4.8,27.5c0.8,0.5,1.6,1.1,2.4,1.7l-5.2-29.5c-0.1-0.6-0.6-1-1.2-0.9C116.4,21.1,116.1,21.7,116.2,22.2"/>
		<path d="M105.6,25.3l7.1,19.6c0.9,0.5,1.9,1,2.8,1.5l-8-21.9c-0.2-0.5-0.8-0.8-1.4-0.6h0C105.7,24.1,105.4,24.7,105.6,25.3"/>
		<path d="M95.8,30.1l5.9,10.3c1,0.3,2,0.7,3,1L97.6,29c-0.3-0.5-0.9-0.7-1.4-0.4l0,0C95.6,28.9,95.5,29.6,95.8,30.1"/>
		<path d="M87,35L87,35c-0.4,0.4-0.5,1-0.1,1.5l1,1.2c0.9,0.1,1.9,0.2,3,0.3l-2.4-2.8C88.1,34.7,87.5,34.6,87,35"/>
		<path d="M169.1,35L169.1,35c0.4,0.4,0.5,1,0.1,1.5l-1,1.2c-0.9,0.1-1.9,0.2-3,0.3l2.4-2.8C168,34.7,168.7,34.6,169.1,35"/>
		<path d="M140.6,46.5c0.9-0.5,1.9-1,2.8-1.5l7.2-19.8c0.2-0.5-0.1-1.2-0.6-1.4h0c-0.5-0.2-1.2,0.1-1.4,0.6L140.6,46.5z"/>
		<path d="M132.8,51.5c0.8-0.6,1.6-1.1,2.4-1.7l4.9-27.6c0.1-0.6-0.3-1.1-0.9-1.2c-0.6-0.1-1.1,0.3-1.2,0.9L132.8,51.5z"/>
		<path d="M129.2,54.1v-33c0-0.6-0.5-1.1-1.1-1.1h0c-0.6,0-1.1,0.5-1.1,1.1v33c0.4,0.3,0.7,0.6,1.1,0.8
			C128.5,54.7,128.8,54.4,129.2,54.1"/>
		<path d="M151.4,41.5c1-0.4,2.1-0.8,3.1-1.1l6-10.4c0.3-0.5,0.1-1.2-0.4-1.4l0,0c-0.5-0.3-1.2-0.1-1.4,0.4L151.4,41.5z"/>
	</g>
	<g>
		<path d="M127.8,104.1c-6-6.1-16.3-17.4-31.3-23.9c-12.4-5.3-23.6-7.1-31.3-7.7l0-11.7c0-0.7,0.6-1.3,1.3-1.2
			c7.7,0.6,18.6,2.5,30.6,7.6c14.4,6.2,24.3,14.5,30.3,20.5c0.4,0.4,0.9,0.4,1.3,0"/>
		<path d="M128,104.1c6-6.1,16.3-17.4,31.3-23.9c12.4-5.3,23.6-7.1,31.3-7.7l0-11.7c0-0.7-0.6-1.3-1.3-1.2
			c-7.7,0.6-18.6,2.5-30.6,7.6c-14.4,6.2-24.3,14.5-30.3,20.5c-0.4,0.4-0.9,0.4-1.3,0"/>
	</g>
</g>
<g>
	<g>
		<path d="M211.7,40.5c-1.9,0-3.7-0.5-5.3-1.4c-0.2-0.1-0.3-0.3-0.2-0.5l0.7-2.2c0.1-0.2,0.3-0.3,0.5-0.2c1.3,0.9,2.7,1.3,4,1.3
			c2.1,0,3.5-1,3.5-2.5c0-1.6-1.3-2.3-3.3-3c-3.5-1.2-4.8-2.6-4.8-5.2c0-3.2,2.5-5.5,6-5.5c1.4,0,2.8,0.3,4.1,1.1
			c0.2,0.1,0.3,0.3,0.2,0.5l-0.6,2.2c-0.1,0.2-0.3,0.3-0.5,0.2c-1.1-0.6-2.1-1-3.2-1c-1.7,0-2.8,1-2.8,2.4c0,1.2,0.6,1.8,2.7,2.5
			c2.6,0.9,3.4,1.3,4.2,2.2c0.9,0.9,1.2,2.2,1.2,3.4C218.3,38.2,215.6,40.5,211.7,40.5"/>
		<path d="M224.6,29.2v6.6c0,1.5,0.4,1.9,1.7,1.9c0.4,0,0.9,0,1.5-0.1c0.2,0,0.4,0.1,0.4,0.3v2c0,0.2-0.2,0.4-0.4,0.4
			c-0.8,0.1-1.5,0.1-2.1,0.1c-1.9,0-3-0.5-3.6-1.5c-0.4-0.7-0.5-1.3-0.5-3v-6.8h-1.3c-0.2,0-0.4-0.2-0.4-0.4v-2.1
			c0-0.2,0.2-0.4,0.4-0.4h1.3v-3.6c0-0.2,0.2-0.4,0.4-0.4h2.3c0.2,0,0.4,0.2,0.4,0.4v3.6h3.5c0.2,0,0.4,0.2,0.4,0.4v2.1
			c0,0.2-0.2,0.4-0.4,0.4L224.6,29.2L224.6,29.2z"/>
		<path d="M240,39.8v-1.2c-1.1,1.3-2.3,1.9-3.9,1.9c-1.8,0-3.3-0.9-4-2.2c-0.5-1-0.6-1.8-0.6-4.1v-7.4c0-0.2,0.2-0.4,0.4-0.4h2.3
			c0.2,0,0.4,0.2,0.4,0.4v7.4c0,2.6,0.6,3.5,2.4,3.5c1.8,0,2.9-1.3,2.9-3.5v-7.4c0-0.2,0.2-0.4,0.4-0.4h2.3c0.2,0,0.4,0.2,0.4,0.4
			v13c0,0.2-0.2,0.4-0.4,0.4h-2.2C240.1,40.2,240,40,240,39.8z"/>
		<path d="M255.6,39.8v-1.2c-1.2,1.3-2.4,1.9-4.1,1.9c-3.5,0-6.1-3-6.1-7.2c0-4.2,2.5-7.2,6.1-7.2c1.5,0,2.8,0.6,4,1.7v-6.5
			c0-0.2,0.2-0.4,0.4-0.4h2.3c0.2,0,0.4,0.2,0.4,0.4v18.5c0,0.2-0.2,0.4-0.4,0.4H256C255.8,40.2,255.6,40,255.6,39.8z M252,28.9
			c-2.1,0-3.5,1.7-3.5,4.4c0,2.7,1.4,4.5,3.5,4.5c2.2,0,3.6-1.7,3.6-4.4C255.6,30.5,254.3,28.9,252,28.9"/>
		<path d="M264.4,34.3c0.2,2.5,1.6,3.6,4.3,3.6c1.3,0,2.3-0.3,3.6-0.9c0.2-0.1,0.5,0.1,0.5,0.3v2.1c0,0.2-0.1,0.3-0.3,0.4
			c-1.4,0.5-2.6,0.8-4.1,0.8c-4.4,0-7.1-2.7-7.1-7.1c0-4.3,2.6-7.4,6.4-7.4c2.7,0,4.8,1.5,5.7,4c0.3,1,0.5,2.1,0.5,3.6
			c0,0.3-0.3,0.6-0.6,0.6C273.4,34.3,264.4,34.3,264.4,34.3z M267.7,28.7c-1.8,0-3,1.2-3.2,3.3h6.5
			C270.7,29.9,269.5,28.7,267.7,28.7"/>
		<path d="M285.4,40.2c-0.2,0-0.4-0.2-0.4-0.4v-7.4c0-1.6-0.2-2.3-0.6-2.8c-0.4-0.4-1.1-0.7-1.8-0.7c-1,0-1.9,0.5-2.4,1.3
			c-0.4,0.6-0.5,1.1-0.5,2.2v7.4c0,0.2-0.2,0.4-0.4,0.4H277c-0.2,0-0.4-0.2-0.4-0.4v-13c0-0.2,0.2-0.4,0.4-0.4h2.2
			c0.2,0,0.4,0.2,0.4,0.4V28c1.1-1.3,2.3-1.9,3.9-1.9c1.8,0,3.3,0.9,4,2.2c0.5,1,0.6,1.8,0.6,4.1v7.4c0,0.2-0.2,0.4-0.4,0.4H285.4z"
			/>
		<path d="M295.2,29.2v6.6c0,1.5,0.4,1.9,1.7,1.9c0.4,0,0.9,0,1.5-0.1c0.2,0,0.4,0.1,0.4,0.3v2c0,0.2-0.2,0.4-0.4,0.4
			c-0.8,0.1-1.5,0.1-2.1,0.1c-1.9,0-3-0.5-3.6-1.5c-0.4-0.7-0.5-1.3-0.5-3v-6.8h-1.3c-0.2,0-0.4-0.2-0.4-0.4v-2.1
			c0-0.2,0.2-0.4,0.4-0.4h1.3v-3.6c0-0.2,0.2-0.4,0.4-0.4h2.3c0.2,0,0.4,0.2,0.4,0.4v3.6h3.5c0.2,0,0.4,0.2,0.4,0.4v2.1
			c0,0.2-0.2,0.4-0.4,0.4H295.2z"/>
	</g>
	<g>
		<path d="M209.5,54.8v4.7h7.3c0.2,0,0.4,0.2,0.4,0.4v2.2c0,0.2-0.2,0.4-0.4,0.4h-7.3v7.5c0,0.2-0.2,0.4-0.4,0.4h-2.5
			c-0.2,0-0.4-0.2-0.4-0.4v-18h11.3c0.2,0,0.4,0.2,0.4,0.4v2.3c0,0.2-0.2,0.4-0.4,0.4L209.5,54.8L209.5,54.8z"/>
		<path d="M226.5,59c-2.4,0-3.6,1.2-3.6,3.6v7.3c0,0.2-0.2,0.4-0.4,0.4h-2.3c-0.2,0-0.4-0.2-0.4-0.4v-13c0-0.2,0.2-0.4,0.4-0.4h2.2
			c0.2,0,0.4,0.2,0.4,0.4v1.2c0.9-1.3,2.1-1.9,3.7-1.9c0.1,0,0.1,0,0.2,0c0.2,0,0.3,0.2,0.3,0.3v2C227,58.8,226.8,59,226.5,59
			C226.6,59,226.5,59,226.5,59"/>
		<path d="M231.3,64.4c0.2,2.5,1.6,3.6,4.3,3.6c1.3,0,2.3-0.3,3.6-0.9c0.2-0.1,0.5,0.1,0.5,0.3v2.1c0,0.2-0.1,0.3-0.3,0.4
			c-1.4,0.5-2.6,0.8-4.1,0.8c-4.4,0-7.1-2.7-7.1-7.1c0-4.3,2.6-7.4,6.4-7.4c2.7,0,4.8,1.5,5.7,4c0.3,1,0.5,2.1,0.5,3.6
			c0,0.3-0.3,0.6-0.6,0.6L231.3,64.4L231.3,64.4z M234.6,58.8c-1.8,0-3,1.2-3.2,3.3h6.5C237.6,60,236.4,58.8,234.6,58.8"/>
		<path d="M246.2,64.4c0.2,2.5,1.6,3.6,4.3,3.6c1.3,0,2.3-0.3,3.6-0.9c0.2-0.1,0.5,0.1,0.5,0.3v2.1c0,0.2-0.1,0.3-0.3,0.4
			c-1.4,0.5-2.6,0.8-4.1,0.8c-4.4,0-7.1-2.7-7.1-7.1c0-4.3,2.6-7.4,6.4-7.4c2.7,0,4.8,1.5,5.7,4c0.3,1,0.5,2.1,0.5,3.6
			c0,0.3-0.3,0.6-0.6,0.6L246.2,64.4L246.2,64.4z M249.5,58.8c-1.8,0-3,1.2-3.2,3.3h6.5C252.5,60,251.3,58.8,249.5,58.8"/>
		<path d="M265.5,70.6c-1.5,0-2.8-0.6-4-1.7v7.1c0,0.2-0.2,0.4-0.4,0.4h-2.3c-0.2,0-0.4-0.2-0.4-0.4V56.9c0-0.2,0.2-0.4,0.4-0.4h2.3
			c0.2,0,0.4,0.2,0.4,0.4v1.2c1.1-1.2,2.4-1.9,4.1-1.9c3.6,0,6.1,3,6.1,7.2C271.6,67.6,269.1,70.6,265.5,70.6 M265,59
			c-2.2,0-3.6,1.7-3.6,4.4c0,2.8,1.3,4.5,3.6,4.5c2.2,0,3.5-1.7,3.5-4.5C268.5,60.7,267.1,59,265,59"/>
		<path d="M282.5,70c-0.1-0.3-0.2-0.7-0.2-1.1c-1.2,1.2-2.6,1.8-4.3,1.8c-2.7,0-4.6-1.7-4.6-4.2c0-1.8,1-3.3,2.6-4
			c0.8-0.4,2-0.6,3.9-0.9c1.9-0.2,2.2-0.4,2.2-1.1c0-1-1.1-1.6-2.7-1.6c-1.4,0-2.7,0.4-4.1,1.1c-0.2,0.1-0.5,0-0.5-0.3l-0.2-2.1
			c0-0.2,0.1-0.3,0.2-0.4c1.4-0.7,2.9-1.1,4.4-1.1c2.1,0,3.9,0.7,4.8,1.8c0.7,0.9,1,1.8,1,3.6v5.5c0,1.1,0.1,2,0.3,2.7
			c0.1,0.2-0.1,0.4-0.3,0.4h-2.2C282.8,70.3,282.6,70.1,282.5,70z M282.1,63.5c-0.6,0.3-1.1,0.4-2.6,0.6c-1.3,0.2-1.9,0.3-2.4,0.6
			c-0.6,0.3-0.9,0.9-0.9,1.6c0,1.1,0.7,1.8,1.9,1.8c1.6,0,3-0.8,3.9-2.3V63.5z"/>
		<path d="M295.4,70.6c-1.5,0-2.8-0.6-4-1.7v7.1c0,0.2-0.2,0.4-0.4,0.4h-2.3c-0.2,0-0.4-0.2-0.4-0.4V56.9c0-0.2,0.2-0.4,0.4-0.4h2.3
			c0.2,0,0.4,0.2,0.4,0.4v1.2c1.1-1.2,2.4-1.9,4.1-1.9c3.6,0,6.1,3,6.1,7.2C301.5,67.6,299,70.6,295.4,70.6 M294.9,59
			c-2.2,0-3.6,1.7-3.6,4.4c0,2.8,1.3,4.5,3.6,4.5c2.2,0,3.5-1.7,3.5-4.5C298.4,60.7,297.1,59,294.9,59"/>
		<path d="M306.8,64.4c0.2,2.5,1.6,3.6,4.3,3.6c1.3,0,2.3-0.3,3.6-0.9c0.2-0.1,0.5,0.1,0.5,0.3v2.1c0,0.2-0.1,0.3-0.3,0.4
			c-1.4,0.5-2.6,0.8-4.1,0.8c-4.4,0-7.1-2.7-7.1-7.1c0-4.3,2.6-7.4,6.4-7.4c2.7,0,4.8,1.5,5.7,4c0.3,1,0.5,2.1,0.5,3.6
			c0,0.3-0.3,0.6-0.6,0.6L306.8,64.4L306.8,64.4z M310.1,58.8c-1.8,0-3,1.2-3.2,3.3h6.5C313.1,60,312,58.8,310.1,58.8"/>
		<path d="M325.1,59c-2.4,0-3.6,1.2-3.6,3.6v7.3c0,0.2-0.2,0.4-0.4,0.4h-2.3c-0.2,0-0.4-0.2-0.4-0.4v-13c0-0.2,0.2-0.4,0.4-0.4h2.2
			c0.2,0,0.4,0.2,0.4,0.4v1.2c0.9-1.3,2.1-1.9,3.7-1.9c0.1,0,0.1,0,0.2,0c0.2,0,0.3,0.2,0.3,0.3v2C325.6,58.8,325.4,59,325.1,59
			C325.1,59,325.1,59,325.1,59"/>
	</g>
	<g>
		<path d="M209.5,88.4v4.7h7.3c0.2,0,0.4,0.2,0.4,0.4v2.2c0,0.2-0.2,0.4-0.4,0.4h-7.3v7.5c0,0.2-0.2,0.4-0.4,0.4h-2.5
			c-0.2,0-0.4-0.2-0.4-0.4v-18h11.3c0.2,0,0.4,0.2,0.4,0.4v2.3c0,0.2-0.2,0.4-0.4,0.4L209.5,88.4L209.5,88.4z"/>
		<path d="M226.2,104.2c-4,0-6.8-3-6.8-7.3c0-4.1,2.9-7.1,6.8-7.1c3.9,0,6.8,3.1,6.8,7.2C233,101.2,230.1,104.2,226.2,104.2
			 M226.2,92.6c-2.3,0-3.7,1.8-3.7,4.5c0,2.6,1.5,4.4,3.7,4.4c2.3,0,3.7-1.8,3.7-4.5C230,94.3,228.5,92.6,226.2,92.6"/>
		<path d="M242.3,92.6c-2.4,0-3.6,1.2-3.6,3.6v7.3c0,0.2-0.2,0.4-0.4,0.4h-2.3c-0.2,0-0.4-0.2-0.4-0.4v-13c0-0.2,0.2-0.4,0.4-0.4
			h2.2c0.2,0,0.4,0.2,0.4,0.4v1.2c0.9-1.3,2.1-1.9,3.7-1.9c0.1,0,0.1,0,0.2,0c0.2,0,0.3,0.2,0.3,0.3v2
			C242.9,92.4,242.7,92.6,242.3,92.6C242.4,92.6,242.4,92.6,242.3,92.6"/>
		<path d="M253.8,103.5v-1.2c-1.1,1.3-2.3,1.9-3.9,1.9c-1.8,0-3.3-0.9-4-2.2c-0.5-1-0.6-1.8-0.6-4.1v-7.4c0-0.2,0.2-0.4,0.4-0.4h2.3
			c0.2,0,0.4,0.2,0.4,0.4v7.4c0,2.6,0.6,3.5,2.4,3.5c1.8,0,2.9-1.3,2.9-3.5v-7.4c0-0.2,0.2-0.4,0.4-0.4h2.3c0.2,0,0.4,0.2,0.4,0.4
			v13c0,0.2-0.2,0.4-0.4,0.4h-2.2C254,103.9,253.8,103.7,253.8,103.5z"/>
		<path d="M276.5,103.9c-0.2,0-0.4-0.2-0.4-0.4V96c0-1.6-0.2-3.4-2.2-3.4c-1.7,0-2.7,1.3-2.7,3.6v7.4c0,0.2-0.2,0.4-0.4,0.4h-2.3
			c-0.2,0-0.4-0.2-0.4-0.4V96c0-2.4-0.6-3.4-2.1-3.4c-1.6,0-2.7,1.3-2.7,3.3v7.6c0,0.2-0.2,0.4-0.4,0.4h-2.3c-0.2,0-0.4-0.2-0.4-0.4
			v-13c0-0.2,0.2-0.4,0.4-0.4h2.2c0.2,0,0.4,0.2,0.4,0.4v1.2c0.9-1.2,2.1-1.9,3.7-1.9c1.6,0,2.7,0.7,3.6,2.1
			c1.1-1.5,2.5-2.1,4.2-2.1c1.8,0,3.3,0.9,3.9,2.2c0.4,0.9,0.6,1.8,0.6,3.8v7.8c0,0.2-0.2,0.4-0.4,0.4H276.5z"/>
		<path d="M284,103.9c-0.6,0-0.9-0.7-0.5-1.2c6.9-7.3,8.7-9.8,8.7-11.9c0-1.6-1.2-2.7-2.8-2.7c-1.6,0-3,0.9-4.2,2.6
			c-0.1,0.2-0.5,0.2-0.6,0l-1.1-2.6c1.5-1.9,3.5-3,6-3c3.6,0,6,2.3,6,5.6c0,2.7-1.2,4.7-6.2,10.1h7v3L284,103.9L284,103.9z"/>
		<path d="M304.5,104.2c-2.2,0-4.1-1.1-5.2-3c-0.9-1.5-1.3-3.8-1.3-6.5c0-6.2,2.3-9.6,6.6-9.6c2.3,0,4.2,1.1,5.3,3
			c0.9,1.6,1.3,3.8,1.3,6.6C311.2,100.9,308.8,104.2,304.5,104.2 M304.6,88.1c-2.2,0-3.3,2.2-3.3,6.5c0,4.5,1.1,6.7,3.4,6.7
			c2.2,0,3.3-2.2,3.3-6.6C307.9,90.2,306.8,88.1,304.6,88.1"/>
		<path d="M316.5,103.5V89l-3.1,2.1c-0.1,0.1-0.3,0-0.3-0.1l-0.4-2.7l4.2-2.8h2.6c0.2,0,0.4,0.2,0.4,0.4v17.7c0,0.2-0.2,0.4-0.4,0.4
			h-2.6C316.7,103.9,316.5,103.7,316.5,103.5z"/>
		<path d="M329.3,104.2c-3.8,0-6.6-2.5-6.6-5.8c0-2.1,1.1-3.9,2.8-4.8c-1.2-0.8-1.8-2.2-1.8-3.6c0-2.8,2.4-4.9,5.6-4.9
			c3.3,0,5.7,2,5.7,4.8c0,1.5-0.7,2.9-1.9,3.7c1.8,1,2.9,2.8,2.9,4.8C336,101.7,333.1,104.2,329.3,104.2 M329.3,95.4
			c-2,0-3.4,1.2-3.4,2.9c0,1.8,1.7,3,3.3,3c2,0,3.4-1.2,3.4-3S331.3,95.4,329.3,95.4 M329.3,87.8c-1.5,0-2.5,0.9-2.5,2.3
			c0,1.4,1,2.3,2.5,2.3c1.6,0,2.6-0.9,2.6-2.3C331.9,88.7,330.8,87.8,329.3,87.8"/>
	</g>
</g>
</svg>
