<?xml version="1.0" encoding="utf-8"?>
<!-- Generator: Adobe Illustrator 22.1.0, SVG Export Plug-In . SVG Version: 6.00 Build 0)  -->
<svg version="1.1" id="レイヤー_1" xmlns="http://www.w3.org/2000/svg" xmlns:xlink="http://www.w3.org/1999/xlink" x="0px"
	 y="0px" viewBox="0 0 225 124" enable-background="new 0 0 225 124" xml:space="preserve">
<g>
	<g>
		<path d="M100.736,22.1534l4.8457,27.4815c0.8085,0.5368,1.6231,1.0973,2.4439,1.682l-5.2072-29.5308
			c-0.1014-0.5752-0.6495-0.9592-1.2251-0.8578C101.0183,21.0301,100.6346,21.5782,100.736,22.1534"/>
		<path d="M90.1955,25.1685l7.1455,19.6328c0.9191,0.4676,1.8547,0.9746,2.7985,1.5036l-7.9564-21.8599
			c-0.1997-0.5488-0.8064-0.8318-1.3552-0.632h-0.0003C90.2787,24.0127,89.9957,24.6197,90.1955,25.1685"/>
		<path d="M80.339,29.9684l5.9454,10.2982c0.9873,0.3093,2.0006,0.6526,3.0397,1.0335l-7.153-12.3896
			c-0.2922-0.5057-0.939-0.679-1.4446-0.3871l-0.0003,0.0003C80.2201,28.816,80.0468,29.4625,80.339,29.9684"/>
		<path d="M71.5959,34.9165l-0.0003,0.0004c-0.4474,0.3755-0.506,1.0421-0.1302,1.4899l1,1.1918
			c0.9191,0.063,1.9229,0.1569,3.0058,0.2912l-2.3854-2.8427C72.7103,34.5996,72.0433,34.5414,71.5959,34.9165"/>
		<path d="M153.7007,34.9165l0.0003,0.0004c0.4478,0.3755,0.506,1.0421,0.1305,1.4899l-1,1.1918
			c-0.9195,0.063-1.9229,0.1569-3.0061,0.2912l2.3857-2.8427C152.5866,34.5996,153.2532,34.5414,153.7007,34.9165"/>
		<path d="M125.1885,46.4047c0.94-0.5255,1.8725-1.0246,2.7951-1.4953l7.2153-19.8232c0.1997-0.5491-0.0832-1.1558-0.6324-1.3556
			h-0.0003c-0.5488-0.1997-1.1555,0.0832-1.3552,0.632L125.1885,46.4047z"/>
		<path d="M117.35,51.3623c0.8177-0.5796,1.6317-1.1353,2.4422-1.6701l4.8629-27.5802c0.1014-0.5752-0.2826-1.1236-0.8578-1.2247
			c-0.5748-0.1017-1.1233,0.2823-1.2251,0.8575L117.35,51.3623z"/>
		<path d="M113.755,54.0483v-33.034c0-0.5837-0.4734-1.0572-1.0572-1.0572h-0.0007c-0.5841,0-1.0575,0.4734-1.0575,1.0572v33.0107
			c0.357,0.2806,0.7126,0.5536,1.0719,0.8441C113.0599,54.5872,113.4069,54.3214,113.755,54.0483"/>
		<path d="M135.974,41.3627c1.0452-0.3964,2.0722-0.7626,3.075-1.0949l6.017-10.4222c0.2922-0.5056,0.1189-1.1524-0.3868-1.4443
			l-0.0007-0.0004c-0.5056-0.2919-1.1524-0.1189-1.4446,0.3868L135.974,41.3627z"/>
	</g>
	<g>
		<path d="M112.4148,104.0428c-6.0242-6.1236-16.308-17.3964-31.3242-23.8605c-12.4016-5.3387-23.5885-7.1184-31.3091-7.721
			l-0.0003-11.7336c-0.0003-0.7023,0.5975-1.2572,1.2973-1.199c7.7066,0.6392,18.6009,2.4549,30.6353,7.6216
			c14.3612,6.166,24.3469,14.5263,30.3489,20.4638c0.36,0.3566,0.9373,0.3566,1.2977,0"/>
		<path d="M112.5852,104.0428c6.0242-6.1236,16.308-17.3964,31.3242-23.8605c12.4016-5.3387,23.5885-7.1184,31.3091-7.721
			l0.0003-11.7336c0-0.7023-0.5974-1.2572-1.2973-1.199c-7.7066,0.6392-18.6009,2.4549-30.6353,7.6216
			c-14.3612,6.166-24.3473,14.5263-30.3489,20.4638c-0.36,0.3566-0.9373,0.3566-1.2977,0"/>
	</g>
</g>
</svg>
