<?xml version="1.0" encoding="utf-8"?>
<!-- Generator: Adobe Illustrator 22.1.0, SVG Export Plug-In . SVG Version: 6.00 Build 0)  -->
<svg version="1.1" id="レイヤー_1" xmlns="http://www.w3.org/2000/svg" xmlns:xlink="http://www.w3.org/1999/xlink" x="0px"
	 y="0px" viewBox="0 0 400 200" enable-background="new 0 0 400 200" xml:space="preserve">
<g>
	<g>
		<path d="M116.153,60.041l4.8457,27.4815c0.8085,0.5368,1.6231,1.0973,2.4439,1.682l-5.2072-29.5308
			c-0.1014-0.5752-0.6495-0.9592-1.2251-0.8578C116.4353,58.9177,116.0516,59.4658,116.153,60.041"/>
		<path d="M105.6125,63.0561l7.1455,19.6328c0.9191,0.4676,1.8547,0.9746,2.7985,1.5036l-7.9564-21.8599
			c-0.1997-0.5488-0.8064-0.8318-1.3552-0.632h-0.0003C105.6957,61.9003,105.4127,62.5073,105.6125,63.0561"/>
		<path d="M95.756,67.856l5.9454,10.2982c0.9873,0.3093,2.0006,0.6526,3.0397,1.0335l-7.153-12.3896
			c-0.2922-0.5057-0.939-0.679-1.4446-0.3871l-0.0003,0.0003C95.6371,66.7036,95.4638,67.3501,95.756,67.856"/>
		<path d="M87.0129,72.8042l-0.0003,0.0004c-0.4474,0.3755-0.506,1.0421-0.1302,1.4899l1,1.1918
			c0.9191,0.063,1.9229,0.1569,3.0058,0.2912l-2.3854-2.8427C88.1273,72.4873,87.4603,72.429,87.0129,72.8042"/>
		<path d="M169.1177,72.8042l0.0003,0.0004c0.4478,0.3755,0.506,1.0421,0.1305,1.4899l-1,1.1918
			c-0.9195,0.063-1.9229,0.1569-3.0061,0.2912l2.3857-2.8427C168.0036,72.4873,168.6702,72.429,169.1177,72.8042"/>
		<path d="M140.6055,84.2924c0.94-0.5255,1.8725-1.0246,2.7951-1.4953l7.2153-19.8232c0.1997-0.5491-0.0832-1.1558-0.6324-1.3556
			h-0.0003c-0.5488-0.1997-1.1555,0.0832-1.3552,0.632L140.6055,84.2924z"/>
		<path d="M132.767,89.2499c0.8177-0.5796,1.6317-1.1353,2.4422-1.6701l4.8629-27.5802c0.1014-0.5752-0.2826-1.1236-0.8578-1.2247
			c-0.5748-0.1017-1.1233,0.2823-1.2251,0.8575L132.767,89.2499z"/>
		<path d="M129.172,91.936V58.902c0-0.5837-0.4734-1.0572-1.0572-1.0572h-0.0007c-0.5841,0-1.0575,0.4734-1.0575,1.0572v33.0107
			c0.357,0.2806,0.7126,0.5536,1.0719,0.8441C128.4769,92.4749,128.8239,92.209,129.172,91.936"/>
		<path d="M151.391,79.2504c1.0452-0.3964,2.0722-0.7626,3.075-1.0949l6.017-10.4222c0.2922-0.5056,0.1189-1.1524-0.3868-1.4443
			l-0.0007-0.0004c-0.5056-0.2919-1.1524-0.1189-1.4446,0.3868L151.391,79.2504z"/>
	</g>
	<g>
		<path d="M127.8318,141.9305c-6.0242-6.1236-16.308-17.3964-31.3242-23.8605c-12.4016-5.3387-23.5885-7.1184-31.3091-7.721
			l-0.0003-11.7336c-0.0003-0.7023,0.5975-1.2572,1.2973-1.199c7.7066,0.6392,18.6009,2.4549,30.6353,7.6216
			c14.3612,6.166,24.3469,14.5263,30.3489,20.4638c0.36,0.3566,0.9373,0.3566,1.2977,0"/>
		<path d="M128.0021,141.9305c6.0242-6.1236,16.308-17.3964,31.3242-23.8605c12.4016-5.3387,23.5885-7.1184,31.3091-7.721
			l0.0003-11.7336c0-0.7023-0.5974-1.2572-1.2973-1.199c-7.7066,0.6392-18.6009,2.4549-30.6353,7.6216
			c-14.3612,6.166-24.3473,14.5263-30.3489,20.4638c-0.36,0.3566-0.9373,0.3566-1.2977,0"/>
	</g>
</g>
<g>
	<g>
		<path d="M211.733,78.3115c-1.8883,0-3.654-0.4904-5.2586-1.4326c-0.1761-0.1034-0.2536-0.3186-0.1909-0.5129l0.7007-2.1711
			c0.0674-0.2088,0.3152-0.2992,0.499-0.1793c1.342,0.8754,2.7309,1.3208,4.0423,1.3208c2.0981,0,3.5285-1.0144,3.5285-2.5131
			c0-1.6139-1.3382-2.3056-3.3441-2.9512c-3.5276-1.1528-4.7957-2.6284-4.7957-5.1886c0-3.2278,2.4901-5.5104,5.9946-5.5104
			c1.4178,0,2.7741,0.3399,4.1276,1.0568c0.1778,0.0942,0.2652,0.3016,0.2154,0.4965l-0.5612,2.1936
			c-0.0557,0.2176-0.3056,0.321-0.498,0.205c-1.0718-0.6463-2.1409-0.9777-3.1916-0.9777c-1.66,0-2.8359,0.9693-2.8359,2.3527
			c0,1.244,0.5533,1.7522,2.7437,2.5131c2.6284,0.8992,3.3671,1.3142,4.1741,2.1904c0.8531,0.9453,1.222,2.1673,1.222,3.3893
			C218.3049,75.9598,215.6074,78.3115,211.733,78.3115"/>
		<path d="M224.5712,67.0128v6.6411c0,1.4526,0.3919,1.8676,1.7292,1.8676c0.4248,0,0.9133-0.0322,1.5329-0.1101
			c0.2012-0.0253,0.3807,0.131,0.3807,0.3338v1.989c0,0.2237-0.168,0.413-0.3904,0.4372c-0.8085,0.0883-1.5287,0.1399-2.1458,0.1399
			c-1.8906,0-3.0434-0.4842-3.6429-1.5448c-0.415-0.7147-0.5072-1.2911-0.5072-2.9511v-6.8025h-1.2844
			c-0.1947,0-0.3526-0.1579-0.3526-0.3526v-2.0846c0-0.1947,0.1579-0.3526,0.3526-0.3526h1.2844v-3.614
			c0-0.1947,0.1579-0.3526,0.3526-0.3526h2.3383c0.1947,0,0.3526,0.1578,0.3526,0.3526v3.614h3.4747
			c0.1947,0,0.3526,0.1579,0.3526,0.3526v2.0846c0,0.1947-0.1578,0.3526-0.3526,0.3526H224.5712z"/>
		<path d="M239.9644,77.5897v-1.1691c-1.0836,1.3373-2.2826,1.8906-3.9426,1.8906c-1.7523,0-3.321-0.8761-3.9657-2.2364
			c-0.4851-0.9914-0.5995-1.8445-0.5995-4.128v-7.3712c0-0.1947,0.1579-0.3526,0.3526-0.3526h2.3383
			c0.1947,0,0.3526,0.1579,0.3526,0.3526v7.4413c0,2.6044,0.6225,3.5045,2.4209,3.5045c1.8214,0,2.9281-1.3373,2.9281-3.5045
			v-7.4413c0-0.1947,0.1579-0.3526,0.3526-0.3526h2.3383c0.1947,0,0.3526,0.1579,0.3526,0.3526v13.0141
			c0,0.1947-0.1578,0.3526-0.3526,0.3526h-2.223C240.1223,77.9423,239.9644,77.7845,239.9644,77.5897z"/>
		<path d="M255.6438,77.5896v-1.1692c-1.1759,1.3142-2.4439,1.8916-4.0809,1.8916c-3.5276,0-6.0647-2.9983-6.0647-7.2175
			c0-4.2433,2.5141-7.2406,6.0877-7.2406c1.5217,0,2.8129,0.5534,3.9887,1.7293v-6.5412c0-0.1947,0.1579-0.3526,0.3526-0.3526
			h2.3383c0.1947,0,0.3526,0.1578,0.3526,0.3526v18.5476c0,0.1947-0.1578,0.3526-0.3526,0.3526h-2.2691
			C255.8016,77.9421,255.6438,77.7843,255.6438,77.5896z M252.047,66.6437c-2.1212,0-3.5045,1.7292-3.5045,4.4268
			c0,2.7216,1.3834,4.4508,3.5276,4.4508c2.1903,0,3.5506-1.6601,3.5506-4.3806C255.6207,68.3047,254.3065,66.6437,252.047,66.6437"
			/>
		<path d="M264.4038,72.0629c0.2306,2.467,1.5678,3.5506,4.3345,3.5506c1.2581,0,2.314-0.2583,3.6442-0.8903
			c0.2236-0.1062,0.4828,0.0552,0.4828,0.3027v2.1094c0,0.1808-0.111,0.3457-0.2796,0.4108c-1.4029,0.5417-2.633,0.765-4.1472,0.765
			c-4.3806,0-7.0551-2.7206-7.0551-7.1253c0-4.3115,2.6284-7.3549,6.3635-7.3549c2.6524,0,4.7966,1.5217,5.6727,4.0348
			c0.3463,0.9778,0.5126,2.1003,0.5467,3.5889c0.0076,0.333-0.2617,0.6083-0.5947,0.6083H264.4038z M267.7009,66.4823
			c-1.7753,0-2.9742,1.199-3.2278,3.2509h6.4557C270.6991,67.6813,269.5223,66.4823,267.7009,66.4823"/>
		<path d="M285.3743,77.9423c-0.1947,0-0.3526-0.1578-0.3526-0.3526v-7.4413c0-1.5909-0.1614-2.3287-0.5995-2.8128
			c-0.392-0.4381-1.0615-0.6917-1.8224-0.6917c-0.9674,0-1.8906,0.5072-2.4209,1.3142c-0.392,0.5994-0.5072,1.1297-0.5072,2.1903
			v7.4413c0,0.1947-0.1579,0.3526-0.3526,0.3526h-2.3383c-0.1947,0-0.3526-0.1578-0.3526-0.3526V64.5756
			c0-0.1947,0.1579-0.3526,0.3526-0.3526h2.224c0.1947,0,0.3526,0.1579,0.3526,0.3526v1.1691
			c1.0827-1.3373,2.2595-1.8906,3.9195-1.8906c1.7753,0,3.297,0.8531,3.9887,2.2364c0.4842,0.9683,0.5995,1.8214,0.5995,4.1271
			v7.3721c0,0.1947-0.1578,0.3526-0.3525,0.3526H285.3743z"/>
		<path d="M295.1926,67.0128v6.6411c0,1.4526,0.392,1.8676,1.7292,1.8676c0.4248,0,0.9133-0.0322,1.5329-0.1101
			c0.2012-0.0253,0.3807,0.131,0.3807,0.3338v1.989c0,0.2237-0.168,0.413-0.3904,0.4372c-0.808,0.0883-1.5288,0.1398-2.1458,0.1398
			c-1.8906,0-3.0434-0.4842-3.6429-1.5448c-0.415-0.7147-0.5072-1.2911-0.5072-2.9511v-6.8025h-1.2844
			c-0.1947,0-0.3525-0.1579-0.3525-0.3526v-2.0846c0-0.1947,0.1578-0.3526,0.3525-0.3526h1.2844v-3.614
			c0-0.1947,0.1578-0.3526,0.3526-0.3526h2.3383c0.1947,0,0.3525,0.1578,0.3525,0.3526v3.614h3.4747
			c0.1947,0,0.3526,0.1579,0.3526,0.3526v2.0846c0,0.1947-0.1578,0.3526-0.3526,0.3526H295.1926z"/>
	</g>
	<g>
		<path d="M209.5129,92.6342v4.6814h7.326c0.1947,0,0.3526,0.1579,0.3526,0.3526v2.223c0,0.1947-0.1579,0.3526-0.3526,0.3526h-7.326
			v7.4644c0,0.1947-0.1579,0.3526-0.3526,0.3526h-2.5458c-0.1947,0-0.3526-0.1579-0.3526-0.3526V89.66h11.3147
			c0.1947,0,0.3526,0.1578,0.3526,0.3526v2.2691c0,0.1947-0.1579,0.3526-0.3526,0.3526H209.5129z"/>
		<path d="M226.4951,96.7616c-2.3517,0-3.5516,1.222-3.5516,3.6429v7.303c0,0.1947-0.1579,0.3526-0.3526,0.3526h-2.3383
			c-0.1947,0-0.3526-0.1579-0.3526-0.3526V94.6933c0-0.1947,0.1579-0.3526,0.3526-0.3526h2.2239
			c0.1947,0,0.3526,0.1579,0.3526,0.3526v1.1691c0.8992-1.2681,2.1212-1.8906,3.689-1.8906c0.0635,0,0.1198,0,0.1788,0.0014
			c0.1826,0.0043,0.3284,0.1545,0.3284,0.3371l0,2.0114c0,0.2436-0.1969,0.4406-0.4406,0.4399
			C226.5585,96.7616,226.5291,96.7616,226.4951,96.7616"/>
		<path d="M231.2747,102.1808c0.2306,2.467,1.5678,3.5506,4.3345,3.5506c1.2583,0,2.3135-0.2584,3.6453-0.8906
			c0.2235-0.1061,0.4827,0.0553,0.4827,0.3028v2.1097c0,0.1808-0.111,0.3457-0.2796,0.4108c-1.403,0.5417-2.6339,0.765-4.1472,0.765
			c-4.3816,0-7.0561-2.7206-7.0561-7.1253c0-4.3115,2.6284-7.3549,6.3635-7.3549c2.6524,0,4.7966,1.5217,5.6727,4.0348
			c0.3455,0.9778,0.5117,2.1003,0.5457,3.5889c0.0076,0.333-0.2616,0.6083-0.5947,0.6083H231.2747z M234.5717,96.6002
			c-1.7753,0-2.9742,1.199-3.2278,3.2509h6.4557C237.569,97.7992,236.3931,96.6002,234.5717,96.6002"/>
		<path d="M246.1929,102.1808c0.2306,2.467,1.5678,3.5506,4.3345,3.5506c1.2591,0,2.3137-0.2584,3.6453-0.8906
			c0.2235-0.1061,0.4827,0.0553,0.4827,0.3028v2.1097c0,0.1808-0.111,0.3457-0.2796,0.4108c-1.403,0.5417-2.6339,0.765-4.1472,0.765
			c-4.3816,0-7.0561-2.7206-7.0561-7.1253c0-4.3115,2.6284-7.3549,6.3634-7.3549c2.6524,0,4.7966,1.5217,5.6727,4.0348
			c0.3455,0.9778,0.5117,2.1003,0.5457,3.5889c0.0076,0.3329-0.2616,0.6083-0.5947,0.6083H246.1929z M249.4899,96.6002
			c-1.7753,0-2.9742,1.199-3.2278,3.2509h6.4557C252.4872,97.7992,251.3113,96.6002,249.4899,96.6002"/>
		<path d="M265.4807,108.4299c-1.5217,0-2.8138-0.5543-3.9887-1.7302v7.1416c0,0.1947-0.1579,0.3526-0.3526,0.3526h-2.3392
			c-0.1947,0-0.3526-0.1579-0.3526-0.3526V94.6933c0-0.1947,0.1578-0.3526,0.3526-0.3526h2.2691
			c0.1947,0,0.3526,0.1579,0.3526,0.3526v1.1691c1.1297-1.245,2.3978-1.8906,4.0809-1.8906c3.5516,0,6.0647,2.9973,6.0647,7.2166
			C271.5675,105.4316,269.0544,108.4299,265.4807,108.4299 M264.9965,96.7616c-2.2144,0-3.5746,1.6831-3.5746,4.3816
			c0,2.8359,1.3382,4.4959,3.5746,4.4959c2.1673,0,3.5276-1.7292,3.5276-4.4508C268.5241,98.4908,267.1398,96.7616,264.9965,96.7616
			"/>
		<path d="M282.528,107.7579c-0.1101-0.3158-0.1539-0.6506-0.1714-1.1047c-1.1759,1.1759-2.6294,1.7763-4.3345,1.7763
			c-2.7437,0-4.5882-1.6831-4.5882-4.1972c0-1.7753,0.9905-3.2509,2.6053-3.9656c0.83-0.3689,1.9828-0.5995,3.8965-0.8531
			c1.8675-0.2306,2.1673-0.415,2.1673-1.1298c0-0.9684-1.0606-1.5909-2.7206-1.5909c-1.391,0-2.7259,0.3739-4.0889,1.1385
			c-0.213,0.1195-0.4784-0.0201-0.4997-0.2633l-0.1824-2.081c-0.0155-0.1772,0.0765-0.3495,0.2349-0.4305
			c1.4384-0.7365,2.8992-1.0842,4.4429-1.0842c2.0991,0,3.8753,0.6907,4.8197,1.8445c0.7148,0.8992,0.9914,1.8445,0.9914,3.6429
			v5.4653c0,1.1245,0.1103,1.9812,0.3445,2.7003c0.0701,0.2154-0.0955,0.4353-0.322,0.4353h-2.1761
			C282.7566,108.0605,282.5906,107.9375,282.528,107.7579z M282.1492,101.3041c-0.5995,0.2767-1.0606,0.392-2.5592,0.5764
			c-1.2912,0.1614-1.8906,0.2997-2.3758,0.5995c-0.5533,0.3458-0.8982,0.9222-0.8982,1.5908c0,1.1067,0.7148,1.7532,1.9137,1.7532
			c1.5909,0,2.9973-0.831,3.9195-2.3066V101.3041z"/>
		<path d="M295.3982,108.4299c-1.5217,0-2.8138-0.5543-3.9887-1.7302v7.1416c0,0.1947-0.1578,0.3526-0.3526,0.3526h-2.3392
			c-0.1947,0-0.3526-0.1579-0.3526-0.3526V94.6933c0-0.1947,0.1579-0.3526,0.3526-0.3526h2.2691
			c0.1947,0,0.3526,0.1579,0.3526,0.3526v1.1691c1.1297-1.245,2.3978-1.8906,4.0809-1.8906c3.5516,0,6.0647,2.9973,6.0647,7.2166
			C301.485,105.4316,298.9719,108.4299,295.3982,108.4299 M294.914,96.7616c-2.2144,0-3.5746,1.6831-3.5746,4.3816
			c0,2.8359,1.3382,4.4959,3.5746,4.4959c2.1673,0,3.5276-1.7292,3.5276-4.4508C298.4416,98.4908,297.0573,96.7616,294.914,96.7616"
			/>
		<path d="M306.8336,102.1808c0.2306,2.467,1.5678,3.5506,4.3345,3.5506c1.2591,0,2.3137-0.2584,3.6453-0.8906
			c0.2235-0.1061,0.4827,0.0553,0.4827,0.3028v2.1097c0,0.1808-0.111,0.3457-0.2796,0.4108c-1.403,0.5417-2.6339,0.765-4.1472,0.765
			c-4.3816,0-7.0561-2.7206-7.0561-7.1253c0-4.3115,2.6284-7.3549,6.3635-7.3549c2.6524,0,4.7966,1.5217,5.6728,4.0348
			c0.3455,0.9778,0.5117,2.1003,0.5457,3.5889c0.0076,0.3329-0.2617,0.6083-0.5947,0.6083H306.8336z M310.1307,96.6002
			c-1.7753,0-2.9742,1.199-3.2279,3.2509h6.4557C313.128,97.7992,311.9521,96.6002,310.1307,96.6002"/>
		<path d="M325.0537,96.7616c-2.3517,0-3.5506,1.222-3.5506,3.6429v7.303c0,0.1947-0.1579,0.3526-0.3526,0.3526h-2.3392
			c-0.1947,0-0.3526-0.1579-0.3526-0.3526V94.6933c0-0.1947,0.1578-0.3526,0.3526-0.3526h2.224
			c0.1947,0,0.3525,0.1579,0.3525,0.3526v1.1691c0.8982-1.2681,2.1212-1.8906,3.688-1.8906c0.0637,0,0.1203,0,0.1798,0.0014
			c0.1826,0.0044,0.3284,0.1545,0.3284,0.3371v2.0114c0,0.2436-0.1969,0.4406-0.4406,0.4399
			C325.117,96.7616,325.0876,96.7616,325.0537,96.7616"/>
	</g>
	<g>
		<path d="M209.5139,126.2306v4.6814h7.3251c0.1947,0,0.3526,0.1579,0.3526,0.3526v2.223c0,0.1947-0.1579,0.3526-0.3526,0.3526
			h-7.3251v7.4644c0,0.1947-0.1579,0.3526-0.3526,0.3526h-2.5467c-0.1947,0-0.3526-0.1579-0.3526-0.3526v-18.0481h11.3157
			c0.1947,0,0.3526,0.1578,0.3526,0.3526v2.2691c0,0.1947-0.1579,0.3526-0.3526,0.3526H209.5139z"/>
		<path d="M226.2479,142.0264c-3.9647,0-6.8015-3.0444-6.8015-7.3328c0-4.0588,2.9281-7.1253,6.7794-7.1253
			c3.9195,0,6.7785,3.0665,6.7785,7.2166C233.0043,138.9589,230.1453,142.0264,226.2479,142.0264 M226.2258,130.358
			c-2.2835,0-3.7361,1.7523-3.7361,4.4969c0,2.6284,1.4986,4.3806,3.7361,4.3806c2.2595,0,3.735-1.7522,3.735-4.4508
			C229.9608,132.1103,228.4853,130.358,226.2258,130.358"/>
		<path d="M242.3288,130.358c-2.3517,0-3.5506,1.222-3.5506,3.6429v7.303c0,0.1947-0.1579,0.3526-0.3526,0.3526h-2.3392
			c-0.1947,0-0.3526-0.1579-0.3526-0.3526v-13.0142c0-0.1947,0.1579-0.3526,0.3526-0.3526h2.224
			c0.1947,0,0.3526,0.1579,0.3526,0.3526v1.1691c0.8982-1.2681,2.1212-1.8906,3.688-1.8906c0.0637,0,0.1203,0,0.1798,0.0014
			c0.1826,0.0044,0.3284,0.1545,0.3284,0.3371v2.0114c0,0.2436-0.1969,0.4406-0.4406,0.4399
			C242.3921,130.358,242.3627,130.358,242.3288,130.358"/>
		<path d="M253.8098,141.3041v-1.1691c-1.0837,1.3373-2.2826,1.8906-3.9426,1.8906c-1.7532,0-3.321-0.8761-3.9657-2.2365
			c-0.4842-0.9914-0.5995-1.8445-0.5995-4.128V128.29c0-0.1947,0.1579-0.3526,0.3526-0.3526h2.3383
			c0.1947,0,0.3526,0.1578,0.3526,0.3526v7.4413c0,2.6044,0.6225,3.5045,2.4209,3.5045c1.8224,0,2.9281-1.3373,2.9281-3.5045V128.29
			c0-0.1947,0.1579-0.3526,0.3526-0.3526h2.3392c0.1947,0,0.3526,0.1578,0.3526,0.3526v13.0141
			c0,0.1947-0.1579,0.3526-0.3526,0.3526h-2.2239C253.9676,141.6567,253.8098,141.4988,253.8098,141.3041z"/>
		<path d="M276.498,141.6567c-0.1947,0-0.3526-0.1579-0.3526-0.3526v-7.5566c0-1.5909-0.1844-3.3893-2.1673-3.3893
			c-1.7061,0-2.7216,1.3373-2.7216,3.5737v7.3721c0,0.1947-0.1578,0.3526-0.3526,0.3526h-2.3383
			c-0.1947,0-0.3526-0.1579-0.3526-0.3526v-7.5566c0-2.4209-0.5995-3.3893-2.1212-3.3893c-1.637,0-2.7437,1.3373-2.7437,3.3201
			v7.6258c0,0.1947-0.1579,0.3526-0.3526,0.3526h-2.3383c-0.1947,0-0.3526-0.1579-0.3526-0.3526V128.29
			c0-0.1947,0.1578-0.3526,0.3526-0.3526h2.223c0.1947,0,0.3526,0.1578,0.3526,0.3526v1.1691
			c0.9222-1.1989,2.0981-1.8906,3.6659-1.8906c1.5909,0,2.7206,0.6917,3.5506,2.1442c1.1307-1.4525,2.468-2.1442,4.2433-2.1442
			c1.7523,0,3.274,0.8531,3.9196,2.1903c0.438,0.8992,0.5764,1.7984,0.5764,3.7812v7.7641c0,0.1947-0.1578,0.3526-0.3525,0.3526
			H276.498z"/>
		<path d="M284.0238,141.6567c-0.6003,0-0.9075-0.7197-0.4939-1.1549c6.9078-7.2675,8.7429-9.7914,8.7429-11.9188
			c0-1.5909-1.1518-2.7206-2.7888-2.7206c-1.6186,0-3.0066,0.8806-4.1649,2.6244c-0.1479,0.2226-0.4814,0.1988-0.5901-0.0453
			l-1.1483-2.5791c1.4986-1.9376,3.5045-2.9752,5.9715-2.9752c3.5507,0,5.9725,2.2825,5.9725,5.6497
			c0,2.7437-1.1989,4.7034-6.2261,10.1457h6.9869v2.9742H284.0238z"/>
		<path d="M304.4981,142.0262c-2.1913,0-4.1049-1.1077-5.1886-3.0213c-0.8761-1.5217-1.3372-3.7812-1.3372-6.5479
			c0-6.18,2.3297-9.5692,6.595-9.5692c2.2595,0,4.1732,1.0836,5.2578,2.9973c0.8982,1.5909,1.3363,3.7591,1.3363,6.595
			C311.1613,138.6821,308.8327,142.0262,304.4981,142.0262 M304.5673,125.8619c-2.2144,0-3.3431,2.1903-3.3431,6.5249
			c0,4.5199,1.0826,6.6641,3.3892,6.6641c2.1903,0,3.297-2.2133,3.297-6.594C307.9104,128.0293,306.8037,125.8619,304.5673,125.8619
			"/>
		<path d="M316.5036,141.3041v-14.5425l-3.0512,2.1252c-0.1335,0.093-0.3182,0.0121-0.3404-0.1491l-0.3666-2.6687l4.1501-2.8129
			h2.5534c0.1947,0,0.3526,0.1579,0.3526,0.3526v17.6955c0,0.1947-0.1578,0.3526-0.3526,0.3526h-2.5928
			C316.6614,141.6567,316.5036,141.4988,316.5036,141.3041z"/>
		<path d="M329.3358,142.026c-3.7581,0-6.6411-2.5141-6.6411-5.8111c0-2.052,1.0606-3.8504,2.8359-4.8196
			c-1.1989-0.829-1.8445-2.2134-1.8445-3.6429c0-2.8359,2.3517-4.8649,5.6497-4.8649c3.3201,0,5.6718,2.0059,5.6718,4.8418
			c0,1.4986-0.6907,2.882-1.8675,3.6659c1.7763,0.9693,2.8599,2.7677,2.8599,4.7735C336,139.5119,333.1401,142.026,329.3358,142.026
			 M329.3358,133.1716c-1.9828,0-3.3893,1.2219-3.3893,2.9281c0,1.8214,1.6591,2.9512,3.3431,2.9512
			c1.9828,0,3.4354-1.245,3.4354-2.9512S331.3187,133.1716,329.3358,133.1716 M329.3358,125.5851
			c-1.4996,0-2.5371,0.9453-2.5371,2.2826c0,1.3834,1.0154,2.3056,2.491,2.3056c1.5678,0,2.5823-0.8992,2.5823-2.3056
			C331.872,126.5304,330.8345,125.5851,329.3358,125.5851"/>
	</g>
</g>
<g>
</g>
<g>
</g>
<g>
</g>
<g>
</g>
<g>
</g>
<g>
</g>
<g>
</g>
<g>
</g>
<g>
</g>
<g>
</g>
<g>
</g>
<g>
</g>
<g>
</g>
<g>
</g>
<g>
</g>
</svg>
