<?xml version="1.0" encoding="utf-8"?>
<!-- Generator: Adobe Illustrator 22.1.0, SVG Export Plug-In . SVG Version: 6.00 Build 0)  -->
<svg version="1.1" id="レイヤー_1" xmlns="http://www.w3.org/2000/svg" xmlns:xlink="http://www.w3.org/1999/xlink" x="0px"
	 y="0px" viewBox="0 0 327 170" enable-background="new 0 0 327 170" xml:space="preserve">
<g id="レイヤー_1_1_">
</g>
<g id="レイヤー_2_1_">
</g>
<g id="レイヤー_5">
</g>
<g id="レイヤー_4">
</g>
<g id="レイヤー_3">
</g>
<g id="レイヤー_7">
</g>
<g id="レイヤー_9">
	<g>
		<g>
			<g>
				<g>
					<path d="M75.7752,66.989l5.0086,28.4052c0.8357,0.5549,1.6777,1.1342,2.5261,1.7386l-5.3822-30.5234
						c-0.1048-0.5945-0.6714-0.9915-1.2662-0.8867C76.067,65.828,75.6704,66.3945,75.7752,66.989"/>
					<path d="M64.8803,70.1055l7.3856,20.2926c0.95,0.4833,1.9171,1.0074,2.8926,1.5541l-8.2238-22.5946
						c-0.2064-0.5673-0.8335-0.8597-1.4008-0.6533h-0.0004C64.9664,68.9108,64.6739,69.5382,64.8803,70.1055"/>
					<path d="M54.6926,75.0667l6.1453,10.6444c1.0205,0.3197,2.0679,0.6745,3.1419,1.0683l-7.3934-12.8061
						c-0.302-0.5226-0.9706-0.7018-1.4932-0.4001l-0.0004,0.0004C54.5697,73.8756,54.3906,74.5438,54.6926,75.0667"/>
					<path d="M45.6557,80.1812l-0.0004,0.0004c-0.4624,0.3881-0.523,1.0771-0.1346,1.5399l1.0336,1.2319
						c0.95,0.0651,1.9875,0.1622,3.1068,0.301l-2.4655-2.9382C46.8075,79.8536,46.1181,79.7934,45.6557,80.1812"/>
					<path d="M130.5201,80.1812l0.0003,0.0004c0.4628,0.3881,0.523,1.0771,0.1349,1.5399l-1.0336,1.2319
						c-0.9504,0.0651-1.9875,0.1622-3.1071,0.301l2.4659-2.9382C129.3686,79.8536,130.0576,79.7934,130.5201,80.1812"/>
					<g>
						<path d="M101.0495,92.0555c0.9716-0.5432,1.9355-1.0591,2.889-1.5456l7.4579-20.4895
							c0.2064-0.5676-0.086-1.1947-0.6536-1.4011h-0.0004c-0.5673-0.2064-1.1944,0.086-1.4008,0.6533L101.0495,92.0555z"/>
					</g>
					<g>
						<path d="M92.9476,97.1797c0.8452-0.5991,1.6865-1.1734,2.5243-1.7262l5.0263-28.5072
							c0.1048-0.5945-0.2921-1.1614-0.8867-1.2659c-0.5942-0.1052-1.1611,0.2918-1.2662,0.8863L92.9476,97.1797z"/>
					</g>
					<path d="M89.2317,99.956V65.8117c0-0.6034-0.4894-1.0927-1.0927-1.0927h-0.0007c-0.6037,0-1.0931,0.4894-1.0931,1.0927V99.932
						c0.369,0.29,0.7365,0.5722,1.108,0.8725C88.5133,100.513,88.872,100.2383,89.2317,99.956"/>
					<g>
						<path d="M112.1975,86.8441c1.0803-0.4097,2.1419-0.7882,3.1783-1.1317l6.2193-10.7725
							c0.302-0.5226,0.1229-1.1912-0.3998-1.4929l-0.0007-0.0004c-0.5226-0.3017-1.1912-0.1229-1.4932,0.3998L112.1975,86.8441z"/>
					</g>
				</g>
				<g>
					<path d="M87.8465,151.631c-6.2267-6.3294-16.8562-17.9811-32.3771-24.6625c-12.8185-5.5182-24.3813-7.3577-32.3615-7.9805
						l-0.0004-12.128c-0.0004-0.7259,0.6175-1.2995,1.3409-1.2393c7.9656,0.6607,19.2261,2.5374,31.665,7.8778
						c14.8439,6.3733,25.1653,15.0145,31.369,21.1517c0.3722,0.3686,0.9688,0.3686,1.3413,0"/>
					<path d="M88.0225,151.631c6.2267-6.3294,16.8562-17.9811,32.3771-24.6625c12.8185-5.5182,24.3813-7.3577,32.3615-7.9805
						l0.0004-12.128c0-0.7259-0.6175-1.2995-1.3409-1.2393c-7.9657,0.6607-19.2261,2.5374-31.665,7.8778
						c-14.8439,6.3733-25.1656,15.0145-31.369,21.1517c-0.3722,0.3686-0.9688,0.3686-1.3413,0"/>
				</g>
			</g>
			<g>
				<g>
					<path d="M174.5678,85.8736c-1.9518,0-3.7768-0.5068-5.4354-1.4808c-0.182-0.1069-0.2621-0.3293-0.1973-0.5301l0.7242-2.2441
						c0.0697-0.2158,0.3258-0.3093,0.5157-0.1853c1.3871,0.9048,2.8227,1.3652,4.1782,1.3652c2.1686,0,3.6471-1.0485,3.6471-2.5975
						c0-1.6682-1.3832-2.3831-3.4565-3.0504c-3.6461-1.1916-4.9568-2.7168-4.9568-5.363c0-3.3363,2.5737-5.6956,6.1961-5.6956
						c1.4655,0,2.8673,0.3513,4.2663,1.0923c0.1837,0.0973,0.2742,0.3117,0.2226,0.5132l-0.58,2.2674
						c-0.0575,0.2249-0.3159,0.3318-0.5147,0.2119c-1.1078-0.668-2.2128-1.0106-3.2988-1.0106
						c-1.7158,0-2.9312,1.0019-2.9312,2.4318c0,1.2859,0.5719,1.8111,2.8359,2.5975c2.7167,0.9294,3.4803,1.3584,4.3144,2.264
						c0.8817,0.9771,1.263,2.2401,1.263,3.5032C181.3606,83.4428,178.5724,85.8736,174.5678,85.8736"/>
					<g>
						<path d="M187.8374,74.1952v6.8643c0,1.5014,0.4051,1.9303,1.7873,1.9303c0.4391,0,0.944-0.0333,1.5845-0.1138
							c0.208-0.0261,0.3935,0.1354,0.3935,0.345v2.0559c0,0.2312-0.1737,0.4268-0.4035,0.452
							c-0.8356,0.0912-1.58,0.1446-2.2179,0.1446c-1.9541,0-3.1457-0.5005-3.7653-1.5967c-0.429-0.7387-0.5243-1.3345-0.5243-3.0503
							v-7.0312h-1.3276c-0.2013,0-0.3644-0.1632-0.3644-0.3644v-2.1547c0-0.2013,0.1631-0.3644,0.3644-0.3644h1.3276v-3.7355
							c0-0.2013,0.1631-0.3644,0.3644-0.3644h2.4169c0.2013,0,0.3644,0.1632,0.3644,0.3644v3.7355h3.5915
							c0.2013,0,0.3644,0.1632,0.3644,0.3644v2.1547c0,0.2013-0.1631,0.3644-0.3644,0.3644L187.8374,74.1952L187.8374,74.1952z"/>
					</g>
					<g>
						<path d="M203.7481,85.1276v-1.2084c-1.1201,1.3822-2.3593,1.9542-4.0751,1.9542c-1.8112,0-3.4326-0.9056-4.0989-2.3116
							c-0.5014-1.0247-0.6196-1.9065-0.6196-4.2667v-7.6189c0-0.2013,0.1632-0.3644,0.3644-0.3644h2.4169
							c0.2013,0,0.3644,0.1632,0.3644,0.3644v7.6914c0,2.6919,0.6434,3.6223,2.5022,3.6223c1.8827,0,3.0266-1.3822,3.0266-3.6223
							v-7.6914c0-0.2013,0.1631-0.3644,0.3644-0.3644h2.4169c0.2013,0,0.3644,0.1632,0.3644,0.3644v13.4516
							c0,0.2013-0.1632,0.3644-0.3644,0.3644h-2.2977C203.9113,85.492,203.7481,85.3289,203.7481,85.1276z"/>
					</g>
					<path d="M219.9545,85.1274V83.919c-1.2154,1.3584-2.5261,1.9552-4.2181,1.9552c-3.6461,0-6.2685-3.0991-6.2685-7.4601
						c0-4.3859,2.5986-7.484,6.2924-7.484c1.5728,0,2.9074,0.572,4.1228,1.7874v-6.7611c0-0.2013,0.1632-0.3644,0.3644-0.3644
						h2.4169c0.2013,0,0.3644,0.1632,0.3644,0.3644v19.1711c0,0.2013-0.1631,0.3644-0.3644,0.3644h-2.3454
						C220.1176,85.4918,219.9545,85.3287,219.9545,85.1274z M216.2369,73.8136c-2.1925,0-3.6223,1.7874-3.6223,4.5756
						c0,2.8131,1.4299,4.6004,3.6461,4.6004c2.2639,0,3.67-1.7159,3.67-4.5279C219.9306,75.5304,218.5723,73.8136,216.2369,73.8136"
						/>
					<path d="M229.009,79.4149c0.2383,2.5499,1.6205,3.67,4.4802,3.67c1.3004,0,2.3918-0.267,3.7667-0.9203
						c0.2311-0.1098,0.499,0.0571,0.499,0.3129v2.1803c0,0.1868-0.1147,0.3573-0.289,0.4246
						c-1.4501,0.5599-2.7215,0.7907-4.2866,0.7907c-4.5279,0-7.2923-2.8121-7.2923-7.3648c0-4.4564,2.7167-7.6021,6.5773-7.6021
						c2.7416,0,4.9578,1.5728,5.8634,4.1704c0.3579,1.0107,0.5298,2.1709,0.565,3.7095c0.0079,0.3441-0.2705,0.6288-0.6147,0.6288
						H229.009z M232.4168,73.6468c-1.835,0-3.0742,1.2393-3.3363,3.3602h6.6727C235.5159,74.8861,234.2995,73.6468,232.4168,73.6468
						"/>
					<g>
						<path d="M250.6843,85.492c-0.2013,0-0.3644-0.1632-0.3644-0.3644v-7.6914c0-1.6443-0.1668-2.4069-0.6196-2.9074
							c-0.4051-0.4528-1.0972-0.715-1.8836-0.715c-0.9999,0-1.9541,0.5243-2.5022,1.3584
							c-0.4051,0.6196-0.5243,1.1677-0.5243,2.2639v7.6914c0,0.2013-0.1632,0.3644-0.3644,0.3644h-2.4169
							c-0.2013,0-0.3644-0.1632-0.3644-0.3644V71.6761c0-0.2013,0.1631-0.3644,0.3644-0.3644h2.2987
							c0.2013,0,0.3644,0.1632,0.3644,0.3644v1.2084c1.1191-1.3822,2.3354-1.9542,4.0513-1.9542
							c1.835,0,3.4078,0.8817,4.1227,2.3116c0.5005,1.0009,0.6196,1.8826,0.6196,4.2658v7.6199
							c0,0.2013-0.1632,0.3644-0.3644,0.3644C253.1012,85.492,250.6843,85.492,250.6843,85.492z"/>
					</g>
					<g>
						<path d="M260.8326,74.1952v6.8643c0,1.5014,0.4051,1.9303,1.7873,1.9303c0.4391,0,0.944-0.0333,1.5844-0.1138
							c0.208-0.0261,0.3935,0.1354,0.3935,0.345v2.0559c0,0.2312-0.1736,0.4268-0.4035,0.4519
							c-0.8351,0.0912-1.5802,0.1445-2.2179,0.1445c-1.9541,0-3.1457-0.5005-3.7653-1.5967
							c-0.429-0.7387-0.5243-1.3345-0.5243-3.0503v-7.0312h-1.3276c-0.2013,0-0.3644-0.1632-0.3644-0.3644V71.676
							c0-0.2013,0.1632-0.3644,0.3644-0.3644h1.3276v-3.7355c0-0.2013,0.1631-0.3644,0.3644-0.3644h2.4169
							c0.2013,0,0.3644,0.1632,0.3644,0.3644v3.7355h3.5915c0.2013,0,0.3644,0.1632,0.3644,0.3644v2.1547
							c0,0.2013-0.1632,0.3644-0.3644,0.3644h-3.5914V74.1952z"/>
					</g>
				</g>
				<g>
					<g>
						<path d="M172.2731,100.6777v4.8387h7.5723c0.2013,0,0.3644,0.1632,0.3644,0.3644v2.2977c0,0.2013-0.1631,0.3644-0.3644,0.3644
							h-7.5723v7.7153c0,0.2013-0.1631,0.3644-0.3644,0.3644h-2.6313c-0.2013,0-0.3644-0.1632-0.3644-0.3644V97.6036h11.6951
							c0.2012,0,0.3644,0.1632,0.3644,0.3644v2.3453c0,0.2013-0.1632,0.3644-0.3644,0.3644
							C180.6081,100.6777,172.2731,100.6777,172.2731,100.6777z"/>
					</g>
					<path d="M189.8261,104.9439c-2.4308,0-3.671,1.2631-3.671,3.7654v7.5485c0,0.2013-0.1631,0.3644-0.3644,0.3644h-2.4169
						c-0.2013,0-0.3644-0.1632-0.3644-0.3644v-13.4516c0-0.2013,0.1632-0.3644,0.3644-0.3644h2.2987
						c0.2013,0,0.3644,0.1632,0.3644,0.3644v1.2084c0.9294-1.3107,2.1925-1.9542,3.813-1.9542c0.0656,0,0.1239,0,0.1849,0.0015
						c0.1887,0.0045,0.3394,0.1597,0.3394,0.3484v2.079c0,0.2518-0.2035,0.4554-0.4554,0.4547
						C189.8916,104.9439,189.8612,104.9439,189.8261,104.9439"/>
					<path d="M194.7663,110.5452c0.2383,2.5499,1.6205,3.67,4.4802,3.67c1.3006,0,2.3913-0.267,3.7678-0.9206
						c0.231-0.1097,0.4989,0.0572,0.4989,0.313v2.1806c0,0.1869-0.1147,0.3573-0.289,0.4246
						c-1.4502,0.5599-2.7224,0.7907-4.2866,0.7907c-4.5289,0-7.2933-2.8121-7.2933-7.3648c0-4.4564,2.7167-7.6021,6.5773-7.6021
						c2.7416,0,4.9578,1.5728,5.8634,4.1704c0.3571,1.0107,0.5289,2.1709,0.5641,3.7095c0.0079,0.3441-0.2704,0.6288-0.6147,0.6288
						h-9.2681V110.5452z M198.1741,104.7771c-1.835,0-3.0742,1.2393-3.3363,3.3602h6.6727
						C201.2721,106.0163,200.0568,104.7771,198.1741,104.7771"/>
					<path d="M210.1859,110.5452c0.2383,2.5499,1.6205,3.67,4.4802,3.67c1.3014,0,2.3914-0.267,3.7678-0.9205
						c0.2311-0.1097,0.4989,0.0572,0.4989,0.3129v2.1806c0,0.1868-0.1147,0.3573-0.289,0.4246
						c-1.4502,0.5599-2.7224,0.7907-4.2866,0.7907c-4.5289,0-7.2933-2.8121-7.2933-7.3648c0-4.4564,2.7167-7.6021,6.5773-7.6021
						c2.7416,0,4.9579,1.5728,5.8634,4.1704c0.3571,1.0107,0.5289,2.1709,0.5641,3.7095c0.0079,0.3441-0.2705,0.6288-0.6147,0.6288
						h-9.2681V110.5452z M213.5938,104.7771c-1.835,0-3.0742,1.2393-3.3363,3.3602h6.6727
						C216.6918,106.0163,215.4764,104.7771,213.5938,104.7771"/>
					<path d="M230.122,117.0044c-1.5729,0-2.9084-0.573-4.1228-1.7883v7.3817c0,0.2013-0.1631,0.3644-0.3644,0.3644h-2.4179
						c-0.2013,0-0.3644-0.1632-0.3644-0.3644v-19.7917c0-0.2013,0.1631-0.3644,0.3644-0.3644h2.3454
						c0.2012,0,0.3644,0.1632,0.3644,0.3644v1.2084c1.1677-1.2869,2.4784-1.9542,4.2181-1.9542c3.671,0,6.2686,3.098,6.2686,7.4591
						C236.4134,113.9053,233.8158,117.0044,230.122,117.0044 M229.6216,104.9439c-2.2888,0-3.6948,1.7397-3.6948,4.5289
						c0,2.9312,1.3832,4.647,3.6948,4.647c2.2401,0,3.6461-1.7873,3.6461-4.6004
						C233.2677,106.7312,231.8369,104.9439,229.6216,104.9439"/>
					<g>
						<path d="M247.7423,116.3098c-0.1138-0.3264-0.1591-0.6725-0.1771-1.1419c-1.2154,1.2154-2.7177,1.836-4.4802,1.836
							c-2.8359,0-4.7424-1.7397-4.7424-4.3383c0-1.835,1.0237-3.3602,2.6929-4.0989c0.8579-0.3813,2.0495-0.6196,4.0274-0.8817
							c1.9303-0.2383,2.2401-0.429,2.2401-1.1677c0-1.0009-1.0962-1.6443-2.8121-1.6443c-1.4377,0-2.8175,0.3865-4.2263,1.1768
							c-0.2201,0.1235-0.4945-0.0208-0.5165-0.2722l-0.1885-2.151c-0.0161-0.1832,0.0791-0.3612,0.2428-0.445
							c1.4867-0.7612,2.9967-1.1206,4.5922-1.1206c2.1696,0,4.0056,0.7139,4.9817,1.9065c0.7388,0.9294,1.0247,1.9065,1.0247,3.7653
							v5.649c0,1.1623,0.114,2.0478,0.356,2.791c0.0725,0.2226-0.0987,0.45-0.3328,0.45h-2.2492
							C247.9786,116.6226,247.8071,116.4954,247.7423,116.3098z M247.3508,109.6391c-0.6196,0.286-1.0962,0.4051-2.6452,0.5958
							c-1.3346,0.1668-1.9542,0.3098-2.4556,0.6196c-0.5719,0.3575-0.9284,0.9532-0.9284,1.6443
							c0,1.1439,0.7388,1.8122,1.978,1.8122c1.6443,0,3.098-0.8589,4.0513-2.3841L247.3508,109.6391L247.3508,109.6391z"/>
					</g>
					<path d="M261.0451,117.0044c-1.5728,0-2.9084-0.573-4.1228-1.7883v7.3817c0,0.2013-0.1631,0.3644-0.3644,0.3644H254.14
						c-0.2012,0-0.3644-0.1632-0.3644-0.3644v-19.7917c0-0.2013,0.1632-0.3644,0.3644-0.3644h2.3454
						c0.2013,0,0.3644,0.1632,0.3644,0.3644v1.2084c1.1677-1.2869,2.4784-1.9542,4.2181-1.9542c3.671,0,6.2686,3.098,6.2686,7.4591
						C267.3365,113.9053,264.739,117.0044,261.0451,117.0044 M260.5447,104.9439c-2.2888,0-3.6948,1.7397-3.6948,4.5289
						c0,2.9312,1.3832,4.647,3.6948,4.647c2.2401,0,3.6461-1.7873,3.6461-4.6004
						C264.1908,106.7312,262.76,104.9439,260.5447,104.9439"/>
					<path d="M272.8649,110.5452c0.2383,2.5499,1.6205,3.67,4.4802,3.67c1.3014,0,2.3914-0.267,3.7678-0.9205
						c0.231-0.1097,0.499,0.0572,0.499,0.3129v2.1806c0,0.1868-0.1147,0.3573-0.289,0.4246
						c-1.4502,0.5599-2.7224,0.7907-4.2866,0.7907c-4.5289,0-7.2933-2.8121-7.2933-7.3648c0-4.4564,2.7167-7.6021,6.5773-7.6021
						c2.7416,0,4.9579,1.5728,5.8634,4.1704c0.3571,1.0107,0.5289,2.1709,0.5641,3.7095c0.0079,0.3441-0.2704,0.6288-0.6147,0.6288
						h-9.2682V110.5452z M276.2728,104.7771c-1.835,0-3.0742,1.2393-3.3363,3.3602h6.6727
						C279.3708,106.0163,278.1554,104.7771,276.2728,104.7771"/>
					<path d="M291.6974,104.9439c-2.4308,0-3.67,1.2631-3.67,3.7654v7.5485c0,0.2013-0.1632,0.3644-0.3644,0.3644h-2.4179
						c-0.2013,0-0.3644-0.1632-0.3644-0.3644v-13.4516c0-0.2013,0.1631-0.3644,0.3644-0.3644h2.2987
						c0.2013,0,0.3644,0.1632,0.3644,0.3644v1.2084c0.9284-1.3107,2.1925-1.9542,3.812-1.9542c0.0658,0,0.1244,0,0.1858,0.0015
						c0.1887,0.0045,0.3394,0.1597,0.3394,0.3484v2.079c0,0.2518-0.2035,0.4554-0.4554,0.4547
						C291.7628,104.9439,291.7324,104.9439,291.6974,104.9439"/>
				</g>
				<g>
					<g>
						<path d="M172.2741,135.4034v4.8387h7.5713c0.2013,0,0.3644,0.1631,0.3644,0.3644v2.2977c0,0.2013-0.1631,0.3644-0.3644,0.3644
							h-7.5713v7.7153c0,0.2013-0.1632,0.3644-0.3644,0.3644h-2.6323c-0.2013,0-0.3644-0.1631-0.3644-0.3644v-18.6547h11.696
							c0.2013,0,0.3644,0.1631,0.3644,0.3644v2.3453c0,0.2013-0.1632,0.3644-0.3644,0.3644h-8.3349V135.4034z"/>
					</g>
					<path d="M189.5705,151.7301c-4.0979,0-7.0301-3.1467-7.0301-7.5793c0-4.1952,3.0265-7.3648,7.0073-7.3648
						c4.0513,0,7.0063,3.1695,7.0063,7.4591C196.554,148.5595,193.599,151.7301,189.5705,151.7301 M189.5477,139.6695
						c-2.3603,0-3.8616,1.8112-3.8616,4.6481c0,2.7168,1.549,4.5279,3.8616,4.5279c2.3354,0,3.8606-1.8111,3.8606-4.6004
						C193.4083,141.4807,191.8831,139.6695,189.5477,139.6695"/>
					<path d="M206.192,139.6695c-2.4308,0-3.67,1.2631-3.67,3.7654v7.5485c0,0.2013-0.1632,0.3644-0.3644,0.3644h-2.4179
						c-0.2013,0-0.3644-0.1631-0.3644-0.3644v-13.4516c0-0.2013,0.1631-0.3644,0.3644-0.3644h2.2987
						c0.2013,0,0.3644,0.1631,0.3644,0.3644v1.2084c0.9284-1.3107,2.1925-1.9542,3.812-1.9542c0.0658,0,0.1244,0,0.1858,0.0015
						c0.1887,0.0045,0.3394,0.1597,0.3394,0.3484v2.079c0,0.2518-0.2035,0.4554-0.4554,0.4547
						C206.2574,139.6695,206.227,139.6695,206.192,139.6695"/>
					<g>
						<path d="M218.0588,150.9835v-1.2084c-1.1201,1.3822-2.3593,1.9542-4.0751,1.9542c-1.8122,0-3.4326-0.9056-4.099-2.3116
							c-0.5004-1.0247-0.6196-1.9065-0.6196-4.2667v-7.619c0-0.2013,0.1632-0.3644,0.3644-0.3644h2.4169
							c0.2013,0,0.3644,0.1631,0.3644,0.3644v7.6914c0,2.6919,0.6434,3.6223,2.5022,3.6223c1.8837,0,3.0266-1.3822,3.0266-3.6223
							v-7.6914c0-0.2013,0.1631-0.3644,0.3644-0.3644h2.4179c0.2013,0,0.3644,0.1631,0.3644,0.3644v13.4516
							c0,0.2013-0.1631,0.3644-0.3644,0.3644h-2.2987C218.222,151.3479,218.0588,151.1848,218.0588,150.9835z"/>
					</g>
					<g>
						<path d="M241.5097,151.3479c-0.2012,0-0.3644-0.1631-0.3644-0.3644v-7.8106c0-1.6443-0.1907-3.5032-2.2401-3.5032
							c-1.7635,0-2.813,1.3822-2.813,3.6938v7.6199c0,0.2013-0.1632,0.3644-0.3644,0.3644h-2.4169
							c-0.2013,0-0.3644-0.1631-0.3644-0.3644v-7.8106c0-2.5023-0.6196-3.5032-2.1925-3.5032c-1.692,0-2.8359,1.3822-2.8359,3.4317
							v7.8821c0,0.2013-0.1631,0.3644-0.3644,0.3644h-2.4169c-0.2013,0-0.3644-0.1631-0.3644-0.3644V137.532
							c0-0.2013,0.1632-0.3644,0.3644-0.3644h2.2977c0.2013,0,0.3644,0.1631,0.3644,0.3644v1.2084
							c0.9532-1.2392,2.1686-1.9542,3.7891-1.9542c1.6443,0,2.812,0.715,3.67,2.2163c1.1687-1.5013,2.5509-2.2163,4.3859-2.2163
							c1.8112,0,3.384,0.8817,4.0513,2.264c0.4528,0.9294,0.5958,1.8588,0.5958,3.9082v8.0251c0,0.2013-0.1631,0.3644-0.3644,0.3644
							H241.5097z"/>
					</g>
					<g>
						<path d="M249.2885,151.3479c-0.6205,0-0.938-0.7439-0.5105-1.1937c7.14-7.5118,9.0368-10.1205,9.0368-12.3194
							c0-1.6443-1.1906-2.8121-2.8826-2.8121c-1.673,0-3.1077,0.9102-4.3049,2.7127c-0.1528,0.2301-0.4975,0.2055-0.6099-0.0469
							l-1.187-2.6658c1.549-2.0028,3.6223-3.0752,6.1722-3.0752c3.67,0,6.1732,2.3592,6.1732,5.8396
							c0,2.8359-1.2393,4.8615-6.4354,10.4867h7.2218v3.0741H249.2885z"/>
					</g>
					<path d="M270.4509,151.7299c-2.2649,0-4.2429-1.1449-5.363-3.1229c-0.9055-1.5728-1.3822-3.9082-1.3822-6.768
						c0-6.3877,2.4079-9.8909,6.8167-9.8909c2.3354,0,4.3134,1.12,5.4344,3.098c0.9284,1.6443,1.3812,3.8854,1.3812,6.8167
						C277.3381,148.2734,274.9312,151.7299,270.4509,151.7299 M270.5225,135.0223c-2.2888,0-3.4555,2.264-3.4555,6.7442
						c0,4.6718,1.119,6.8881,3.5031,6.8881c2.2639,0,3.4078-2.2877,3.4078-6.8156
						C273.9779,137.2625,272.834,135.0223,270.5225,135.0223"/>
					<g>
						<path d="M282.8599,150.9835v-15.0313l-3.1537,2.1967c-0.138,0.0962-0.3289,0.0125-0.3518-0.1542l-0.3789-2.7585l4.2896-2.9074
							h2.6393c0.2013,0,0.3644,0.1631,0.3644,0.3644v18.2903c0,0.2013-0.1631,0.3644-0.3644,0.3644h-2.68
							C283.023,151.3479,282.8599,151.1848,282.8599,150.9835z"/>
					</g>
					<path d="M296.1235,151.7297c-3.8845,0-6.8643-2.5986-6.8643-6.0064c0-2.121,1.0962-3.9798,2.9312-4.9816
						c-1.2392-0.8569-1.9065-2.2878-1.9065-3.7653c0-2.9312,2.4308-5.0284,5.8396-5.0284c3.4317,0,5.8624,2.0733,5.8624,5.0045
						c0,1.549-0.7139,2.9789-1.9303,3.7891c1.836,1.0019,2.956,2.8607,2.956,4.934
						C303.0116,149.1311,300.0556,151.7297,296.1235,151.7297 M296.1235,142.5776c-2.0495,0-3.5032,1.263-3.5032,3.0265
						c0,1.8826,1.7148,3.0504,3.4555,3.0504c2.0494,0,3.5508-1.2869,3.5508-3.0504S298.1729,142.5776,296.1235,142.5776
						 M296.1235,134.7362c-1.55,0-2.6224,0.9771-2.6224,2.3593c0,1.4299,1.0496,2.3831,2.5748,2.3831
						c1.6205,0,2.669-0.9294,2.669-2.3831C298.7449,135.7133,297.6725,134.7362,296.1235,134.7362"/>
				</g>
			</g>
		</g>
		<g>
			<path d="M23.1924,26.3486c-1.2041,0-2.0947,0.0488-2.8164,0.1445v-2.5518c0.8184,0.0957,1.7334,0.1445,2.793,0.1445h6.3076
				V23.917c0-0.457-0.0234-0.8428-0.0723-1.252h1.0117c0.9873-0.5059,1.7334-1.0352,2.7207-1.8779h-6.3564
				c-0.9629,0-1.6611,0.0234-2.3359,0.0957v-2.2871c0.6748,0.0723,1.373,0.0967,2.3604,0.0967h7.6318
				c0.8916,0,1.373-0.0244,1.7578-0.0967l1.2764,1.3965c-0.3369,0.2891-0.3369,0.2891-0.8428,0.6982
				c-1.6377,1.3965-2.8174,2.2871-4.5986,3.3711v0.0244h5.9951c1.1074,0,2.167-0.0488,2.8408-0.1445v2.5518
				c-0.6494-0.0957-1.6367-0.1445-2.8652-0.1445h-5.9707v4.0449c0,1.1797-0.2412,1.6855-0.8906,1.9268
				c-0.5781,0.2168-1.3008,0.2891-2.6729,0.2891c-0.2891,0-1.0352-0.0244-2.2871-0.0723c-0.2412-1.252-0.3613-1.6377-0.7705-2.4561
				c1.1309,0.1445,2.167,0.2168,2.8652,0.2168c1.0352,0,1.2031-0.0723,1.2031-0.5303v-3.4189L23.1924,26.3486L23.1924,26.3486z
				 M24.3965,14.9355c-0.5537-1.0352-0.8428-1.4922-1.7334-2.5996l2.3115-0.6982c0.8428,1.0107,1.2998,1.7334,2.1182,3.2979h2.4326
				c-0.4092-1.1797-0.7471-1.8779-1.3965-2.9131l2.4072-0.6738c0.9395,1.7578,1.084,2.0947,1.5889,3.5869h1.9512
				c0.6982-0.8906,1.4922-2.3828,1.9014-3.4668l2.5049,0.6982c-0.5303,0.9629-1.2285,2.0703-1.7578,2.7686h1.0596
				c1.5889,0,1.998-0.0234,2.8408-0.0957c-0.0723,0.6016-0.0967,1.0596-0.0967,1.9258v2.1436c0,0.626,0.0488,1.2031,0.1211,1.7568
				h-2.5283v-3.5869H23.0723v3.5869H20.544c0.0967-0.5293,0.1201-1.0586,0.1201-1.7812v-2.1191
				c0-0.8184-0.0234-1.3721-0.0957-1.9258c1.0596,0.0957,1.1797,0.0957,2.7451,0.0957h1.083V14.9355z"/>
			<path d="M48.9561,18.2588c-0.915,1.9023-1.8535,3.3467-3.1543,4.8398c-0.5781-0.8672-1.1318-1.4453-1.8779-1.9502
				c1.7334-1.7822,3.1299-4.1895,3.9004-6.7666c0.3135-0.9873,0.4092-1.4443,0.5059-2.1426l2.6484,0.6504
				c-0.0479,0.168-0.0479,0.168-0.2168,0.6016c-0.0479,0.1445-0.0723,0.1689-0.2402,0.7705
				c-0.0967,0.3135-0.1934,0.626-0.6025,1.7334h3.7568v-1.7578c0-1.2275-0.0488-1.9258-0.1445-2.793h2.9375
				c-0.0967,0.7227-0.1445,1.5654-0.1445,2.7695v1.7812h4.8398c1.1797,0,2.167-0.0479,3.1055-0.1445v2.5527
				c-0.9873-0.0967-1.9746-0.1445-3.0576-0.1445h-4.8877v4.2373h3.9971c1.1797,0,2.1182-0.0479,2.8652-0.1445v2.5527
				c-0.8193-0.0967-1.7822-0.1445-2.8418-0.1445h-4.0205v4.9121h5.5615c1.3008,0,2.3115-0.0488,3.2021-0.1689v2.6484
				c-1.083-0.1201-1.8779-0.168-3.1299-0.168H47.8008c-1.2285,0-2.1914,0.0479-3.2754,0.168v-2.6484
				c0.9639,0.1201,1.999,0.1689,3.2031,0.1689h5.9473v-4.9121h-3.5635c-1.0596,0-2.0225,0.0479-2.793,0.1445V22.376
				c0.7705,0.0967,1.4922,0.1201,2.7686,0.1201h3.5879v-4.2373H48.9561z"/>
			<path d="M79.2461,16.7422c-4.3096,0-7.3438,0.1445-8.1143,0.3604c-0.0234,0.0244-0.0479,0.0244-0.0723,0.0244
				c-0.457,0-0.6016-0.7949-0.6738-3.2744c1.1797,0.1924,2.7207,0.2402,6.2842,0.2402c3.2266,0,7.0068-0.0713,7.6084-0.1436
				c0.4336-0.0488,0.5781-0.0723,1.0117-0.2412c0.1201-0.0479,0.168-0.0479,0.2646-0.0479c0.4092,0,0.915,0.3848,1.6855,1.2998
				c0.457,0.5781,0.5537,0.7227,0.5537,0.9873c0,0.1689-0.0723,0.3135-0.2412,0.5293c-0.2402,0.2891-0.2646,0.3613-0.7939,2.0469
				c-1.3486,4.2383-4.0215,8.042-7.6328,10.835c-1.4443,1.1074-2.8174,1.9502-3.1787,1.9502c-0.2646,0-0.3125-0.0234-0.8662-0.5771
				c-0.6504-0.6504-1.1562-1.0117-1.8057-1.373c3.5391-1.7578,5.4658-3.25,7.3193-5.5859c1.6611-2.1191,2.6963-4.3818,3.251-7.0791
				C81.9668,16.7178,81.9668,16.7178,79.2461,16.7422z"/>
			<path d="M99.6162,19.9678c0,0.5547,0.0244,1.6621,0.0488,2.3359c0,0.2412,0.0234,0.4814,0.0234,0.5781
				c0,0.4814-0.3369,0.5781-2.2148,0.5781c-0.7227,0-0.8672-0.0967-0.8672-0.5059c0-0.0967,0-0.3135,0-0.4814
				c0.0967-1.8779,0.1445-2.9141,0.1445-4.623c0-2.793-0.0723-3.877-0.2646-5.1289c1.2285,0.0244,2.3594,0.0967,2.9131,0.2168
				c0.3379,0.0723,0.5303,0.2412,0.5303,0.5293c0,0.1211-0.0244,0.1934-0.0723,0.3379c-0.1924,0.4814-0.2412,0.9385-0.2412,2.0947
				L99.6162,19.9678L99.6162,19.9678z M108.9824,16.8379c0,3.4434-0.2168,5.6826-0.6738,7.3682
				c-0.8672,3.0576-2.793,5.5137-5.6338,7.0791c-0.6025,0.3369-1.0596,0.5293-1.2285,0.5293c-0.168,0-0.2891-0.0723-0.457-0.2646
				c-0.5537-0.6982-0.9873-1.084-1.8301-1.6377c1.541-0.5771,2.8408-1.3965,3.9004-2.4316
				c1.2275-1.2041,2.0225-2.6484,2.4561-4.3818c0.3125-1.373,0.5293-3.9727,0.5293-6.7422c0-1.9502-0.0723-2.9131-0.2402-3.8037
				c1.4443,0.0234,2.3115,0.1201,3.0576,0.2646c0.3135,0.0723,0.458,0.1924,0.458,0.4336c0,0.1201-0.0244,0.2158-0.0967,0.4326
				c-0.1924,0.5303-0.2412,1.0117-0.2412,2.1436L108.9824,16.8379L108.9824,16.8379z"/>
			<path d="M126.0303,20.6426c4.4062,0,6.9346-0.0479,9.3662-0.2168c0.0723,0,0.2168,0,0.3125,0
				c0.7227,0,0.7227,0.0244,0.7227,1.9502c0,0.9873-0.0723,1.1562-0.4814,1.1562c0,0-0.0723,0-0.0967,0
				c-1.5889-0.0723-2.4795-0.0723-9.4385-0.0723c-2.5518,0-3.8281,0.0234-6.043,0.0957c-0.1689,0-0.3613,0-0.6982,0
				c-0.7705,0-0.8906,0.0244-1.3486,0.0967c-0.1201,0-0.2168,0.0234-0.2646,0.0234c-0.2646,0-0.4336-0.1201-0.4814-0.3369
				c-0.1445-0.6016-0.2412-1.8301-0.2412-2.9375C119.2881,20.5947,120.998,20.6426,126.0303,20.6426z"/>
			<path d="M145.1484,18.9092c1.2041-1.373,1.3965-1.5898,1.8535-1.8789c0.5059-0.3125,0.8916-0.4326,1.5176-0.4326
				c0.6982,0,1.1309,0.1445,1.6855,0.5293c0.4092,0.2646,0.4092,0.2646,1.9258,1.8057c1.5654,1.6133,3.7559,3.5879,5.5137,4.96
				c1.1797,0.9395,1.8779,1.4209,3.5156,2.4561c0.2402,0.1445,0.3369,0.2412,0.3369,0.4092c0,0.1689-0.1924,0.5781-0.6738,1.3965
				c-0.5537,0.9639-0.8428,1.3008-1.1318,1.3008c-0.1201,0-0.2412-0.0488-0.3857-0.1445c-3.0098-2.1426-5.875-4.6953-9.125-8.1387
				c-1.2041-1.2754-1.2764-1.3477-1.6855-1.3477c-0.2646,0-0.4336,0.0957-0.6982,0.3604c-0.2168,0.2412-1.7334,2.1914-2.5039,3.2031
				c-0.6025,0.7939-0.626,0.8428-1.1562,1.4443c-0.3613,0.3848-0.457,0.5059-0.5771,0.7227
				c-0.1689,0.2881-0.2891,0.3848-0.458,0.3848c-0.2646,0-0.7461-0.3613-1.3242-0.9873c-0.3848-0.4336-0.6016-0.7217-1.1553-1.5645
				C141.7529,22.6895,142.6445,21.7979,145.1484,18.9092z M159.3057,16.5977c0,1.4443-1.1309,2.5762-2.5762,2.5762
				c-1.4443,0-2.5762-1.1318-2.5762-2.5762c0-1.4453,1.1318-2.5762,2.5762-2.5762
				C158.1748,14.0215,159.3057,15.1523,159.3057,16.5977z M155.4531,16.5977c0,0.6982,0.5781,1.2754,1.2764,1.2754
				c0.6748,0,1.2764-0.5771,1.2764-1.2754c0-0.6983-0.5781-1.2764-1.2764-1.2764S155.4531,15.8994,155.4531,16.5977z"/>
			<path d="M174.1865,20.6426c4.4062,0,6.9346-0.0479,9.3662-0.2168c0.0723,0,0.2168,0,0.3125,0
				c0.7227,0,0.7227,0.0244,0.7227,1.9502c0,0.9873-0.0723,1.1562-0.4814,1.1562c0,0-0.0723,0-0.0967,0
				c-1.5889-0.0723-2.4795-0.0723-9.4385-0.0723c-2.5518,0-3.8281,0.0234-6.043,0.0957c-0.1689,0-0.3613,0-0.6982,0
				c-0.7705,0-0.8906,0.0244-1.3486,0.0967c-0.1201,0-0.2168,0.0234-0.2646,0.0234c-0.2646,0-0.4336-0.1201-0.4814-0.3369
				c-0.1445-0.6016-0.2412-1.8301-0.2412-2.9375C167.4443,20.5947,169.1543,20.6426,174.1865,20.6426z"/>
			<path d="M197.0605,16.959c0,0.0957-0.0479,0.2158-0.168,0.4326c-0.2656,0.4336-0.3613,0.7949-0.6748,2.167
				c-0.7705,3.3955-2.0225,6.333-3.6592,8.5723c-0.6982,0.9629-1.2041,1.4688-1.4932,1.4688c-0.0967,0-0.1924-0.0488-0.3613-0.1445
				c-0.7949-0.4336-1.4688-0.7227-2.4082-0.9395c2.2158-1.9258,3.9014-5.0078,4.792-8.7158c0.2891-1.2764,0.457-2.4805,0.457-3.5635
				c0-0.0479,0-0.2168,0-0.4092C195.6396,16.0439,197.0605,16.501,197.0605,16.959z M206.0898,28.9971
				c-1.252-4.4062-3.0576-8.499-5.0322-11.4365c-0.2891-0.4092-0.3135-0.4814-0.3135-0.6016c0-0.1934,0.2168-0.3613,0.915-0.7705
				c0.7227-0.458,1.1084-0.627,1.3242-0.627c0.2656,0,0.3379,0.0967,1.2529,1.5176c1.083,1.6855,2.1426,3.8281,3.3945,6.9346
				c0.8428,2.0703,1.3486,3.6357,1.3486,4.0684c0,0.2891-0.1211,0.3857-0.7227,0.6748c-0.5781,0.2891-1.541,0.626-1.7578,0.626
				C206.3066,29.3828,206.1621,29.2383,206.0898,28.9971z M209.6777,14.3096c0,1.4453-1.1318,2.5771-2.5762,2.5771
				c-1.4453,0-2.5771-1.1318-2.5771-2.5771c0-1.4443,1.1318-2.5762,2.5771-2.5762
				C208.5459,11.7334,209.6777,12.8652,209.6777,14.3096z M205.8252,14.3096c0,0.6982,0.5781,1.2764,1.2764,1.2764
				c0.6738,0,1.2754-0.5781,1.2754-1.2764s-0.5771-1.2754-1.2754-1.2754S205.8252,13.6113,205.8252,14.3096z"/>
			<path d="M222.3428,20.6426c4.4062,0,6.9346-0.0479,9.3662-0.2168c0.0723,0,0.2168,0,0.3125,0
				c0.7227,0,0.7227,0.0244,0.7227,1.9502c0,0.9873-0.0723,1.1562-0.4814,1.1562c0,0-0.0723,0-0.0967,0
				c-1.5889-0.0723-2.4795-0.0723-9.4385-0.0723c-2.5518,0-3.8281,0.0234-6.043,0.0957c-0.1689,0-0.3613,0-0.6982,0
				c-0.7705,0-0.8906,0.0244-1.3486,0.0967c-0.1201,0-0.2168,0.0234-0.2646,0.0234c-0.2646,0-0.4336-0.1201-0.4814-0.3369
				c-0.1445-0.6016-0.2412-1.8301-0.2412-2.9375C215.6006,20.5947,217.3105,20.6426,222.3428,20.6426z"/>
			<path d="M246.1318,26.8789c-1.1553,1.998-2.7451,3.1055-4.3818,3.1055c-2.5039,0-4.2861-2.4561-4.2861-5.875
				c0-3.8037,1.9258-7.0791,5.2246-8.8125c1.6133-0.8662,3.3467-1.252,5.6348-1.252c5.0322,0,8.7637,3.5635,8.7637,8.3311
				c0,4.2139-2.0703,7.2471-6.0674,8.957c-0.7949,0.3369-1.4209,0.5293-1.7334,0.5293c-0.2891,0-0.4092-0.0957-0.7227-0.5537
				c-0.4092-0.626-0.8662-1.083-1.5166-1.5166c4.96-1.2764,7.1992-3.6113,7.1992-7.5127c0-1.998-0.8428-3.6836-2.3359-4.7432
				c-0.8428-0.5771-1.5166-0.8184-2.8408-1.0352C248.3955,21.5811,247.6006,24.3506,246.1318,26.8789z M242.665,18.3555
				c-1.6133,1.4199-2.5283,3.4424-2.5283,5.7061c0,1.8535,0.6016,2.9375,1.6133,2.9375c1.2031,0,2.4316-1.6611,3.3467-4.5264
				c0.5781-1.8066,0.8662-3.1787,1.2275-5.8516C244.6152,16.9824,243.7725,17.3916,242.665,18.3555z"/>
			<path d="M264.0703,17.416c0.8184,0.6982,1.1318,0.9629,1.6133,1.4688c0.4092-0.3613,0.5781-0.5059,1.1074-0.9873
				c-0.8428-0.8672-1.084-1.083-1.6855-1.4688l1.3486-1.1797c0.8428,0.5781,1.1318,0.7949,1.6133,1.2998
				c0.5537-0.6982,0.7939-1.0586,1.3477-2.0225h-3.25c-1.3008,1.6377-2.2637,2.4805-4.3584,3.877
				c-0.6016-1.0117-0.8184-1.3242-1.3477-1.8545c1.5166-0.9385,2.4316-1.6611,3.3945-2.7686
				c0.7705-0.8906,1.1318-1.4932,1.5889-2.7451l2.7451,0.3857c-0.1689,0.2646-0.2168,0.3613-0.3369,0.626
				c-0.1445,0.2402-0.1689,0.2891-0.2891,0.5059h3.082c-0.0723-0.1445-0.0967-0.1934-0.1689-0.3379
				c-0.0479-0.1201-0.0479-0.1445-0.1445-0.2891l2.1914-0.457c0.8184,2.3359,1.7334,3.877,3.3945,5.6582
				c0.8672-0.8184,1.4453-1.4932,2.0469-2.4072h-2.2393c-0.6016,0-0.9873,0.0234-1.4443,0.0957v-2.4072
				c0.6982,0.1201,1.1797,0.1445,1.998,0.1445h2.2158c0.7939,0,1.2275-0.0244,1.709-0.0967l1.2041,1.5654
				c-0.2412,0.2646-0.3369,0.3848-0.8184,1.0352c-0.8916,1.252-1.8789,2.3838-3.0586,3.5391
				c1.3965,1.084,2.8652,1.8779,4.9844,2.6729c-0.4814,0.7461-0.8906,1.6133-1.1797,2.5039
				c-2.0225-0.9629-3.4668-1.9023-5.2734-3.4434v1.4688c-0.626-0.0723-1.083-0.0957-2.2871-0.0957h-4.1895
				c-1.2041,0-1.6855,0.0234-2.2871,0.0957v-1.3477c-1.4453,1.2754-2.5283,2.0703-4.0449,2.9854
				c0.6016,0.0479,1.1797,0.0723,1.8779,0.0723h12.8809c1.0361,0,1.7822-0.0479,2.4805-0.1201v2.5273
				c-0.6982-0.0957-1.4932-0.1445-2.4805-0.1445h-4.9834v4.3828c0,1.8779-0.626,2.3838-2.9141,2.3838
				c-0.9629,0-1.2998,0-2.4072-0.0488c-0.0967-0.9863-0.2646-1.5645-0.626-2.4551c1.0107,0.168,1.9023,0.2402,2.6729,0.2402
				c0.626,0,0.7939-0.1201,0.7939-0.5781v-3.9248h-5.417c-0.9873,0-1.7344,0.0488-2.4805,0.1445v-2.1182
				c-0.3613,0.1924-0.5059,0.2891-1.0352,0.5537c-0.3135-0.8906-0.6738-1.5654-1.2041-2.2871
				c1.373-0.5547,2.1191-0.9873,3.708-2.0234c-0.4814-0.5293-0.5059-0.5537-1.541-1.4443L264.0703,17.416z M268.3564,27.1436
				c-1.7578,2.3115-3.0342,3.4668-5.4902,5.0566c-0.6504-0.9639-0.7949-1.1807-1.5654-1.9746
				c1.4453-0.7949,2.2158-1.3486,3.3955-2.4316c0.626-0.5781,0.9385-0.9639,1.4443-1.6621L268.3564,27.1436z M273.7734,19.4863
				c0.6016,0,0.8672,0,1.2998-0.0234c-1.2754-1.252-2.3594-2.6973-3.25-4.4062c-0.9873,1.709-1.9023,2.9131-3.4668,4.4062
				c0.3369,0.0234,0.6016,0.0234,1.2275,0.0234H273.7734z M276.7354,26.1084c1.709,1.8779,2.8164,2.7207,5.1523,3.876
				c-0.6504,0.7227-1.0117,1.2285-1.5654,2.2158c-2.335-1.4688-3.4424-2.4326-5.7061-5.0088L276.7354,26.1084z"/>
			<path d="M293.7334,28.5879c-1.4668,1.2764-2.2373,1.8301-3.5391,2.5762c-1.2529,0.6982-2.0938,1.0596-3.7783,1.6133
				c-0.6016-1.1797-0.915-1.5889-1.709-2.335c1.7334-0.4092,2.5518-0.6748,3.7539-1.252c1.2275-0.6025,1.9502-1.0596,3.2764-2.167
				L293.7334,28.5879z M292.0264,13.5879c0-1.1074-0.0244-1.541-0.1445-2.0947h2.5977c-0.1211,0.6016-0.1445,0.9873-0.1445,2.1426
				v0.5781h2.6992v-0.5781c0-1.2041-0.0234-1.6133-0.1201-2.1426h2.5732c-0.1201,0.6738-0.1445,1.083-0.1445,2.1182v0.6025h2.9883
				c1.1543,0,1.8281-0.0244,2.2852-0.0723c-0.0723,0.4814-0.0967,1.1074-0.0967,1.9746v8.4512
				c0.8428-0.0244,1.252-0.0488,1.8301-0.1445v2.6484c-0.7227-0.0967-1.5889-0.1445-2.7197-0.1445h-15.915
				c-1.1299,0-1.9971,0.0479-2.7188,0.1445v-2.6484c0.5771,0.0957,0.9629,0.1201,1.8291,0.1445v-8.4756
				c0-0.8184-0.0234-1.3721-0.0957-1.9502c0.6006,0.0479,1.25,0.0723,2.2363,0.0723h3.0605L292.0264,13.5879L292.0264,13.5879z
				 M292.0264,16.501h-2.7002v2.7686h2.7002V16.501z M292.0264,21.4854h-2.7002v3.082h2.7002V21.4854z M297.0342,19.2695V16.501
				h-2.6992v2.7686L297.0342,19.2695L297.0342,19.2695z M297.0342,24.5674v-3.082h-2.6992v3.082H297.0342z M298.958,27.0469
				c1.3252,1.0117,2,1.4209,3.2051,1.999c1.3945,0.6738,2.333,0.9873,4.1865,1.3965c-0.7227,0.915-0.8672,1.1553-1.4932,2.4561
				c-1.8037-0.5303-2.7656-0.9395-4.1875-1.7344c-1.2773-0.6982-2.0479-1.252-3.5625-2.5273L298.958,27.0469z M302.0186,19.2695
				V16.501h-2.6758v2.7686L302.0186,19.2695L302.0186,19.2695z M302.0186,24.5674v-3.082h-2.6758v3.082H302.0186z"/>
		</g>
	</g>
</g>
<g id="レイヤー_10">
</g>
</svg>
