<?xml version="1.0" encoding="utf-8"?>
<!-- Generator: Adobe Illustrator 22.1.0, SVG Export Plug-In . SVG Version: 6.00 Build 0)  -->
<svg version="1.1" xmlns="http://www.w3.org/2000/svg" xmlns:xlink="http://www.w3.org/1999/xlink" x="0px" y="0px"
	 viewBox="0 0 750 1200" enable-background="new 0 0 750 1200" xml:space="preserve">
<g id="レイヤー_1">
	
		<linearGradient id="SVGID_1_" gradientUnits="userSpaceOnUse" x1="-924.1194" y1="85.4322" x2="-29.9625" y2="85.4322" gradientTransform="matrix(0 1 -1 0 460.3382 915.5215)">
		<stop  offset="0" style="stop-color:#2185A7"/>
		<stop  offset="0.5083" style="stop-color:#FFFFFF;stop-opacity:0"/>
		<stop  offset="0.9843" style="stop-color:#E90096;stop-opacity:0"/>
	</linearGradient>
	<polygon fill="url(#SVGID_1_)" points="-8.5979,885.559 -8.5979,-8.5979 758.4099,-8.5979 758.4099,885.559 	"/>
	
		<linearGradient id="SVGID_2_" gradientUnits="userSpaceOnUse" x1="-771.5352" y1="1064.3344" x2="122.6217" y2="1064.3344" gradientTransform="matrix(0 -1 1 0 -689.3343 436.9688)">
		<stop  offset="0" style="stop-color:#CC3870"/>
		<stop  offset="0.5083" style="stop-color:#FFFFFF;stop-opacity:0"/>
	</linearGradient>
	<polygon fill="url(#SVGID_2_)" points="758.5039,314.347 758.5039,1208.5039 -8.5039,1208.5039 -8.5039,314.347 	"/>
</g>
<g id="レイヤー_3">
	<g opacity="0.5">
		<g>
			<path fill="#FFFFFF" d="M351.3444,30.5923l11.9436,67.7353c1.9927,1.3231,4.0006,2.7045,6.0237,4.1458l-12.8344-72.7863
				c-0.2499-1.4177-1.6009-2.3642-3.0195-2.1143C352.0402,27.8237,351.0945,29.1747,351.3444,30.5923"/>
			<path fill="#FFFFFF" d="M325.3644,38.0239l17.6118,48.39c2.2655,1.1526,4.5714,2.4023,6.8977,3.706l-19.6105-53.8793
				c-0.4923-1.3527-1.9876-2.0501-3.3403-1.5578h-0.0009C325.5696,35.175,324.8722,36.6712,325.3644,38.0239"/>
			<path fill="#FFFFFF" d="M301.0706,49.8545l14.654,25.3826c2.4335,0.7625,4.9311,1.6085,7.4921,2.5474l-17.6304-30.5374
				c-0.7202-1.2463-2.3144-1.6735-3.5607-0.9541l-0.0009,0.0008C300.7776,47.0141,300.3504,48.6074,301.0706,49.8545"/>
			<path fill="#FFFFFF" d="M279.5211,62.0504l-0.0009,0.0009c-1.1028,0.9254-1.2471,2.5686-0.3209,3.6722l2.4647,2.9376
				c2.2654,0.1553,4.7394,0.3867,7.4085,0.7177l-5.8793-7.0066C282.2678,61.2694,280.6238,61.1258,279.5211,62.0504"/>
			<path fill="#FFFFFF" d="M481.8894,62.0504l0.0008,0.0009c1.1036,0.9254,1.2471,2.5686,0.3217,3.6722l-2.4647,2.9376
				c-2.2663,0.1553-4.7394,0.3867-7.4093,0.7177l5.8802-7.0066C479.1435,61.2694,480.7866,61.1258,481.8894,62.0504"/>
			<path fill="#FFFFFF" d="M411.6137,90.3661c2.317-1.2953,4.6153-2.5255,6.8892-3.6857L436.287,37.821
				c0.4923-1.3535-0.2052-2.8489-1.5587-3.3411h-0.0009c-1.3527-0.4923-2.8481,0.2052-3.3403,1.5578L411.6137,90.3661z"/>
			<path fill="#FFFFFF" d="M392.2939,102.5851c2.0155-1.4286,4.0217-2.7982,6.0195-4.1163l11.9858-67.9785
				c0.2499-1.4177-0.6966-2.7695-2.1143-3.0186c-1.4168-0.2508-2.7687,0.6957-3.0194,2.1134L392.2939,102.5851z"/>
			<path fill="#FFFFFF" d="M383.4329,109.2057V27.7849c0-1.4388-1.1669-2.6057-2.6057-2.6057h-0.0017
				c-1.4397,0-2.6066,1.1669-2.6066,2.6057v81.3634c0.8798,0.6916,1.7563,1.3645,2.642,2.0806
				C381.7196,110.5339,382.575,109.8787,383.4329,109.2057"/>
			<path fill="#FFFFFF" d="M438.1973,77.9388c2.5762-0.9769,5.1076-1.8795,7.579-2.6986l14.8305-25.6882
				c0.7202-1.2463,0.293-2.8405-0.9533-3.5599l-0.0017-0.0009c-1.2463-0.7194-2.8405-0.293-3.5607,0.9533L438.1973,77.9388z"/>
		</g>
		<g>
			<path fill="#FFFFFF" d="M380.1296,232.4301c-14.8483-15.0931-40.1954-42.8779-77.2066-58.8103
				c-30.567-13.1586-58.1399-17.5452-77.1694-19.0304l-0.0008-28.9205c-0.0009-1.7309,1.4726-3.0988,3.1976-2.9553
				c18.9949,1.5756,45.8467,6.0508,75.5086,18.7855c35.3968,15.1978,60.0093,35.8038,74.8026,50.4384
				c0.8874,0.879,2.3102,0.879,3.1985,0"/>
			<path fill="#FFFFFF" d="M380.5493,232.4301c14.8482-15.0931,40.1953-42.8779,77.2066-58.8103
				c30.567-13.1586,58.1399-17.5452,77.1695-19.0304l0.0008-28.9205c0-1.7309-1.4725-3.0988-3.1976-2.9553
				c-18.9949,1.5756-45.8468,6.0508-75.5086,18.7855c-35.3968,15.1978-60.0102,35.8038-74.8027,50.4384
				c-0.8874,0.879-2.3102,0.879-3.1985,0"/>
		</g>
	</g>
</g>
<g id="レイヤー_2">
	<g>
		<path d="M190.9619,103.0083v45.9873h-9.6924v-45.9873h-17.2539v-8.8672h44.2002v8.8672H190.9619z"/>
		<path d="M218.9409,148.9956V94.1411h9.8989v54.8545H218.9409z"/>
		<path d="M296.5781,148.9956l-5.0186-41.313l-12.9229,41.313h-10.5859l-12.9229-41.313l-5.0181,41.313h-9.7612l7.2178-54.8545
			h12.373l13.4043,42.5498l13.4043-42.5498h12.373l7.2178,54.8545H296.5781z"/>
		<path d="M315.8135,148.9956V94.1411h34.7832v8.8672h-25.0908v13.3354h22.8906v8.7305h-22.8906v15.0537h25.9844v8.8677H315.8135z"
			/>
		<path d="M387.1211,103.0083v45.9873h-9.6924v-45.9873h-17.2539v-8.8672h44.1992v8.8672H387.1211z"/>
		<path d="M447.9531,148.9956l-4.6748-13.4731h-22.1338l-4.7432,13.4731h-10.7236l20.2783-54.8545h12.5107l20.2783,54.8545H447.9531
			z M432.2119,103.627l-8.1807,23.5781h16.3604L432.2119,103.627z"/>
		<path d="M498.9814,146.2461c-3.2305,1.9932-6.9434,2.7495-13.3359,2.7495h-18.9717V94.1411h18.1475
			c5.499,0,7.8359,0.3433,10.7227,1.5122c5.0186,2.1309,8.1113,6.874,8.1113,12.7168c0,5.499-2.4053,9.3486-6.1865,11.7544
			c5.5,3.1621,7.9053,7.2178,7.9053,13.3359C505.374,139.0972,503.1055,143.7026,498.9814,146.2461z M485.3018,103.0083h-8.9355
			v13.4731h9.8984c4.7432,0,7.7676-2.6123,7.7676-6.8052C494.0322,105.2769,491.0762,103.0083,485.3018,103.0083z
			 M486.9521,124.6616h-10.5859v15.4663h9.4854c6.668,0,9.7617-2.4058,9.7617-7.6299
			C495.6133,127.6172,492.3818,124.6616,486.9521,124.6616z"/>
		<path d="M514.7471,148.9956V94.1411h9.6924v45.9868h19.3848v8.8677H514.7471z"/>
		<path d="M552.0625,148.9956V94.1411h34.7832v8.8672h-25.0908v13.3354h22.8906v8.7305h-22.8906v15.0537h25.9844v8.8677H552.0625z"
			/>
	</g>
	<g opacity="0.5">
		<path fill="#FFFFFF" d="M728.4154,16.8708v1166.2585H21.5846V16.8708H728.4154 M731.25,14.0362H18.75v1171.9277h712.5V14.0362
			L731.25,14.0362z"/>
	</g>
</g>
<g id="レイヤー_4">
	<g>
		<rect x="111.0453" y="211.999" fill="none" width="513.98" height="948.1384"/>
		<path d="M118.1831,236.3364v-16.9683l-3.8096,2.6528l-0.4731-3.4409l4.7295-3.2046h3.3105v20.9609H118.1831z"/>
		<path d="M135.5845,236.3364v-16.9683l-3.8096,2.6528l-0.4731-3.4409l4.7295-3.2046h3.3105v20.9609H135.5845z"/>
		<path d="M147.6226,224.4067v-4.0298h3.9463v4.0298H147.6226z M147.6226,236.3301v-4.0347h3.9463v4.0347H147.6226z"/>
		<path d="M162.271,236.7554c-2.5015,0-4.6846-1.2627-5.9189-3.4458c-0.998-1.7324-1.5229-4.3042-1.5229-7.4536
			c0-7.0332,2.6523-10.8989,7.521-10.8989c2.5811,0,4.7642,1.2363,5.998,3.4194c1.0244,1.811,1.5234,4.2778,1.5234,7.5059
			C169.8716,232.9419,167.2192,236.7554,162.271,236.7554z M162.3501,218.3501c-2.5278,0-3.8184,2.4932-3.8184,7.4272
			c0,5.144,1.2378,7.5845,3.8711,7.5845c2.502,0,3.7661-2.5195,3.7661-7.5059
			C166.1689,220.8174,164.9048,218.3501,162.3501,218.3501z"/>
		<path d="M179.6724,236.7554c-2.5015,0-4.6846-1.2627-5.9189-3.4458c-0.998-1.7324-1.5229-4.3042-1.5229-7.4536
			c0-7.0332,2.6523-10.8989,7.521-10.8989c2.5811,0,4.7642,1.2363,5.998,3.4194c1.0244,1.811,1.5234,4.2778,1.5234,7.5059
			C187.2729,232.9419,184.6206,236.7554,179.6724,236.7554z M179.7515,218.3501c-2.5278,0-3.8184,2.4932-3.8184,7.4272
			c0,5.144,1.2378,7.5845,3.8711,7.5845c2.502,0,3.7661-2.5195,3.7661-7.5059
			C183.5703,220.8174,182.3062,218.3501,179.7515,218.3501z"/>
		<path d="M189.5239,230.0859v-3.4536h7.5142v3.4536H189.5239z"/>
		<path d="M118.1831,402.2842v-16.9683l-3.8096,2.6528l-0.4731-3.4409l4.7295-3.2046h3.3105v20.9609H118.1831z"/>
		<path d="M135.5845,402.2842v-16.9683l-3.8096,2.6528l-0.4731-3.4409l4.7295-3.2046h3.3105v20.9609H135.5845z"/>
		<path d="M147.6226,390.3545v-4.0298h3.9463v4.0298H147.6226z M147.6226,402.2778v-4.0347h3.9463v4.0347H147.6226z"/>
		<path d="M166.1411,401.8086c-1.1562,0.5522-3.0215,0.8945-4.8086,0.8945c-2.3906,0-4.5718-0.5527-6.6738-1.71l1.0513-3.3379
			c1.6816,1.1294,3.521,1.6543,5.728,1.6543c2.811,0,4.7031-1.3389,4.7031-3.3608c0-2.5205-2.4438-3.1509-4.5249-3.1509h-2.2334
			v-3.1494h2.0493c2.1548,0,3.5474-1.1016,3.5474-2.7539c0-1.5474-1.2612-2.5967-3.1006-2.5967c-1.9707,0-3.731,0.813-5.1499,2.4131
			l-1.3135-3.2808c1.8389-1.6572,4.0986-2.5254,6.5161-2.5254c3.9399,0,6.6953,2.3672,6.6953,5.7012
			c0,1.9146-0.7876,3.2261-2.6172,4.3022c2.6523,1.1548,3.834,2.7822,3.834,5.3032
			C169.8438,398.6006,168.4521,400.7036,166.1411,401.8086z"/>
		<path d="M179.6724,402.7031c-2.5015,0-4.6846-1.2627-5.9189-3.4458c-0.998-1.7324-1.5229-4.3042-1.5229-7.4536
			c0-7.0332,2.6523-10.8989,7.521-10.8989c2.5811,0,4.7642,1.2363,5.998,3.4194c1.0244,1.811,1.5234,4.2778,1.5234,7.5059
			C187.2729,398.8896,184.6206,402.7031,179.6724,402.7031z M179.7515,384.2979c-2.5278,0-3.8184,2.4932-3.8184,7.4272
			c0,5.144,1.2378,7.5845,3.8711,7.5845c2.502,0,3.7661-2.5195,3.7661-7.5059
			C183.5703,386.7651,182.3062,384.2979,179.7515,384.2979z"/>
		<path d="M189.5239,396.0337v-3.4536h7.5142v3.4536H189.5239z"/>
		<path d="M205.5635,402.2842v-16.9683l-3.8096,2.6528l-0.4731-3.4409l4.7295-3.2046h3.3105v20.9609H205.5635z"/>
		<path d="M216.0322,402.2881c8.9072-9.3003,11.2192-12.3457,11.2192-14.8926c0-1.811-1.3135-3.0977-3.1792-3.0977
			c-2.0229,0-3.731,1.2075-5.1235,3.5967l-1.603-3.5967c1.708-2.2095,3.9941-3.3931,6.8052-3.3931
			c4.0459,0,6.8032,2.604,6.8032,6.4385c0,3.124-1.3652,5.3555-7.0918,11.5513h7.959v3.3936H216.0322z"/>
		<path d="M235.0029,390.3545v-4.0298h3.9463v4.0298H235.0029z M235.0029,402.2778v-4.0347h3.9463v4.0347H235.0029z"/>
		<path d="M253.5215,401.8086c-1.1562,0.5522-3.0215,0.8945-4.8086,0.8945c-2.3906,0-4.5718-0.5527-6.6738-1.71l1.0513-3.3379
			c1.6816,1.1294,3.521,1.6543,5.728,1.6543c2.811,0,4.7031-1.3389,4.7031-3.3608c0-2.5205-2.4438-3.1509-4.5249-3.1509h-2.2334
			v-3.1494h2.0493c2.1548,0,3.5474-1.1016,3.5474-2.7539c0-1.5474-1.2612-2.5967-3.1006-2.5967c-1.9707,0-3.731,0.813-5.1499,2.4131
			l-1.3135-3.2808c1.8389-1.6572,4.0986-2.5254,6.5161-2.5254c3.9399,0,6.6953,2.3672,6.6953,5.7012
			c0,1.9146-0.7876,3.2261-2.6172,4.3022c2.6523,1.1548,3.834,2.7822,3.834,5.3032
			C257.2241,398.6006,255.8325,400.7036,253.5215,401.8086z"/>
		<path d="M267.0527,402.7031c-2.5015,0-4.6846-1.2627-5.9189-3.4458c-0.998-1.7324-1.5229-4.3042-1.5229-7.4536
			c0-7.0332,2.6523-10.8989,7.521-10.8989c2.5811,0,4.7642,1.2363,5.998,3.4194c1.0244,1.811,1.5234,4.2778,1.5234,7.5059
			C274.6533,398.8896,272.001,402.7031,267.0527,402.7031z M267.1318,384.2979c-2.5278,0-3.8184,2.4932-3.8184,7.4272
			c0,5.144,1.2378,7.5845,3.8711,7.5845c2.502,0,3.7661-2.5195,3.7661-7.5059
			C270.9507,386.7651,269.6865,384.2979,267.1318,384.2979z"/>
		<path d="M118.1831,568.2319v-16.9683l-3.8096,2.6528l-0.4731-3.4409l4.7295-3.2046h3.3105v20.9609H118.1831z"/>
		<path d="M128.6519,568.2358c8.9072-9.3003,11.2192-12.3457,11.2192-14.8926c0-1.811-1.3135-3.0977-3.1792-3.0977
			c-2.0229,0-3.731,1.2075-5.1235,3.5967l-1.603-3.5967c1.708-2.2095,3.9941-3.3931,6.8052-3.3931
			c4.0459,0,6.8032,2.604,6.8032,6.4385c0,3.124-1.3652,5.3555-7.0918,11.5513h7.959v3.3936H128.6519z"/>
		<path d="M147.6226,556.3022v-4.0298h3.9463v4.0298H147.6226z M147.6226,568.2256v-4.0347h3.9463v4.0347H147.6226z"/>
		<path d="M167.5205,563.916v4.3159h-3.6475v-4.3159h-9.2749v-3.1006l9.2749-13.5444h3.6475v13.3604h2.6538v3.2847H167.5205z
			 M163.873,552.3633l-5.5703,8.2681h5.5703V552.3633z"/>
		<path d="M178.8037,568.6509c-2.3389,0-4.5898-0.5527-6.5054-1.6309l0.9458-3.3867c1.6504,1.0737,3.5088,1.624,5.5068,1.624
			c2.9204,0,4.7363-1.4146,4.7363-3.6675c0-2.0698-1.6313-3.5107-3.9468-3.5107c-1.1841,0-2.1841,0.3667-2.8398,1.0215h-3.1152
			v-11.833h12.0298v3.3931h-8.5483v4.5273c1-0.3154,1.7896-0.4468,2.7627-0.4468c4.2881,0,7.3877,2.8647,7.3877,6.8223
			C187.2173,565.8359,183.8813,568.6509,178.8037,568.6509z"/>
		<path d="M189.5239,561.9814v-3.4536h7.5142v3.4536H189.5239z"/>
		<path d="M205.5635,568.2319v-16.9683l-3.8096,2.6528l-0.4731-3.4409l4.7295-3.2046h3.3105v20.9609H205.5635z"/>
		<path d="M227.9707,567.7563c-1.1562,0.5522-3.0215,0.8945-4.8086,0.8945c-2.3906,0-4.5718-0.5527-6.6738-1.71l1.0513-3.3379
			c1.6816,1.1294,3.521,1.6543,5.728,1.6543c2.811,0,4.7031-1.3389,4.7031-3.3608c0-2.5205-2.4438-3.1509-4.5249-3.1509h-2.2334
			v-3.1494h2.0493c2.1548,0,3.5474-1.1016,3.5474-2.7539c0-1.5474-1.2612-2.5967-3.1006-2.5967c-1.9707,0-3.731,0.813-5.1499,2.4131
			l-1.3135-3.2808c1.8389-1.6572,4.0986-2.5254,6.5161-2.5254c3.9399,0,6.6953,2.3672,6.6953,5.7012
			c0,1.9146-0.7876,3.2261-2.6172,4.3022c2.6523,1.1548,3.834,2.7822,3.834,5.3032
			C231.6733,564.5483,230.2817,566.6514,227.9707,567.7563z"/>
		<path d="M235.0029,556.3022v-4.0298h3.9463v4.0298H235.0029z M235.0029,568.2256v-4.0347h3.9463v4.0347H235.0029z"/>
		<path d="M253.5215,567.7563c-1.1562,0.5522-3.0215,0.8945-4.8086,0.8945c-2.3906,0-4.5718-0.5527-6.6738-1.71l1.0513-3.3379
			c1.6816,1.1294,3.521,1.6543,5.728,1.6543c2.811,0,4.7031-1.3389,4.7031-3.3608c0-2.5205-2.4438-3.1509-4.5249-3.1509h-2.2334
			v-3.1494h2.0493c2.1548,0,3.5474-1.1016,3.5474-2.7539c0-1.5474-1.2612-2.5967-3.1006-2.5967c-1.9707,0-3.731,0.813-5.1499,2.4131
			l-1.3135-3.2808c1.8389-1.6572,4.0986-2.5254,6.5161-2.5254c3.9399,0,6.6953,2.3672,6.6953,5.7012
			c0,1.9146-0.7876,3.2261-2.6172,4.3022c2.6523,1.1548,3.834,2.7822,3.834,5.3032
			C257.2241,564.5483,255.8325,566.6514,253.5215,567.7563z"/>
		<path d="M267.0527,568.6509c-2.5015,0-4.6846-1.2627-5.9189-3.4458c-0.998-1.7324-1.5229-4.3042-1.5229-7.4536
			c0-7.0332,2.6523-10.8989,7.521-10.8989c2.5811,0,4.7642,1.2363,5.998,3.4194c1.0244,1.811,1.5234,4.2778,1.5234,7.5059
			C274.6533,564.8374,272.001,568.6509,267.0527,568.6509z M267.1318,550.2456c-2.5278,0-3.8184,2.4932-3.8184,7.4272
			c0,5.144,1.2378,7.5845,3.8711,7.5845c2.502,0,3.7661-2.5195,3.7661-7.5059
			C270.9507,552.7129,269.6865,550.2456,267.1318,550.2456z"/>
		<path d="M118.1831,734.1797v-16.9678l-3.8096,2.6523l-0.4731-3.4404l4.7295-3.2051h3.3105v20.9609H118.1831z"/>
		<path d="M141.9697,729.8633v4.3164h-3.6475v-4.3164h-9.2749v-3.1006l9.2749-13.5439h3.6475v13.3604h2.6538v3.2842H141.9697z
			 M138.3223,718.3105l-5.5703,8.2686h5.5703V718.3105z"/>
		<path d="M147.6226,722.25v-4.0293h3.9463v4.0293H147.6226z M147.6226,734.1738v-4.0352h3.9463v4.0352H147.6226z"/>
		<path d="M162.271,734.5986c-2.5015,0-4.6846-1.2627-5.9189-3.4463c-0.998-1.7314-1.5229-4.3037-1.5229-7.4531
			c0-7.0332,2.6523-10.8994,7.521-10.8994c2.5811,0,4.7642,1.2363,5.998,3.4199c1.0244,1.8105,1.5234,4.2773,1.5234,7.5059
			C169.8716,730.7852,167.2192,734.5986,162.271,734.5986z M162.3501,716.1934c-2.5278,0-3.8184,2.4932-3.8184,7.4268
			c0,5.1445,1.2378,7.585,3.8711,7.585c2.502,0,3.7661-2.5195,3.7661-7.5059C166.1689,718.6602,164.9048,716.1934,162.3501,716.1934
			z"/>
		<path d="M179.6724,734.5986c-2.5015,0-4.6846-1.2627-5.9189-3.4463c-0.998-1.7314-1.5229-4.3037-1.5229-7.4531
			c0-7.0332,2.6523-10.8994,7.521-10.8994c2.5811,0,4.7642,1.2363,5.998,3.4199c1.0244,1.8105,1.5234,4.2773,1.5234,7.5059
			C187.2729,730.7852,184.6206,734.5986,179.6724,734.5986z M179.7515,716.1934c-2.5278,0-3.8184,2.4932-3.8184,7.4268
			c0,5.1445,1.2378,7.585,3.8711,7.585c2.502,0,3.7661-2.5195,3.7661-7.5059C183.5703,718.6602,182.3062,716.1934,179.7515,716.1934
			z"/>
		<path d="M189.5239,727.9287v-3.4531h7.5142v3.4531H189.5239z"/>
		<path d="M205.5635,734.1797v-16.9678l-3.8096,2.6523l-0.4731-3.4404l4.7295-3.2051h3.3105v20.9609H205.5635z"/>
		<path d="M223.2319,734.5986c-2.3389,0-4.5898-0.5527-6.5054-1.6309l0.9458-3.3867c1.6504,1.0742,3.5088,1.624,5.5068,1.624
			c2.9204,0,4.7363-1.415,4.7363-3.668c0-2.0693-1.6313-3.5098-3.9468-3.5098c-1.1841,0-2.1841,0.3662-2.8398,1.0215h-3.1152
			v-11.834h12.0298v3.3936h-8.5483v4.5273c1-0.3154,1.7896-0.4473,2.7627-0.4473c4.2881,0,7.3877,2.8652,7.3877,6.8223
			C231.6455,731.7842,228.3096,734.5986,223.2319,734.5986z"/>
		<path d="M235.0029,722.25v-4.0293h3.9463v4.0293H235.0029z M235.0029,734.1738v-4.0352h3.9463v4.0352H235.0029z"/>
		<path d="M249.6514,734.5986c-2.5015,0-4.6846-1.2627-5.9189-3.4463c-0.998-1.7314-1.5229-4.3037-1.5229-7.4531
			c0-7.0332,2.6523-10.8994,7.521-10.8994c2.5811,0,4.7642,1.2363,5.998,3.4199c1.0244,1.8105,1.5234,4.2773,1.5234,7.5059
			C257.252,730.7852,254.5996,734.5986,249.6514,734.5986z M249.7305,716.1934c-2.5278,0-3.8184,2.4932-3.8184,7.4268
			c0,5.1445,1.2378,7.585,3.8711,7.585c2.502,0,3.7661-2.5195,3.7661-7.5059C253.5493,718.6602,252.2852,716.1934,249.7305,716.1934
			z"/>
		<path d="M267.0527,734.5986c-2.5015,0-4.6846-1.2627-5.9189-3.4463c-0.998-1.7314-1.5229-4.3037-1.5229-7.4531
			c0-7.0332,2.6523-10.8994,7.521-10.8994c2.5811,0,4.7642,1.2363,5.998,3.4199c1.0244,1.8105,1.5234,4.2773,1.5234,7.5059
			C274.6533,730.7852,272.001,734.5986,267.0527,734.5986z M267.1318,716.1934c-2.5278,0-3.8184,2.4932-3.8184,7.4268
			c0,5.1445,1.2378,7.585,3.8711,7.585c2.502,0,3.7661-2.5195,3.7661-7.5059C270.9507,718.6602,269.6865,716.1934,267.1318,716.1934
			z"/>
		<path d="M118.1831,900.1279v-16.9678l-3.8096,2.6523l-0.4731-3.4404l4.7295-3.2051h3.3105v20.9609H118.1831z"/>
		<path d="M135.8516,900.5469c-2.3389,0-4.5898-0.5527-6.5054-1.6309l0.9458-3.3867c1.6504,1.0742,3.5088,1.624,5.5068,1.624
			c2.9204,0,4.7363-1.415,4.7363-3.668c0-2.0693-1.6313-3.5098-3.9468-3.5098c-1.1841,0-2.1841,0.3662-2.8398,1.0215h-3.1152
			v-11.834h12.0298v3.3936h-8.5483v4.5273c1-0.3154,1.7896-0.4473,2.7627-0.4473c4.2881,0,7.3877,2.8652,7.3877,6.8223
			C144.2651,897.7324,140.9292,900.5469,135.8516,900.5469z"/>
		<path d="M147.6226,888.1982v-4.0293h3.9463v4.0293H147.6226z M147.6226,900.1221v-4.0352h3.9463v4.0352H147.6226z"/>
		<path d="M166.1411,899.6523c-1.1562,0.5527-3.0215,0.8945-4.8086,0.8945c-2.3906,0-4.5718-0.5527-6.6738-1.71l1.0513-3.3379
			c1.6816,1.1289,3.521,1.6543,5.728,1.6543c2.811,0,4.7031-1.3389,4.7031-3.3613c0-2.5205-2.4438-3.1504-4.5249-3.1504h-2.2334
			v-3.1494h2.0493c2.1548,0,3.5474-1.1016,3.5474-2.7539c0-1.5479-1.2612-2.5967-3.1006-2.5967
			c-1.9707,0-3.731,0.8135-5.1499,2.4131l-1.3135-3.2812c1.8389-1.6572,4.0986-2.5254,6.5161-2.5254
			c3.9399,0,6.6953,2.3682,6.6953,5.7021c0,1.9141-0.7876,3.2256-2.6172,4.3018c2.6523,1.1543,3.834,2.7822,3.834,5.3027
			C169.8438,896.4443,168.4521,898.5479,166.1411,899.6523z"/>
		<path d="M179.6724,900.5469c-2.5015,0-4.6846-1.2627-5.9189-3.4463c-0.998-1.7314-1.5229-4.3037-1.5229-7.4531
			c0-7.0332,2.6523-10.8994,7.521-10.8994c2.5811,0,4.7642,1.2363,5.998,3.4199c1.0244,1.8105,1.5234,4.2773,1.5234,7.5059
			C187.2729,896.7334,184.6206,900.5469,179.6724,900.5469z M179.7515,882.1416c-2.5278,0-3.8184,2.4932-3.8184,7.4268
			c0,5.1445,1.2378,7.585,3.8711,7.585c2.502,0,3.7661-2.5195,3.7661-7.5059C183.5703,884.6084,182.3062,882.1416,179.7515,882.1416
			z"/>
		<path d="M189.5239,893.877v-3.4531h7.5142v3.4531H189.5239z"/>
		<path d="M205.5635,900.1279v-16.9678l-3.8096,2.6523l-0.4731-3.4404l4.7295-3.2051h3.3105v20.9609H205.5635z"/>
		<path d="M224.4839,900.5469c-4.8076,0-7.9341-3.7354-7.9341-9.4873c0-7.1641,4.3613-12.3115,10.4297-12.3115
			c0.3677,0,0.9458,0.0264,1.4448,0.0527v3.4199c-0.394-0.0527-0.7617-0.0791-1.1558-0.0791c-3.3628,0-5.6479,1.9902-6.7778,5.9492
			c1.4189-1.2607,2.7324-1.7861,4.4922-1.7861c3.8877,0,6.8564,3.0215,6.8564,6.9609
			C231.8394,897.3906,228.6606,900.5469,224.4839,900.5469z M224.5889,889.5889c-2.4429,0-4.2295,1.4971-4.2295,3.5459
			c0,2.2061,1.7603,4.0186,3.9668,4.0186c2.2856,0,3.7827-1.5498,3.7827-3.9395
			C228.1089,891.1123,226.6377,889.5889,224.5889,889.5889z"/>
		<path d="M235.0029,888.1982v-4.0293h3.9463v4.0293H235.0029z M235.0029,900.1221v-4.0352h3.9463v4.0352H235.0029z"/>
		<path d="M253.5215,899.6523c-1.1562,0.5527-3.0215,0.8945-4.8086,0.8945c-2.3906,0-4.5718-0.5527-6.6738-1.71l1.0513-3.3379
			c1.6816,1.1289,3.521,1.6543,5.728,1.6543c2.811,0,4.7031-1.3389,4.7031-3.3613c0-2.5205-2.4438-3.1504-4.5249-3.1504h-2.2334
			v-3.1494h2.0493c2.1548,0,3.5474-1.1016,3.5474-2.7539c0-1.5479-1.2612-2.5967-3.1006-2.5967
			c-1.9707,0-3.731,0.8135-5.1499,2.4131l-1.3135-3.2812c1.8389-1.6572,4.0986-2.5254,6.5161-2.5254
			c3.9399,0,6.6953,2.3682,6.6953,5.7021c0,1.9141-0.7876,3.2256-2.6172,4.3018c2.6523,1.1543,3.834,2.7822,3.834,5.3027
			C257.2241,896.4443,255.8325,898.5479,253.5215,899.6523z"/>
		<path d="M267.0527,900.5469c-2.5015,0-4.6846-1.2627-5.9189-3.4463c-0.998-1.7314-1.5229-4.3037-1.5229-7.4531
			c0-7.0332,2.6523-10.8994,7.521-10.8994c2.5811,0,4.7642,1.2363,5.998,3.4199c1.0244,1.8105,1.5234,4.2773,1.5234,7.5059
			C274.6533,896.7334,272.001,900.5469,267.0527,900.5469z M267.1318,882.1416c-2.5278,0-3.8184,2.4932-3.8184,7.4268
			c0,5.1445,1.2378,7.585,3.8711,7.585c2.502,0,3.7661-2.5195,3.7661-7.5059C270.9507,884.6084,269.6865,882.1416,267.1318,882.1416
			z"/>
		<path d="M118.1831,1066.0752v-16.9678l-3.8096,2.6523l-0.4731-3.4404l4.7295-3.2051h3.3105v20.9609H118.1831z"/>
		<path d="M137.1035,1066.4941c-4.8076,0-7.9341-3.7354-7.9341-9.4873c0-7.1641,4.3613-12.3115,10.4297-12.3115
			c0.3677,0,0.9458,0.0264,1.4448,0.0527v3.4199c-0.394-0.0527-0.7617-0.0791-1.1558-0.0791c-3.3628,0-5.6479,1.9902-6.7778,5.9492
			c1.4189-1.2607,2.7324-1.7861,4.4922-1.7861c3.8877,0,6.8564,3.0215,6.8564,6.9609
			C144.459,1063.3379,141.2803,1066.4941,137.1035,1066.4941z M137.2085,1055.5361c-2.4429,0-4.2295,1.4971-4.2295,3.5459
			c0,2.2061,1.7603,4.0186,3.9668,4.0186c2.2856,0,3.7827-1.5498,3.7827-3.9395
			C140.7285,1057.0596,139.2573,1055.5361,137.2085,1055.5361z"/>
		<path d="M147.6226,1054.1455v-4.0293h3.9463v4.0293H147.6226z M147.6226,1066.0693v-4.0352h3.9463v4.0352H147.6226z"/>
		<path d="M167.5205,1061.7588v4.3164h-3.6475v-4.3164h-9.2749v-3.1006l9.2749-13.5439h3.6475v13.3604h2.6538v3.2842H167.5205z
			 M163.873,1050.2061l-5.5703,8.2686h5.5703V1050.2061z"/>
		<path d="M178.8037,1066.4941c-2.3389,0-4.5898-0.5527-6.5054-1.6309l0.9458-3.3867c1.6504,1.0742,3.5088,1.624,5.5068,1.624
			c2.9204,0,4.7363-1.415,4.7363-3.668c0-2.0693-1.6313-3.5098-3.9468-3.5098c-1.1841,0-2.1841,0.3662-2.8398,1.0215h-3.1152
			v-11.834h12.0298v3.3936h-8.5483v4.5273c1-0.3154,1.7896-0.4473,2.7627-0.4473c4.2881,0,7.3877,2.8652,7.3877,6.8223
			C187.2173,1063.6797,183.8813,1066.4941,178.8037,1066.4941z"/>
	</g>
	<rect x="160.7128" y="249.5596" opacity="0.6" fill="#2184A6" width="427.4391" height="88.9084"/>
	<rect x="160.7128" y="416.5668" opacity="0.5" fill="#2184A6" width="427.4391" height="88.9084"/>
	<rect x="160.7128" y="582.234" opacity="0.3" fill="#2184A6" width="427.4391" height="88.9084"/>
	<rect x="160.7128" y="1078.9523" opacity="0.6" fill="#CC3870" width="427.4391" height="88.9084"/>
	<rect x="160.7128" y="914.517" opacity="0.4" fill="#CC3870" width="427.4391" height="88.9084"/>
	<rect x="160.7128" y="747.7986" opacity="0.3" fill="#CC3870" width="427.4391" height="88.9084"/>
</g>
<g id="レイヤー_5">
</g>
<g id="レイヤー_6">
	<g>
		<path d="M319.2007,307.5757c0,2.2988,0.0405,3.5894,0.2017,4.7188h-4.4761c0.1611-1.1294,0.2417-2.3794,0.2417-4.7993v-25.5283
			c0-2.0566-0.04-3.105-0.1611-4.3555c1.0483,0.1211,2.0566,0.1616,3.9521,0.1616h7.0171c2.0566,0,2.9438-0.0405,3.9927-0.1616
			c-0.0806,1.1699-0.1211,2.2183-0.1211,3.5894v5.9282c0,1.7749,0,2.4199,0.0806,3.4683c-1.25-0.04-2.0972-0.0806-3.5488-0.0806
			h-7.1787V307.5757z M319.2007,282.6929h6.856v-2.0161h-6.856V282.6929z M319.2007,287.5322h6.856v-2.0967h-6.856V287.5322z
			 M325.6533,299.0664c0.0811-1.3711,0.0811-1.855,0.0811-3.5894c-1.8149,0-2.8232,0.0405-3.8716,0.1616v-3.4683
			c1.0483,0.1206,2.0967,0.1611,3.9116,0.1611h11.252c1.8955,0,2.9438-0.0405,4.0327-0.1611v3.4683
			c-1.0889-0.1211-2.0566-0.1616-4.0327-0.1616v3.5894h0.5645c1.9355,0,2.9038-0.0405,3.9927-0.1611v3.5083
			c-1.21-0.1211-2.0571-0.1611-3.9927-0.1611h-0.5645v5.7266c0,1.7744,0.04,2.5405,0.1611,3.3071h-4.0327
			c0.1611-0.9678,0.2017-1.6133,0.2017-3.3071v-5.7266h-4.3555c-0.4033,4.0732-1.6938,6.6543-4.7188,9.5576
			c-1.0083-1.0889-1.7339-1.7339-3.105-2.6616c2.6211-2.0161,3.6699-3.7505,4.1938-6.896c-2.0972,0-3.105,0.04-4.1133,0.1611
			v-3.5083c1.0483,0.1206,2.0161,0.1611,3.9922,0.1611H325.6533z M329.3638,295.4771c0,1.6538,0,1.6538-0.1211,3.5894h4.1138
			v-3.5894H329.3638z M347.7134,307.5356c0,3.4277-1.1694,4.3149-5.5249,4.3149c-0.6455,0-1.1699,0-2.541-0.0806
			c-0.2017-1.7344-0.4033-2.5405-1.0483-4.0732c1.4922,0.2017,2.6616,0.2822,3.5894,0.2822c1.25,0,1.4922-0.1611,1.4922-1.0083
			v-16.4541h-7.6226c-1.2905,0-2.6616,0.0405-3.5488,0.0806c0.1211-1.3306,0.1211-1.6128,0.1211-3.4683v-5.9282
			c0-1.5322-0.0405-2.5405-0.1211-3.5894c1.0488,0.1211,1.9761,0.1616,3.9521,0.1616h7.4209c1.9355,0,2.9033-0.0405,3.9922-0.1616
			c-0.1211,1.4116-0.1611,2.3794-0.1611,4.3154V307.5356z M336.4614,282.6929h7.2192v-2.0161h-7.2192V282.6929z M336.4614,287.5322
			h7.2192v-2.0967h-7.2192V287.5322z"/>
		<path d="M362.9575,289.4277c-2.5811,1.6133-3.4683,2.0972-6.2104,3.3472c-0.6855-1.5728-1.2905-2.6211-2.2588-3.9922
			c4.1138-1.6133,6.8159-3.1055,9.7192-5.3638c2.5811-1.9761,4.5171-4.0732,6.1304-6.5332h4.5562
			c2.0571,2.8633,3.6313,4.3955,6.5747,6.4526c3.2676,2.3389,6.4531,3.9922,9.9609,5.2427
			c-1.0879,1.6533-1.6133,2.7422-2.1777,4.3555c-2.4199-1.0488-3.9121-1.855-6.5723-3.5488v3.0244
			c-1.0488-0.1211-2.0176-0.1611-3.4688-0.1611h-12.9463c-1.0889,0-2.2588,0.04-3.3071,0.1611V289.4277z M360.8203,299.3892
			c-2.0166,0-3.3071,0.0806-4.5571,0.2417v-4.4766c1.2095,0.1211,2.7422,0.2017,4.5571,0.2017h24.0762
			c1.9355,0,3.2676-0.0806,4.5566-0.2017v4.4766c-1.2891-0.1611-2.5801-0.2417-4.5566-0.2417h-13.2681
			c-1.2905,2.9438-2.5005,5.2021-4.0332,7.501c6.6953-0.3628,6.6953-0.3628,12.2603-0.9678
			c-1.25-1.3711-1.9355-2.0972-4.0728-4.2749l3.8306-1.6938c4.1543,4.1943,5.8477,6.1704,8.9531,10.2837l-3.75,2.4604
			c-1.0898-1.6538-1.4121-2.1377-2.2988-3.3477c-3.2266,0.4033-5.5254,0.6855-6.9771,0.8066
			c-4.0332,0.4033-11.373,1.0889-13.0264,1.21c-2.1782,0.1211-4.1138,0.3228-5.001,0.5244l-0.605-4.7188
			c1.1694,0.0806,1.6533,0.1211,2.1777,0.1211c0.3228,0,1.4922-0.0405,3.4683-0.1611c1.8955-2.9038,3.1055-5.2026,4.1138-7.7432
			H360.8203z M379.1699,288.2178c0.5254,0,0.8867,0,1.6934-0.04c-3.5078-2.3394-5.7661-4.436-8.106-7.5415
			c-2.0161,2.7422-4.3555,4.9604-8.0254,7.5415c0.6455,0.04,0.9678,0.04,1.5728,0.04H379.1699z"/>
		<path d="M427.5654,283.4189c1.8145,0,2.8223-0.0405,3.75-0.2017v4.3149c-1.0479-0.1611-2.5811-0.2417-4.5166-0.2417h-5.6865
			c0.4033,6.896,1.21,11.4131,2.7422,14.9214c0.7266,1.7744,1.5332,3.0249,2.3398,3.8716c0.4033,0.4438,0.7656,0.6855,0.8867,0.6855
			c0.4434,0,0.9277-1.8955,1.4111-5.9282c1.6133,1.1294,2.2988,1.5327,3.6699,2.1777c-0.5645,3.7104-1.25,5.8882-2.2178,7.2998
			c-0.7256,1.0483-1.6533,1.6128-2.6611,1.6128c-1.4521,0-3.4688-1.4517-5.1221-3.7505c-1.9766-2.7827-3.4277-6.6943-4.3154-11.6548
			c-0.5645-3.1055-0.6045-3.8315-0.9277-9.2354h-15.4863c-1.7334,0-3.1045,0.0806-4.5166,0.2417v-4.3555
			c1.21,0.1616,2.6221,0.2422,4.5166,0.2422h15.3252c-0.04-0.5244-0.04-0.5244-0.0801-1.8149c0-0.0806,0-0.605-0.041-1.3711
			c0-0.9678-0.0801-2.3389-0.2012-3.0249h4.6777c-0.1211,0.9683-0.2012,2.1377-0.2012,3.2266c0,0.2017,0.04,1.1694,0.0801,2.9844
			h4.5576c-1.0488-1.7344-1.9766-2.8232-3.6699-4.5571l3.3467-1.6133c1.6543,1.6533,2.1777,2.2183,3.832,4.396l-3.1055,1.7744
			H427.5654z M402.1982,295.8403c-1.4521,0-2.8633,0.0806-3.8711,0.1611v-4.0732c0.9268,0.1211,2.2988,0.2017,3.9521,0.2017h9.3965
			c1.6533,0,2.9844-0.0806,3.9121-0.2017v4.0732c-1.0488-0.0806-2.4199-0.1611-3.8721-0.1611h-2.7021v8.7915
			c2.8633-0.5645,4.3154-0.8872,7.9453-1.8149v3.9521c-6.5332,1.6133-12.543,2.8232-17.8252,3.6299
			c-0.4033,0.04-0.7666,0.1206-1.4121,0.2417l-0.7256-4.3955c1.6133,0,3.3877-0.1616,7.7432-0.8472v-9.5576H402.1982z"/>
	</g>
	<g>
		<path d="M317.8296,447.1328c0-1.7744-0.04-2.7827-0.2417-3.9521h4.5571c-0.2017,1.1294-0.2422,2.1377-0.2422,3.9121v3.186h1.21
			c0.8066,0,1.2905-0.0405,1.9355-0.1211v3.9927c-0.8872-0.0811-1.2905-0.1211-2.0161-0.1211h-1.1294v5.8477
			c0.6855-0.2822,1.1694-0.4438,2.6616-1.0488l0.0811,3.8315c-2.0571,0.8467-2.0571,0.8467-2.7427,1.0889v11.0498
			c0,2.0566-0.4434,2.8633-1.8145,3.3071c-1.0083,0.3228-2.0166,0.4434-3.7104,0.4434c-0.2822,0-0.8472,0-1.6938-0.04
			c-0.1211-1.5728-0.3228-2.4199-0.9277-3.9521c1.1699,0.1206,2.1377,0.2017,2.9038,0.2017c0.9678,0,1.1694-0.1616,1.1694-1.0488
			v-8.5498c-0.8066,0.2827-2.2178,0.7666-2.5811,0.8877c-0.2017,0.0806-0.3628,0.1206-1.2095,0.4839l-0.8472-4.2749
			c1.0083-0.1211,1.8149-0.3228,4.6377-1.0889v-7.1382h-1.4517c-0.9678,0-1.7744,0.04-2.7422,0.1611v-4.1133
			c0.8467,0.1611,1.6128,0.2017,2.7827,0.2017h1.4111V447.1328z M345.939,463.4258c-0.4033,0.5645-0.4033,0.5645-1.21,1.8149
			c-1.3711,2.1372-3.2261,4.3149-5.3638,6.291c3.1455,1.7344,6.1299,2.7021,10.3647,3.3472
			c-1.0488,1.7344-1.2905,2.2588-2.0166,4.1943c-4.9204-1.1694-8.6304-2.7021-11.7358-4.9199
			c-3.0244,2.0972-6.5332,3.6294-10.9692,4.7588c-0.8066-1.8555-1.2505-2.5811-2.2183-3.8716
			c3.8716-0.6455,6.6948-1.6538,9.9209-3.5488c-1.5728-1.5327-2.5811-2.8232-4.3555-5.5254l3.6699-1.3711h-2.2583
			c-1.3311,0-2.0166,0.0405-2.9038,0.1616v-2.0166h-1.5728c0.1211-0.8472,0.1211-1.21,0.1211-2.541v-3.1455
			c0-1.0483-0.0405-1.5728-0.1211-2.3389c0.7261,0.0806,1.3711,0.1211,3.0649,0.1211h0.2422
			c-0.5244-1.6538-1.0488-2.8638-1.9761-4.5171l3.4277-1.0483c0.8872,1.6533,1.0889,2.1372,1.936,4.436l-3.0249,1.1294h6.6543
			c-0.1211-0.3633-0.1211-0.4033-0.2422-0.9683c-0.4033-1.3306-0.7661-2.3389-1.5728-4.1538l3.6299-0.9678
			c1.0078,2.3389,1.25,2.9844,1.7744,5.041l-3.3477,1.0488h4.8398c1.6533-2.541,2.3794-4.1138,3.2666-7.0176l3.8716,1.4116
			c-1.1294,2.3394-2.0166,3.8716-3.146,5.606h0.4438c1.9355,0,2.9438-0.0405,3.8716-0.1616
			c-0.0806,0.9277-0.1211,1.4116-0.1211,2.8633v2.7021c0,0.8472,0.0405,1.5728,0.1611,2.4199h-3.71L345.939,463.4258z
			 M348.0762,446.6489c-0.5244,0.0806-0.5244,0.0806-1.6133,0.3228c-4.9199,1.0083-12.5015,1.8149-20.0835,2.0972
			c-0.3228-1.4116-0.7261-2.4199-1.4116-3.6299c0.4438,0,0.7261,0,1.0083,0c6.8154,0,16.3735-1.2095,19.0757-2.4194
			L348.0762,446.6489z M344.8096,458.2637h-15.4863v2.7422h12.1392c1.25,0,1.855-0.04,2.3794-0.1206l0.9678,1.1289V458.2637z
			 M332.1865,464.5952c1.2505,2.0166,2.1377,3.1055,3.8315,4.5977c1.8149-1.4922,2.7827-2.541,3.9927-4.5977H332.1865z"/>
		<path d="M363.4819,473.4678c-1.7344,0-2.5811,0.04-4.1538,0.1206c0.1206-1.0078,0.1611-2.2583,0.1611-3.9922v-6.0898
			c0-1.6133-0.0405-2.6616-0.1611-3.8716c1.0889,0.0806,1.855,0.1211,4.3149,0.1211h17.9878c2.2988,0,3.2266-0.0405,4.3145-0.1211
			c-0.1211,1.2505-0.1621,2.1777-0.1621,3.8716v6.0898c0,2.1372,0.041,3.186,0.1621,3.9922
			c-1.3711-0.0806-2.3398-0.1206-3.832-0.1206h-2.0957c2.8223,1.2905,5.5645,1.8955,10.4043,2.3794
			c-0.7656,1.0889-1.3711,2.1777-1.9355,3.5488c-2.9844-0.4033-4.3145-0.6855-6.7344-1.4116s-3.6309-1.25-6.1724-2.5405
			l2.0571-1.9761h-10.5654l2.2583,1.9355c-4.3555,2.0166-6.9771,2.7827-12.502,3.5894c-0.6855-1.4922-1.1294-2.2583-2.2988-3.6699
			c4.5977-0.2822,7.9854-0.8872,10.4453-1.855H363.4819z M370.3779,445.6406c0-1.0483-0.04-1.8955-0.1611-2.7422h4.5171
			c-0.1211,0.8467-0.1621,1.7344-0.1621,2.7827v1.3711h4.0747c1.1289-1.4517,1.6523-2.2583,2.5-3.9521l3.791,1.4116
			c-0.9688,1.4517-1.25,1.8145-1.8965,2.5405h2.7031c1.6133,0,2.8633-0.04,3.75-0.1611c-0.1211,1.1694-0.1602,2.0972-0.1602,3.5488
			v2.0166c0,0.9678,0.0391,1.6128,0.1602,2.5h-3.9922v-4.7183h-25.6499v4.7183h-3.9922c0.1206-1.0078,0.1611-1.7339,0.1611-2.6211
			v-2.1377c0-1.3306-0.0405-2.0566-0.1611-3.3066c1.2095,0.1211,2.1372,0.1611,3.9521,0.1611h2.3794
			c-0.6455-0.9277-0.9678-1.3306-2.0972-2.46l3.791-1.25c1.0889,1.2905,1.3711,1.7339,2.5811,3.71h3.9116V445.6406z
			 M383.2832,456.1265c0,0.8872,0.041,1.6533,0.082,2.46c-1.332-0.0806-1.6133-0.0806-3.5098-0.0806H365.458
			c-1.3311,0-2.2583,0.04-3.5088,0.1206c0.0806-0.7256,0.1211-1.4111,0.1211-2.46v-2.3794c0-1.1289-0.0405-1.8149-0.1211-2.4194
			c1.21,0.0806,2.2988,0.1206,3.7505,0.1206h13.9546c1.4512,0,2.6211-0.04,3.75-0.1206c-0.0801,0.8062-0.1211,1.5728-0.1211,2.46
			V456.1265z M363.522,463.5869h18.23v-1.25h-18.23V463.5869z M363.522,467.1763h18.23v-1.2905h-18.23V467.1763z M363.522,470.8062
			h18.23v-1.3311h-18.23V470.8062z M365.9014,454.1099v1.7744h13.5107v-1.7744H365.9014z"/>
		<path d="M427.5654,449.7544c1.8145,0,2.8223-0.0405,3.75-0.2017v4.3149c-1.0479-0.1611-2.5811-0.2417-4.5166-0.2417h-5.6865
			c0.4033,6.896,1.21,11.4131,2.7422,14.9214c0.7266,1.7744,1.5332,3.0249,2.3398,3.8716c0.4033,0.4438,0.7656,0.6855,0.8867,0.6855
			c0.4434,0,0.9277-1.8955,1.4111-5.9282c1.6133,1.1294,2.2988,1.5327,3.6699,2.1777c-0.5645,3.7104-1.25,5.8882-2.2178,7.2998
			c-0.7256,1.0483-1.6533,1.6128-2.6611,1.6128c-1.4521,0-3.4688-1.4517-5.1221-3.7505c-1.9766-2.7827-3.4277-6.6943-4.3154-11.6548
			c-0.5645-3.1055-0.6045-3.8315-0.9277-9.2354h-15.4863c-1.7334,0-3.1045,0.0806-4.5166,0.2417v-4.3555
			c1.21,0.1616,2.6221,0.2422,4.5166,0.2422h15.3252c-0.04-0.5244-0.04-0.5244-0.0801-1.8149c0-0.0806,0-0.605-0.041-1.3711
			c0-0.9678-0.0801-2.3389-0.2012-3.0249h4.6777c-0.1211,0.9683-0.2012,2.1377-0.2012,3.2266c0,0.2017,0.04,1.1694,0.0801,2.9844
			h4.5576c-1.0488-1.7344-1.9766-2.8232-3.6699-4.5571l3.3467-1.6133c1.6543,1.6533,2.1777,2.2183,3.832,4.396l-3.1055,1.7744
			H427.5654z M402.1982,462.1758c-1.4521,0-2.8633,0.0806-3.8711,0.1611v-4.0732c0.9268,0.1211,2.2988,0.2017,3.9521,0.2017h9.3965
			c1.6533,0,2.9844-0.0806,3.9121-0.2017v4.0732c-1.0488-0.0806-2.4199-0.1611-3.8721-0.1611h-2.7021v8.7915
			c2.8633-0.5645,4.3154-0.8872,7.9453-1.8149v3.9521c-6.5332,1.6133-12.543,2.8232-17.8252,3.6299
			c-0.4033,0.04-0.7666,0.1206-1.4121,0.2417l-0.7256-4.3955c1.6133,0,3.3877-0.1616,7.7432-0.8472v-9.5576H402.1982z"/>
	</g>
	<g>
		<path d="M244.0269,630.334c0,2.46,0.1211,9.0332,0.2017,10.9287c0,0.0811,0,0.1611,0,0.2021c0,0.3623-0.0806,0.6445-0.2822,0.7656
			c-0.2822,0.2422-1.8955,0.4443-3.3877,0.4443c-1.2905,0-1.5327-0.1211-1.5327-0.9277c0-0.041,0-0.0811,0-0.1611
			c0.0806-1.0488,0.2017-12.6641,0.2017-17.4629c0-9.2754-0.0806-11.8965-0.4434-14.2363c2.9033,0.2021,4.1938,0.3232,5.3638,0.5654
			c0.4033,0.1201,0.605,0.3223,0.605,0.6445c0,0.2021,0,0.2021-0.1616,0.8877c-0.1611,0.4834-0.2417,1.0488-0.2822,1.6934
			c0,0.0811-0.0806,2.501-0.2017,7.2598c2.8633,0.8066,2.8633,0.8066,4.5166,1.4111c4.0332,1.4111,6.332,2.46,9.9209,4.3555
			c0.3228,0.2422,0.4844,0.4434,0.4844,0.6855c0,0.4033-0.7261,2.3389-1.3716,3.5488c-0.3223,0.6855-0.5239,0.8877-0.7661,0.8877
			c-0.1611,0-0.3628-0.0811-0.645-0.2822c-3.9526-2.6221-8.1064-4.5576-12.2197-5.7676V630.334z"/>
		<path d="M285.2427,623.8809c7.3794,0,11.6138-0.0801,15.688-0.3623c0.1211,0,0.3633,0,0.5234,0
			c1.2109,0,1.2109,0.04,1.2109,3.2666c0,1.6533-0.1211,1.9355-0.8066,1.9355c0,0-0.1211,0-0.1621,0
			c-2.6621-0.1211-4.1543-0.1211-15.8081-0.1211c-4.2749,0-6.4126,0.04-10.1226,0.1611c-0.2822,0-0.605,0-1.1699,0
			c-1.2905,0-1.4917,0.041-2.2583,0.1611c-0.2017,0-0.3628,0.041-0.4434,0.041c-0.4438,0-0.7261-0.2021-0.8066-0.5645
			c-0.2422-1.0088-0.4033-3.0654-0.4033-4.9209C273.9507,623.8008,276.814,623.8809,285.2427,623.8809z"/>
		<path d="M326.0156,619.2842c-2.7832,3.71-7.542,8.1455-8.7109,8.1455c-0.3633,0-0.5244-0.0801-1.3311-0.7656
			c-0.6045-0.5244-1.6533-1.25-2.9844-2.0166c2.8633-1.5732,5.8076-3.9521,8.0254-6.6143c2.3799-2.7822,3.791-5.1211,5.2021-8.6699
			c1.9766,0.6445,3.0254,1.0889,4.3555,1.8545c0.5654,0.3232,0.7666,0.5244,0.7666,0.8877c0,0.3223-0.1211,0.5244-0.4844,0.8066
			c-0.4023,0.2822-0.8057,0.8066-1.8545,2.2178l6.0088,0.04c2.1777,0,2.5811-0.04,3.791-0.4834
			c0.1611-0.041,0.2822-0.0811,0.4434-0.0811c0.6455,0,1.3311,0.6055,2.501,2.0977c0.7656,1.0078,0.9678,1.3711,0.9678,1.8145
			s-0.1211,0.6455-0.6855,1.21c-0.3232,0.3623-0.8477,1.1289-1.251,1.8145c-4.3555,7.8643-8.5488,12.8242-14.9619,17.624
			c-2.7822,2.0967-6.4521,4.2344-7.2188,4.2344c-0.3223,0-0.6045-0.1611-0.9678-0.5645c-0.6855-0.7266-1.7744-1.4922-3.3467-2.3389
			c5.8877-2.8232,10.001-5.6465,14.0342-9.7197c2.8633-2.9033,4.8799-5.6455,6.6543-8.9932c0.3623-0.6855,0.6045-1.21,1.25-2.541
			L326.0156,619.2842z"/>
		<path d="M364.4893,627.2686c-0.5645,0.8877-0.7266,1.0488-1.0488,1.0488c-0.2822,0-0.2822,0-2.0166-1.1699
			c-1.4111-0.9268-3.1855-1.7744-6.0898-2.7822c-0.6445-0.2422-0.8467-0.4033-0.8467-0.6855c0-0.2021,0.3232-0.8877,0.9678-1.9766
			c0.1621-0.3223,0.3232-0.5645,0.4033-0.7656c0.4443-0.8066,0.6455-1.0488,0.9678-1.0488c0.6865,0,3.7109,1.1289,5.8887,2.1777
			c1.21,0.6045,2.7422,1.4922,3.0645,1.7344c0.1211,0.1611,0.2021,0.2822,0.2021,0.4834
			C365.9814,624.6875,365.417,625.7764,364.4893,627.2686z M385.2588,622.6709c0.1611,0.4033,0.2012,0.6455,0.2012,0.8877
			c0,0.5244-0.2012,0.8467-0.9678,1.6934c-3.3477,3.7109-6.7754,6.7354-10.8887,9.5176c-3.5088,2.3799-7.542,4.5176-11.4531,6.1709
			c-1.1699,0.4834-1.5332,0.6855-1.9766,1.0889c-0.3633,0.2822-0.4834,0.3623-0.6855,0.3623c-0.7666,0-2.1377-2.2178-3.3477-5.4033
			c3.9121-0.6855,8.5098-2.5811,13.1875-5.4043c2.9043-1.7344,6.3721-4.3555,8.873-6.6943
			c2.2178-2.0566,3.4678-3.5898,5.8066-6.8564C384.25,619.9287,384.4111,620.4531,385.2588,622.6709z M368.3604,619.3643
			c-0.5244,0.6455-0.7256,0.8066-1.0078,0.8066c-0.1611,0-0.3633-0.0811-0.6055-0.3223c-2.5-2.1777-4.8789-3.7109-7.46-4.7188
			c-0.4033-0.1611-0.5654-0.3223-0.5654-0.5645c0-0.1611,0.041-0.2822,0.2422-0.6055c1.9355-2.9434,2.0166-3.0645,2.46-3.0645
			c0.8066,0,4.1543,1.6133,6.4531,3.1455c1.9355,1.29,2.3789,1.6533,2.3789,2.0566
			C370.2559,616.541,369.3281,618.1543,368.3604,619.3643z"/>
		<path d="M416.3936,632.1885c-1.0088-0.04-1.8555-0.04-2.501-0.04c-4.8389,0-9.1943,0.1211-10.6865,0.2822
			c-0.6055,0.0811-1.0088,0.1211-1.1299,0.1211c-0.5645,0-0.6455-0.2422-0.8867-4.4365c1.8955,0.1621,4.4355,0.2422,9.5576,0.2422
			c0.8877,0,4.6777,0,5.6465-0.04v-4.1543h-3.3477c-3.71,0-6.9766,0.041-8.8721,0.1621c-0.8477,0.04-1.3711,0.0801-1.5732,0.0801
			c-0.4434,0-0.5244,0-0.8467,0.0811c-0.2021,0.04-0.3633,0.04-0.4844,0.04c-0.3623,0-0.5244-0.1211-0.6045-0.3633
			c-0.1211-0.5234-0.2422-1.8145-0.3633-3.9922c2.0566,0.2422,4.2754,0.2822,12.2197,0.2822c4.5166,0,6.0498-0.04,8.1865-0.1211
			c-0.1211,2.3799-0.1211,5.001-0.1211,10.4453c0,2.9033,0.0811,9.1143,0.1621,10.8887c0,0.0811,0.04,0.2021,0.04,0.2422
			c0,0.3223-0.1211,0.5645-0.3232,0.6455c-0.2012,0.1211-1.4912,0.2012-2.6211,0.2012c-1.4922,0-1.4922-0.04-1.4922-1.0488
			c0-0.04,0-0.1201,0-0.3223v-0.8066c-1.4111-0.04-2.46-0.04-3.1855-0.04c-6.291,0-10.9297,0.1611-12.2197,0.3633
			c-0.1211,0.04-0.2021,0.04-0.2422,0.04c-0.6455,0-0.6855-0.2422-0.9277-4.3965c1.8154,0.1621,4.7998,0.2422,9.5586,0.2422
			c0.8467,0,6.0889-0.04,7.0576-0.04V632.1885z"/>
		<path d="M450.5918,623.8809c7.3799,0,11.6143-0.0801,15.6875-0.3623c0.1211,0,0.3633,0,0.5244,0c1.21,0,1.21,0.04,1.21,3.2666
			c0,1.6533-0.1211,1.9355-0.8066,1.9355c0,0-0.1211,0-0.1611,0c-2.6621-0.1211-4.1543-0.1211-15.8086-0.1211
			c-4.2754,0-6.4121,0.04-10.123,0.1611c-0.2822,0-0.6045,0-1.1689,0c-1.291,0-1.4922,0.041-2.2588,0.1611
			c-0.2012,0-0.3633,0.041-0.4434,0.041c-0.4434,0-0.7256-0.2021-0.8066-0.5645c-0.2422-1.0088-0.4033-3.0654-0.4033-4.9209
			C439.2998,623.8008,442.1631,623.8809,450.5918,623.8809z"/>
		<path d="M474.1436,626.2207c0-10.6875,8.6709-19.3184,19.3174-19.3184c10.6875,0,19.3174,8.6309,19.3174,19.3184
			c0,5.1211-2.0967,10.2031-5.6455,13.6709c-3.751,3.6299-8.5898,5.6465-13.6719,5.6465
			C482.8145,645.5381,474.1436,636.8672,474.1436,626.2207z M493.502,643.8438c9.7188,0,17.623-7.9043,17.623-17.6641
			c0-9.7188-7.9043-17.623-17.623-17.623c-9.7598,0-17.6641,7.9043-17.6641,17.623
			C475.8379,635.9395,483.7422,643.8438,493.502,643.8438z M495.5986,613.7988v24.8428h-4.2344v-24.8428H495.5986z"/>
	</g>
	<g>
		<path d="M244.0269,963.1416c0,2.46,0.1211,9.0332,0.2017,10.9287c0,0.0811,0,0.1611,0,0.2021
			c0,0.3623-0.0806,0.6445-0.2822,0.7656c-0.2822,0.2422-1.8955,0.4443-3.3877,0.4443c-1.2905,0-1.5327-0.1211-1.5327-0.9277
			c0-0.041,0-0.0811,0-0.1611c0.0806-1.0488,0.2017-12.6641,0.2017-17.4629c0-9.2754-0.0806-11.8965-0.4434-14.2363
			c2.9033,0.2021,4.1938,0.3232,5.3638,0.5654c0.4033,0.1201,0.605,0.3223,0.605,0.6445c0,0.2021,0,0.2021-0.1616,0.8877
			c-0.1611,0.4834-0.2417,1.0488-0.2822,1.6934c0,0.0811-0.0806,2.501-0.2017,7.2598c2.8633,0.8066,2.8633,0.8066,4.5166,1.4111
			c4.0332,1.4111,6.332,2.46,9.9209,4.3555c0.3228,0.2422,0.4844,0.4434,0.4844,0.6855c0,0.4033-0.7261,2.3389-1.3716,3.5488
			c-0.3223,0.6855-0.5239,0.8877-0.7661,0.8877c-0.1611,0-0.3628-0.0811-0.645-0.2822c-3.9526-2.6221-8.1064-4.5576-12.2197-5.7676
			V963.1416z"/>
		<path d="M285.2427,956.6885c7.3794,0,11.6138-0.0801,15.688-0.3623c0.1211,0,0.3633,0,0.5234,0
			c1.2109,0,1.2109,0.04,1.2109,3.2666c0,1.6533-0.1211,1.9355-0.8066,1.9355c0,0-0.1211,0-0.1621,0
			c-2.6621-0.1211-4.1543-0.1211-15.8081-0.1211c-4.2749,0-6.4126,0.04-10.1226,0.1611c-0.2822,0-0.605,0-1.1699,0
			c-1.2905,0-1.4917,0.041-2.2583,0.1611c-0.2017,0-0.3628,0.041-0.4434,0.041c-0.4438,0-0.7261-0.2021-0.8066-0.5645
			c-0.2422-1.0088-0.4033-3.0654-0.4033-4.9209C273.9507,956.6084,276.814,956.6885,285.2427,956.6885z"/>
		<path d="M326.0156,952.0918c-2.7832,3.71-7.542,8.1455-8.7109,8.1455c-0.3633,0-0.5244-0.0801-1.3311-0.7656
			c-0.6045-0.5244-1.6533-1.25-2.9844-2.0166c2.8633-1.5732,5.8076-3.9521,8.0254-6.6143c2.3799-2.7822,3.791-5.1211,5.2021-8.6699
			c1.9766,0.6445,3.0254,1.0889,4.3555,1.8545c0.5654,0.3232,0.7666,0.5244,0.7666,0.8877c0,0.3223-0.1211,0.5244-0.4844,0.8066
			c-0.4023,0.2822-0.8057,0.8066-1.8545,2.2178l6.0088,0.04c2.1777,0,2.5811-0.04,3.791-0.4834
			c0.1611-0.041,0.2822-0.0811,0.4434-0.0811c0.6455,0,1.3311,0.6055,2.501,2.0977c0.7656,1.0078,0.9678,1.3711,0.9678,1.8145
			s-0.1211,0.6455-0.6855,1.21c-0.3232,0.3623-0.8477,1.1289-1.251,1.8145c-4.3555,7.8643-8.5488,12.8242-14.9619,17.624
			c-2.7822,2.0967-6.4521,4.2344-7.2188,4.2344c-0.3223,0-0.6045-0.1611-0.9678-0.5645c-0.6855-0.7266-1.7744-1.4922-3.3467-2.3389
			c5.8877-2.8232,10.001-5.6465,14.0342-9.7197c2.8633-2.9033,4.8799-5.6455,6.6543-8.9932c0.3623-0.6855,0.6045-1.21,1.25-2.541
			L326.0156,952.0918z"/>
		<path d="M364.4893,960.0762c-0.5645,0.8877-0.7266,1.0488-1.0488,1.0488c-0.2822,0-0.2822,0-2.0166-1.1699
			c-1.4111-0.9268-3.1855-1.7744-6.0898-2.7822c-0.6445-0.2422-0.8467-0.4033-0.8467-0.6855c0-0.2021,0.3232-0.8877,0.9678-1.9766
			c0.1621-0.3223,0.3232-0.5645,0.4033-0.7656c0.4443-0.8066,0.6455-1.0488,0.9678-1.0488c0.6865,0,3.7109,1.1289,5.8887,2.1777
			c1.21,0.6045,2.7422,1.4922,3.0645,1.7344c0.1211,0.1611,0.2021,0.2822,0.2021,0.4834
			C365.9814,957.4951,365.417,958.584,364.4893,960.0762z M385.2588,955.4785c0.1611,0.4033,0.2012,0.6455,0.2012,0.8877
			c0,0.5244-0.2012,0.8467-0.9678,1.6934c-3.3477,3.7109-6.7754,6.7354-10.8887,9.5176c-3.5088,2.3799-7.542,4.5176-11.4531,6.1709
			c-1.1699,0.4834-1.5332,0.6855-1.9766,1.0889c-0.3633,0.2822-0.4834,0.3623-0.6855,0.3623c-0.7666,0-2.1377-2.2178-3.3477-5.4033
			c3.9121-0.6855,8.5098-2.5811,13.1875-5.4043c2.9043-1.7344,6.3721-4.3555,8.873-6.6943
			c2.2178-2.0566,3.4678-3.5898,5.8066-6.8564C384.25,952.7363,384.4111,953.2607,385.2588,955.4785z M368.3604,952.1719
			c-0.5244,0.6455-0.7256,0.8066-1.0078,0.8066c-0.1611,0-0.3633-0.0811-0.6055-0.3223c-2.5-2.1777-4.8789-3.7109-7.46-4.7188
			c-0.4033-0.1611-0.5654-0.3223-0.5654-0.5645c0-0.1611,0.041-0.2822,0.2422-0.6055c1.9355-2.9434,2.0166-3.0645,2.46-3.0645
			c0.8066,0,4.1543,1.6133,6.4531,3.1455c1.9355,1.29,2.3789,1.6533,2.3789,2.0566
			C370.2559,949.3486,369.3281,950.9619,368.3604,952.1719z"/>
		<path d="M416.3936,964.9961c-1.0088-0.04-1.8555-0.04-2.501-0.04c-4.8389,0-9.1943,0.1211-10.6865,0.2822
			c-0.6055,0.0811-1.0088,0.1211-1.1299,0.1211c-0.5645,0-0.6455-0.2422-0.8867-4.4365c1.8955,0.1621,4.4355,0.2422,9.5576,0.2422
			c0.8877,0,4.6777,0,5.6465-0.04v-4.1543h-3.3477c-3.71,0-6.9766,0.041-8.8721,0.1621c-0.8477,0.04-1.3711,0.0801-1.5732,0.0801
			c-0.4434,0-0.5244,0-0.8467,0.0811c-0.2021,0.04-0.3633,0.04-0.4844,0.04c-0.3623,0-0.5244-0.1211-0.6045-0.3633
			c-0.1211-0.5234-0.2422-1.8145-0.3633-3.9922c2.0566,0.2422,4.2754,0.2822,12.2197,0.2822c4.5166,0,6.0498-0.04,8.1865-0.1211
			c-0.1211,2.3799-0.1211,5.001-0.1211,10.4453c0,2.9033,0.0811,9.1143,0.1621,10.8887c0,0.0811,0.04,0.2021,0.04,0.2422
			c0,0.3223-0.1211,0.5645-0.3232,0.6455c-0.2012,0.1211-1.4912,0.2012-2.6211,0.2012c-1.4922,0-1.4922-0.04-1.4922-1.0488
			c0-0.04,0-0.1201,0-0.3223v-0.8066c-1.4111-0.04-2.46-0.04-3.1855-0.04c-6.291,0-10.9297,0.1611-12.2197,0.3633
			c-0.1211,0.04-0.2021,0.04-0.2422,0.04c-0.6455,0-0.6855-0.2422-0.9277-4.3965c1.8154,0.1621,4.7998,0.2422,9.5586,0.2422
			c0.8467,0,6.0889-0.04,7.0576-0.04V964.9961z"/>
		<path d="M450.5918,956.6885c7.3799,0,11.6143-0.0801,15.6875-0.3623c0.1211,0,0.3633,0,0.5244,0c1.21,0,1.21,0.04,1.21,3.2666
			c0,1.6533-0.1211,1.9355-0.8066,1.9355c0,0-0.1211,0-0.1611,0c-2.6621-0.1211-4.1543-0.1211-15.8086-0.1211
			c-4.2754,0-6.4121,0.04-10.123,0.1611c-0.2822,0-0.6045,0-1.1689,0c-1.291,0-1.4922,0.041-2.2588,0.1611
			c-0.2012,0-0.3633,0.041-0.4434,0.041c-0.4434,0-0.7256-0.2021-0.8066-0.5645c-0.2422-1.0088-0.4033-3.0654-0.4033-4.9209
			C439.2998,956.6084,442.1631,956.6885,450.5918,956.6885z"/>
		<path d="M474.1436,959.0283c0-10.6875,8.6709-19.3184,19.3174-19.3184c10.6875,0,19.3174,8.6309,19.3174,19.3184
			c0,5.1211-2.0967,10.2031-5.6455,13.6709c-3.751,3.6299-8.5898,5.6465-13.6719,5.6465
			C482.8145,978.3457,474.1436,969.6748,474.1436,959.0283z M493.502,976.6514c9.7188,0,17.623-7.9043,17.623-17.6641
			c0-9.7188-7.9043-17.623-17.623-17.623c-9.7598,0-17.6641,7.9043-17.6641,17.623
			C475.8379,968.7471,483.7422,976.6514,493.502,976.6514z M501.2041,971.207h-15.6875v-3.2666
			c0.9678-1.8955,2.0166-3.4277,3.5889-5.2021c1.25-1.3711,1.9365-2.0166,5.4043-5.001c1.8955-1.6133,2.6211-2.9443,2.6211-4.6377
			c0-2.2178-1.4512-3.751-3.5889-3.751c-1.5322,0-2.7021,0.7266-3.4688,2.1377c-0.4033,0.7256-0.6045,1.4922-0.8867,3.4277
			l-3.8311-0.9678c0.4033-2.46,0.9277-3.8311,1.9756-5.2021c1.4121-1.8145,3.5898-2.7832,6.251-2.7832
			c4.6787,0,7.7832,2.8633,7.7832,7.2598c0,2.2578-0.6855,3.9521-2.2178,5.5244c-0.9277,0.9688-1.1689,1.1699-4.0732,3.3877
			c-2.1777,1.6543-4.0732,3.7109-5.2422,5.5654h11.3721V971.207z"/>
	</g>
	<g>
	</g>
	<g>
		<path d="M331.8643,793.0566c-0.8872,1.21-1.3311,1.8955-2.0972,3.3877c-1.5728-1.6943-2.5005-2.9443-3.5488-4.5977
			c-0.8472,1.7344-2.0972,3.6299-3.4683,5.2422c-1.1294-1.25-1.4521-1.5723-2.3794-2.2578c-0.1616,2.8232-0.605,5.8477-1.21,8.5088
			c-0.6855,2.8232-1.4116,4.6787-2.7021,7.0176c-1.0483-1.3711-1.9761-2.3389-3.3877-3.5088
			c2.541-4.0732,3.4282-10.042,3.4282-23.0674c0-0.7666,0-1.5732-0.0405-2.1377c0-1.6533-0.04-2.46-0.1611-3.6299
			c1.7339,0.1611,2.8633,0.2021,4.6377,0.2021h9.4771v-1.0889c0-0.8877-0.04-1.4922-0.2017-2.2188h4.6382
			c-0.1616,0.6455-0.2017,1.291-0.2017,2.2588v1.0488h9.6787c1.6938,0,3.4277-0.0811,4.6377-0.2422v4.3154
			c-0.9678-0.1211-2.46-0.2021-4.1133-0.2021h-24.1572c0,5.4043-0.0806,8.4287-0.2822,11.8975
			c1.5728-1.7344,2.4199-3.0654,3.186-5.041c0.7261-1.8955,1.1294-3.6699,1.2905-5.8076l3.9121,0.4834
			c-0.5649,2.2988-0.9277,3.7109-1.1699,4.4766c1.1294,2.0166,1.936,2.9443,4.2349,4.8799v-6.1299
			c0-2.1377-0.0405-2.8232-0.2017-3.8311h4.436c-0.1211,0.9277-0.1611,1.6133-0.1611,3.8311v7.1387
			c1.6128-1.8555,2.5-3.3477,3.3872-5.7266c0.8066-2.1377,1.1294-3.5898,1.21-5.2031l4.0332,0.4844
			c-0.2017,0.7656-0.2017,0.7656-0.7261,2.7021c-0.1611,0.6855-0.3228,1.21-0.5645,1.9355c1.6533,2.541,2.9844,3.751,5.686,5.3633
			c-0.9272,1.0488-1.6533,2.0977-2.2988,3.4688c-2.1777-1.7344-3.3472-2.9844-4.7988-5.1221
			c-0.9277,1.9766-1.6938,3.1455-3.3071,5.1221c-0.8467-0.8877-1.6938-1.6133-2.6211-2.2988v3.3877h7.4604
			c1.7344,0,2.5811-0.04,3.5894-0.1611v3.9521c-1.0083-0.1211-1.6533-0.1611-3.5894-0.1611h-7.4604v3.9922h9.4771
			c1.7744,0,2.7422-0.04,3.8311-0.2021v4.2354c-1.2905-0.1621-2.9033-0.2422-4.5972-0.2422h-20.6079
			c-1.6133,0-3.1055,0.0801-4.5171,0.2422v-4.1943c1.0083,0.1211,1.7344,0.1611,3.791,0.1611h8.5498v-3.9922h-6.4932
			c-2.0161,0-2.46,0-3.5083,0.1611v-3.9521c1.0078,0.1211,1.6128,0.1611,3.5083,0.1611h6.4932V793.0566z"/>
		<path d="M354.8916,781.4014c0.8872,0.1611,1.6538,0.2021,3.1055,0.2021h7.582c1.5728,0,2.1372-0.041,3.105-0.1621v3.9521
			c-0.7661-0.0801-1.3711-0.1201-2.9438-0.1201h-7.7432c-1.3306,0-2.2183,0.04-3.1055,0.1611V781.4014z M381.3477,790.7979
			c-0.1211,0.6855-0.1602,1.3711-0.1602,2.1777c0,3.8311,0.8457,6.6143,2.6602,8.832c1.8164,2.2178,4.2344,3.8721,7.3809,5.082
			c-1.0078,1.4111-1.4121,2.1777-2.2188,4.1133c-4.5977-2.2988-7.7031-5.4043-9.6387-9.6387
			c-1.6133,4.6377-4.4771,7.4609-9.7998,9.7188c-0.5645-1.4512-1.1694-2.5811-1.855-3.5078
			c0.0405,1.209,0.0806,1.7744,0.1611,2.6211h-3.8716v-1.5732h-3.8711v2.0166h-3.9526c0.1211-1.1289,0.2017-2.5,0.2017-3.75v-6.0098
			c0-1.1689-0.04-1.9355-0.1611-2.9844c0.7661,0.0811,1.4116,0.1211,2.5811,0.1211h6.6543c1.25,0,1.7339-0.04,2.2988-0.1211
			c-0.0405,0.6455-0.0811,1.3711-0.0811,2.7832v5.7266c0,0.2822,0,0.4434,0,0.8467c1.6938-0.6045,2.0166-0.7256,2.9844-1.29
			c4.5581-2.541,6.4531-6.292,6.4531-12.8252c0-0.9678-0.041-1.6533-0.1211-2.3389H381.3477z M356.4243,775.9971
			c0.8872,0.1211,1.5728,0.1621,3.1455,0.1621h4.9204c1.5322,0,2.2583-0.041,3.1455-0.1621v3.7109
			c-1.1294-0.0811-1.7344-0.1211-3.1455-0.1211h-4.9204c-1.3306,0-2.2178,0.04-3.1455,0.1211V775.9971z M356.4243,787.1689
			c0.6855,0.0801,1.21,0.1201,2.46,0.1201h6.3315c1.2905,0,1.7744-0.04,2.3794-0.1201v3.6289
			c-0.7256-0.0801-1.2905-0.1211-2.3794-0.1211h-6.3315c-1.21,0-1.6938,0.041-2.46,0.1211V787.1689z M356.4243,792.6133
			c0.6855,0.0801,1.25,0.1201,2.46,0.1201h6.3315c1.21,0,1.7744-0.04,2.3794-0.1201v3.6289c-0.6855-0.0801-1.25-0.1211-2.46-0.1211
			h-6.291c-1.1294,0-1.6938,0.041-2.4199,0.1211V792.6133z M360.0537,805.3164h3.9927v-4.1543h-3.9927V805.3164z M381.3887,775.2715
			c-0.1211,0.7256-0.1621,1.5732-0.1621,2.2588c0,1.9756,0.4043,4.3145,0.9688,5.5244c0.7246,1.6533,1.8945,3.0654,3.6289,4.3555
			c1.3711,1.0088,2.5,1.5732,4.9199,2.4199c-1.0488,1.4922-1.4512,2.2178-2.1367,3.8311c-2.9043-1.3711-4.7188-2.7021-6.5742-4.7588
			c-1.291-1.3711-1.4922-1.7334-2.7012-4.1133c-0.6465,1.7344-1.5332,3.1855-2.6621,4.4766
			c-1.6548,1.8555-3.3071,2.9844-6.4531,4.3955c-0.7261-1.5723-1.2505-2.3389-2.2583-3.5088
			c3.7505-1.209,5.9277-2.7012,7.541-5.2822c1.1704-1.9365,1.6938-4.1543,1.6938-7.4609c0-0.8467-0.0391-1.3311-0.1211-2.1377
			H381.3887z M374.814,795.0322c-1.0078,3.4688-1.4922,4.7588-2.7422,6.8154l-3.5894-1.6123
			c1.3711-1.9365,2.0571-3.6299,2.5811-6.3721L374.814,795.0322z M375.1362,777.9736c-0.8066,3.0645-1.3301,4.4365-2.5806,6.6943
			l-3.6294-1.4521c1.3711-2.2178,1.855-3.5078,2.3389-6.1299L375.1362,777.9736z M390.0996,778.0947
			c-1.5332,2.9844-2.4609,4.3955-4.3164,6.6543c-1.2891-1.0488-1.8535-1.3711-3.3066-2.0166
			c1.8965-2.1377,2.7031-3.3877,3.873-6.1299L390.0996,778.0947z M389.9785,794.9922c-1.4512,3.1055-2.1777,4.2744-3.9531,6.5332
			c-1.4512-1.1289-1.5723-1.21-3.2656-2.0166c1.6523-2.0166,2.5-3.4277,3.5078-6.0488L389.9785,794.9922z"/>
		<path d="M404.2959,787.6924c-2.5811,1.6133-3.4688,2.0977-6.2109,3.3477c-0.6855-1.5732-1.291-2.6211-2.2588-3.9922
			c4.1133-1.6133,6.8154-3.1055,9.7197-5.3643c2.5811-1.9756,4.5166-4.0732,6.1299-6.5332h4.5566
			c2.0566,2.8633,3.6299,4.3955,6.5742,6.4531c3.2666,2.3389,6.4521,3.9922,9.9609,5.2422
			c-1.0889,1.6533-1.6133,2.7422-2.1777,4.3555c-2.4199-1.0488-3.9121-1.8545-6.5732-3.5488v3.0244
			c-1.0488-0.1211-2.0166-0.1611-3.4688-0.1611h-12.9453c-1.0889,0-2.2588,0.04-3.3066,0.1611V787.6924z M402.1582,797.6543
			c-2.0166,0-3.3076,0.0801-4.5576,0.2412v-4.4766c1.21,0.1211,2.7422,0.2021,4.5576,0.2021h24.0762
			c1.9355,0,3.2666-0.0811,4.5566-0.2021v4.4766c-1.29-0.1611-2.5811-0.2412-4.5566-0.2412h-13.2686
			c-1.29,2.9434-2.5,5.2021-4.0322,7.501c6.6943-0.3633,6.6943-0.3633,12.2598-0.9678c-1.25-1.3711-1.9355-2.0977-4.0732-4.2754
			l3.8311-1.6934c4.1543,4.1943,5.8477,6.1699,8.9531,10.2832l-3.751,2.4609c-1.0889-1.6543-1.4111-2.1377-2.2988-3.3477
			c-3.2256,0.4033-5.5244,0.6855-6.9766,0.8066c-4.0332,0.4033-11.373,1.0889-13.0264,1.21
			c-2.1777,0.1211-4.1133,0.3223-5.001,0.5244l-0.6045-4.7188c1.1699,0.0801,1.6533,0.1211,2.1777,0.1211
			c0.3223,0,1.4922-0.041,3.4688-0.1611c1.8945-2.9043,3.1045-5.2031,4.1133-7.7432H402.1582z M420.5078,786.4824
			c0.5244,0,0.8867,0,1.6934-0.04c-3.5088-2.3389-5.7666-4.4355-8.1055-7.541c-2.0166,2.7422-4.3555,4.96-8.0254,7.541
			c0.6445,0.04,0.9678,0.04,1.5723,0.04H420.5078z"/>
	</g>
	<g>
		<path d="M340.2959,1135.7412c0,2.2988,0.0405,3.5898,0.2422,4.7188h-4.5571c0.1611-1.21,0.2422-2.3389,0.2422-4.7988v-25.4473
			c0-2.0166-0.0405-3.0654-0.1616-4.3555c1.0889,0.1211,2.0566,0.1611,3.9521,0.1611h6.8965c2.0566,0,2.9438-0.04,3.9922-0.1611
			c-0.0806,1.0479-0.1206,2.1367-0.1206,3.5889v6.0088c0,1.8555,0,2.6221,0.0806,3.4688c-1.0083-0.041-2.0972-0.0811-3.5488-0.0811
			h-7.0176V1135.7412z M340.2959,1111.0605h6.6948v-1.9355h-6.6948V1111.0605z M340.2959,1115.8193h6.6948v-1.9355h-6.6948
			V1115.8193z M345.8613,1125.9014c-1.4111,0-2.46,0.04-3.5083,0.1611v-3.8711c1.0889,0.1211,1.9761,0.1611,3.71,0.1611h7.7031
			c-0.0405-1.21-0.0811-1.7744-0.2422-2.5811h4.1538c-0.1611,0.7666-0.2017,1.25-0.2017,2.5811h1.3311
			c1.6938,0,2.6211-0.04,3.71-0.1611v3.8711c-1.0483-0.1211-2.1372-0.1611-3.5083-0.1611h-1.4922l0.0806,9.3965
			c0.0405,3.0654-1.0483,3.9121-5.001,3.9121c-0.645,0-1.6938-0.04-2.9438-0.1211c-0.1611-1.4922-0.3628-2.2178-0.9277-3.9121
			c1.2905,0.2422,2.4604,0.3633,3.7104,0.3633c1.1294,0,1.4116-0.2422,1.4116-1.21l-0.0806-7.0977
			c-2.4604,3.9121-5.3638,6.6543-10.2842,9.8398c-0.8066-1.3711-1.1694-1.8955-2.5-3.3066
			c4.2744-2.2178,7.4204-4.7188,9.6382-7.8643H345.8613z M368.7681,1135.8223c0,3.4688-1.0083,4.2344-5.5249,4.2344
			c-0.605,0-0.7261,0-2.5811-0.0801c-0.2822-1.7744-0.5244-2.7832-1.0889-4.1143c1.3711,0.2422,2.5811,0.3232,3.7104,0.3232
			c1.1694,0,1.4111-0.1611,1.4111-1.0488v-16.293h-7.4204c-1.3306,0-2.3794,0.04-3.5488,0.0811
			c0.1211-1.291,0.1211-1.6943,0.1211-3.4688v-6.0088c0-1.3711-0.0405-2.46-0.1211-3.5889
			c1.0483,0.1211,1.9761,0.1611,3.9521,0.1611h7.2593c1.9355,0,2.9038-0.04,3.9927-0.1611
			c-0.1211,1.3711-0.1616,2.3789-0.1616,4.3145V1135.8223z M357.6777,1111.0605h7.0171v-1.9355h-7.0171V1111.0605z
			 M357.6777,1115.8193h7.0171v-1.9355h-7.0171V1115.8193z"/>
		<path d="M384.0527,1117.5127c-2.5811,1.6133-3.4688,2.0977-6.2109,3.3477c-0.6855-1.5732-1.29-2.6211-2.2583-3.9922
			c4.1138-1.6133,6.8159-3.1055,9.7192-5.3643c2.5811-1.9756,4.5166-4.0732,6.1299-6.5332h4.5566
			c2.0566,2.8633,3.6309,4.3955,6.5742,6.4531c3.2676,2.3389,6.4531,3.9922,9.9609,5.2422
			c-1.0879,1.6533-1.6133,2.7422-2.1777,4.3555c-2.4199-1.0488-3.9121-1.8545-6.5723-3.5488v3.0244
			c-1.0488-0.1211-2.0176-0.1611-3.4688-0.1611h-12.9463c-1.0889,0-2.2588,0.04-3.3066,0.1611V1117.5127z M381.915,1127.4746
			c-2.0166,0-3.3066,0.0801-4.5566,0.2412v-4.4766c1.209,0.1211,2.7422,0.2021,4.5566,0.2021h24.0762
			c1.9355,0,3.2676-0.0811,4.5566-0.2021v4.4766c-1.2891-0.1611-2.5801-0.2412-4.5566-0.2412h-13.2676
			c-1.291,2.9434-2.501,5.2021-4.0332,7.501c6.6953-0.3633,6.6953-0.3633,12.2598-0.9678c-1.25-1.3711-1.9355-2.0977-4.0723-4.2754
			l3.8301-1.6934c4.1543,4.1943,5.8477,6.1699,8.9531,10.2832l-3.75,2.4609c-1.0898-1.6543-1.4121-2.1377-2.2988-3.3477
			c-3.2266,0.4033-5.5254,0.6855-6.9766,0.8066c-4.0332,0.4033-11.373,1.0889-13.0264,1.21
			c-2.1787,0.1211-4.1143,0.3223-5.001,0.5244l-0.6055-4.7188c1.1699,0.0801,1.6533,0.1211,2.1777,0.1211
			c0.3232,0,1.4922-0.041,3.4688-0.1611c1.8955-2.9043,3.1055-5.2031,4.1133-7.7432H381.915z M400.2646,1116.3027
			c0.5254,0,0.8867,0,1.6934-0.04c-3.5078-2.3389-5.7656-4.4355-8.1055-7.541c-2.0166,2.7422-4.3555,4.96-8.0254,7.541
			c0.6455,0.04,0.9678,0.04,1.5723,0.04H400.2646z"/>
	</g>
</g>
<g id="レイヤー_7">
	<g>
	</g>
	<g>
	</g>
	<g>
	</g>
	<g>
	</g>
	<g>
	</g>
	<g>
	</g>
</g>
</svg>
