<?xml version="1.0" encoding="utf-8"?>
<!-- Generator: Adobe Illustrator 22.1.0, SVG Export Plug-In . SVG Version: 6.00 Build 0)  -->
<svg version="1.1" id="レイヤー_1" xmlns="http://www.w3.org/2000/svg" xmlns:xlink="http://www.w3.org/1999/xlink" x="0px"
	 y="0px" viewBox="0 0 472.4347 269.9647" enable-background="new 0 0 472.4347 269.9647" xml:space="preserve">
<path d="M427.6469,217.2432c0.6211-1.7827-2.3262-1.6284-3.6436-2.0171c-1.8603-1.1611-2.0166-3.1015-3.0215-4.7275
	c-0.3906-2.7149-0.7773-6.0503,1.3916-8.0655c1.0088-0.854,3.0254-1.0068,3.0254-2.5585c-0.7744-0.6211-1.6298-0.9317-2.791-0.7754
	c-3.1806-2.793-8.5293-3.0254-12.2529-2.0171c0.1562-3.8789,3.1025-7.6763,6.668-9.1499c2.872-1.5518,4.6543,2.7925,6.9804,1.6279
	l-0.2343-8.6069c1.708-6.125,8.1416-9.6934,13.6484-12.0191c-0.7774-2.7925-4.1074-1.7075-5.5811-3.9551
	c-3.7998-4.6523-1.2431-10.6997-0.2343-15.8964c-0.1534-1.3955-1.627-1.7061-2.7911-1.6275c-3.3339,0-2.9472,4.1099-4.4951,6.1265
	c-1.0869-1.7847-1.4765-3.3355-1.0869-5.584c-0.543-0.6211-1.164-1.0083-2.0166-0.853c-1.4736,0.4658-3.8769,1.0849-3.334,3.334
	c-0.3867,1.163-1.6299,1.4736-2.4824,2.25c-1.8603-2.4053-2.4033-5.9712-1.707-8.6856c-3.7217-2.5591-8.2949,1.938-11.167-2.7915
	c-1.626-2.6367-1.5488-6.6689-1.083-9.4609c-2.0948-1.3174-4.499,0-6.4375,0.5434c-2.791,4.188-7.0557,8.9947-12.8711,8.9175
	c-2.0947-0.3091-4.0332-2.2495-4.9639-4.1875c-2.248-0.542-3.5654,1.085-5.3506,1.7061v4.7304
	c-1.4736,2.7139-2.248,7.3667-6.4345,7.2891c-1.3955-1.7837-0.6993-4.1108-1.086-6.126c-4.0332-2.9477-9.0722,0.9302-13.958-0.6206
	c-2.0947-0.6211-2.791-2.7915-2.791-4.7305c-5.042-5.7378-9.7715,3.5669-15.665,2.792c-1.9385-0.7758-1.2393-3.8764-4.1866-3.0234
	c-3.3339,0.3105-3.4121,3.4111-4.4209,5.8149c-1.3173,1.6289-1.7822,4.0318-3.955,4.7295
	c-1.0088-3.0234,0.8554-6.3589,1.3955-9.4604c-1.3955-2.3257-4.417-2.1704-6.9776-2.481c-2.1728-0.9306-3.334-3.3335-4.1865-5.3501
	c-0.4648-2.5591-0.4648-5.7383,1.1621-7.832c-1.7051-2.0942-5.1172-1.4727-7.29-0.7749c-3.6426,0.542-9.459,4.0317-12.0186-0.853
	c-0.3877-1.2412-1.6269-3.4126,0-4.188l0.6211,1.3955c1.7822-0.6201,1.086-3.1792,1.6289-4.1875l0.8526,1.939
	c1.9384-0.4654,0.7744,3.0239,1.9384,4.1879c0.544,0,0.7744-0.5434,1.1651-0.853c0.6963-2.0942,3.2558-3.8774,3.5654-6.4365
	c1.2393,0.543-0.0781,2.0937,1.1641,2.5591l1.083-0.8531l1.165,1.3956c0.4649-0.4654,0.8516-1.086,1.6289-0.8526
	c1.9385-1.7842,2.1699-4.2651,1.9385-6.9795c-0.3115-1.5508-0.1553-4.0317-2.1729-4.1865c-0.621-2.4043-2.9462-2.9468-4.1855-5.041
	c-2.0947,0-1.5518-2.481-3.6465-2.7915l0.2344,6.979c-0.4658-0.7759-0.4658-2.0933-1.3955-2.4815l-0.2344,0.3111l-2.248-2.5596
	l-0.543,1.1631c-1.0088-1.3184-2.2481-3.0244-3.9551-3.1016c-0.8525,1.0855-1.5488,2.2486-1.6269,3.6446l-2.794-1.9395
	l0.543-12.3286l0.5439-1.0855c4.0332,3.4112,4.3418-5.351,8.375-1.706c1.3174-0.3882,0.9307-2.0161,1.3955-3.0244
	c1.8614,1.0083,3.2569-0.7749,5.0391-0.6206c2.6377-2.4038,1.0078-6.6685,0.3125-9.46c-1.3955-1.0854-2.1699-2.7915-3.6465-2.7915
	c0.8555,0.9312,0.6211,2.5591,0.2344,3.6445c-2.0947-0.5429-3.1035-1.706-4.9639-2.791c-1.2392,0.1548-2.8691-0.5439-3.4121,0.8526
	c-3.0254-1.3965-2.6348-4.0328-2.1699-6.7466c0.2314-2.0933-0.6992-3.9546,0.7744-5.2725c0.3867,1.7061,1.707,2.7144,3.4121,3.1016
	l1.3955-3.1016c0.2334,0.853,0.6992,1.8613,1.6289,2.2485c3.2569,1.4732,2.2481-2.8701,3.6436-4.1875l0.3125,0.233
	c1.0078,0.7749,2.4033,1.0844,3.0215-0.233c1.2422,0.3882,2.2509-2.0927,3.1035,0c1.0859,0.233,1.8603-0.3095,2.4814-1.1626
	c0.9307,0.0772,1.1651,1.628,2.2481,1.1626c0.7744-0.5429,0.7744-1.8603,1.0859-2.7905c-0.6211-5.6616,2.9473-12.6406-1.9385-17.06
	v0.853c-0.5429,1.5498-1.3173-0.853-2.248-0.853l-0.2334,5.04c-1.0088-1.3955-1.2393-3.4121-3.1035-4.187l-0.2305,1.706
	c-0.6221-0.3881-1.2393-0.4653-1.708-1.1635c-1.8574,1.0854-1.7822-2.0161-3.6436-1.6284c0,1.6284,1.2393,3.4897,0,4.9628
	c-1.0859-1.3188-1.3955-3.4121-3.3339-3.8769c0.3095,2.4038,0.6181,5.5825-0.3086,7.8315
	c-0.4688-0.2324-0.1563-0.7749-0.2344-1.1635c-0.3867-2.8687-1.1641-6.0484-3.6436-7.521l-0.3115,5.583
	c-0.5439-1.6284-1.9385-2.8697-3.5654-3.335v1.3965c-0.4688-0.1553-0.8555-0.2334-1.1641-0.543
	c-1.1621,1.4732-2.4824-1.4736-4.1865-1.1631c0.6963,0.9312,0.7744,2.4038,0.3086,3.4112c-0.9297-2.0928-1.7041-4.187-3.334-5.8931
	c-0.6211,5.6606-1.1641,11.3213-1.7041,17.0591c-0.6992-4.2642,0.3086-9.1499-0.8555-13.1817
	c-1.1611-2.3256-0.6963-6.4355-3.6435-6.979c-0.1563,3.2569,0.5429,6.5147-0.543,9.7705h-0.2344
	c-0.2304-0.2324-0.6963-0.3876-0.6181-0.7758h-0.7774c0.0782,6.6694-1.2392,14.1914-1.7041,20.3174
	c-2.6377,15.4301-2.791,33.6533-4.1865,50.0156c1.3955,0.4648,2.1699-1.0088,2.791-1.7071c0.3086,3.0245,0.6211,7.0567-0.3125,9.461
	h2.794c2.7129-0.1553,2.248-3.1026,3.4121-4.7305c0.8525,1.8613-0.6992,4.0327,0.54,5.5835
	c-0.0742,2.4038-3.1777,1.0073-4.1865,2.7905c0.7002,6.0489-2.79,10.6241-6.7461,14.501c-2.0947,0.6216-3.2559-1.5508-4.7295-2.7915
	c-1.5518-1.5508-2.3252-4.187-4.7295-4.7305c-0.543,4.9639,1.8604,9.3052,2.791,13.9585c0.7744,3.8765,1.2422,8.9175-1.3955,12.0186
	c-2.8691-2.4815-3.6465-6.125-4.1865-9.2275c-6.668-4.7295-8.5303,5.8159-13.6484,8.374c-3.7994,0.9321-1.2393-4.6514-5.3501-3.0235
	c-3.9556-0.0771-3.6446,4.5743-5.273,6.9786c-0.0796-3.023,1.1641-6.2027,1.085-9.5376c-1.3955-4.1089-5.8159-5.815-9.46-6.9781
	c0-1.9399-2.0166-2.7133-3.3354-3.646c-1.6265-0.309-2.6348,0.6211-3.9541,0.8531c-1.0074,1.706-1.4732,3.5673-1.628,5.5839
	c-1.9384,3.7227,3.1787,11.2442-3.6445,10.9336c-7.5986,5.1954-0.3101,13.0264,0.5425,19.542
	c-2.4033,3.334-4.4971,7.5982-4.1875,11.941c-2.2486-4.0318-2.8687-8.7632-3.334-13.649l1.396-1.706
	c0.2319-1.3955-1.3189-1.937-2.4815-1.6265c-1.8618-1.9385-1.8618-4.5767-2.5585-6.9805
	c1.4726-6.8232-1.3189-16.2827,5.5825-20.9355c0.853-1.1631-0.2324-1.7061-1.0855-2.25c-1.706-0.2319-4.2651-0.853-5.5835,0.5439
	c-5.2724-4.2651-6.2802-11.5547-5.5825-18.3774c-0.7749-1.2412-2.3267-0.3882-3.1025-1.3965
	c0.6216-1.6279-0.0772-3.7217,0.5434-5.3501c3.7998,0.0776,1.0855-4.4975,3.1016-6.1265c0.853,0.543,2.0156,0.2325,3.1016,0.3106
	c1.8613-2.3267,0.853-5.8159,1.9384-8.374c0.3882-0.1563,0.5435,0.3095,0.8531,0.542c0.9301,0.31,2.56,0.6206,3.3349-0.3106
	c0-10.9336,0.9302-22.4873,1.3955-34.3515c0.6978-7.4434,1.7832-14.8877,2.7915-22.2549c1.086-1.6275,2.6367,0.6982,4.4199,0
	c1.4737,1.0083,3.0245,0,4.4976,1.0864c-1.1636,16.6714-3.5664,31.7144-4.1875,48.542c0.0776,1.2402,0.6982,2.791,2.249,2.5586
	c-0.5429,4.4194-0.9301,8.8403-1.9384,13.1055c0.3876,0.3867,0.853,0.9301,1.3955,1.0844c1.0083,0.3106,2.7924,1.3194,3.5673-0.2314
	l0.6197,0.542c-0.6197,3.3344-1.2393,7.0566-0.6197,10.624c4.6524,0.6196,3.566-5.041,5.3506-7.5996
	c0.7744,0.5425,1.5508,1.2402,2.4805,1.3955c1.1636,0.6977,1.7061,0.0781,2.4824-0.7759c1.3174-9.0718,0.853-19.54,2.5591-28.7681
	l2.791,0.543c1.6279-0.31,1.4737-3.1025,3.6436-2.2495c1.7846-0.7749,1.3188-3.0239,2.1718-4.4194l1.1646,0.5429
	c1.1626,0.6206,2.5581,0.0772,3.6431-0.5429c1.3955,0.7758,2.4814,2.4819,3.8769,3.334c1.1651,6.1259-1.0078,13.0283-0.3086,18.998
	c-0.6992,1.0864,0.6182,3.5674-1.6299,3.5674l-0.8525,13.958c0,1.5503,1.6289,1.4731,2.791,1.395
	c3.2559-0.6196,1.9385-4.9619,2.2481-7.2114l2.791-0.3096v7.521c0.8535,1.6289,2.1728,0.3887,3.0254,1.1636
	c-0.4658,0.1557-0.1563,0.7759-0.2315,1.0859c1.626-0.0781,2.8692,1.3955,4.4209,0.5425
	c5.0381-6.0478,4.2637-15.4311,5.0381-23.1069c1.2393-3.6455,1.1651-6.7466,1.1651-10.9346
	c0.3085-16.9048,1.5507-34.9722,1.083-51.876c-0.6182-1.7837-1.8604-3.1015-3.878-3.1015c-1.3955,0.1552-3.0996,0.6196-3.4082,2.248
	c-0.5439-2.4809-1.7861-5.2725-4.4209-6.436c-0.7773-0.7749-2.0166,0.4658-2.5595-0.5425c-1.1631,0.1553-2.2481-1.7832-3.335-0.3106
	c0.3877,0.4659,0.3877,1.396,1.1631,1.396c-0.8535,11.1661-0.4668,22.8755-2.5576,33.4991c-1.3213,0.2324-1.8614-1.628-3.335-1.0855
	c-1.0078,0.2324-2.792,0.3877-2.4814,1.9385c-1.8609,1.1626-3.1016-0.7759-4.4971-1.7061
	c-1.9404-0.1547-3.4912-1.4736-5.5835-1.3964c0.7749-8.8394,0.6216-17.9893,2.248-26.4419
	c-0.2319-2.7134-1.0844-5.6607-3.3325-6.979c-0.6997,0.0781-1.4746-0.2325-2.0171,0.2329c1.085,2.7143,0.5425,6.1255-0.5425,8.685
	c-0.853-0.0776-1.6293-1.0849-2.4824-0.31v0.31c0.6211,0.6201,1.1636,1.6284,0.5425,2.4815c-1.0068-1.086-2.7129-1.3189-3.876-1.086
	c0.0767,0.8526,1.0083,1.6284,0.232,2.4815c-0.9302-0.6983-2.4038-0.9302-3.334-0.8531c1.0083,2.1714,0.4643,3.9546,0,6.2042
	c-1.0069-2.0167-0.6978-4.7305-3.0235-5.8941c0.0757-1.6279-1.8613-5.7383,1.628-5.2729c0.9311-2.7134,1.7832-5.816,1.3955-8.6851
	c-0.853-2.4038-4.3428-2.0928-5.5825-0.3096c-2.2496-0.9301-3.335,1.8604-5.274,0.8531c-3.1797,1.7832-6.4355-1.0855-9.5381,0.5429
	c0.4664,3.9541-4.8076,1.2403-4.4194,5.3501c-1.7832-0.2324-2.6362,1.3174-4.187,1.3955c-2.5586-2.4809-5.9717-0.2324-8.6851,0.2325
	c-1.0859,0.9306-1.8613-0.3868-2.7919-0.7749c-0.9302,0.31-2.4029,0-2.7906,1.0859c-1.6289,1.8603-3.1797-0.0781-5.0405,0.5425
	c0.6196,1.706,0.0776,4.2641-0.543,6.1255c-0.853-0.7749-1.4736-2.7134-3.0244-1.938c-0.31,11.477-1.8603,23.8056-0.853,35.437
	c0.0771,1.4726,1.706,1.6279,2.791,1.9385c0.9312-1.6289-0.6973-4.0318,0.2334-6.1255c1.0855,0.2324,1.8613,0.7749,3.1016,0.542
	c1.1626-0.3096,0.5429-1.8604,1.0854-2.7906l2.7915,0.3096c2.0161-1.6279-0.2324-3.8774,0.8535-5.8931l0.542,0.6202
	c1.939,1.0859,3.1026-0.6202,3.4121-2.2491l2.482-0.8525c1.3183-1.3179,0.9297-3.3345,1.395-5.0405
	c4.3432,0.5429,0.6982-3.6441,2.249-5.583l2.792,0.6196c-0.5435,4.8857-1.1641,11.0889-1.7061,16.6723l-1.0859,1.1631
	c-1.9385,17.7578-3.102,35.9024-3.334,54.4351c-2.792,2.6372-6.1259,4.0327-9.7705,4.4209
	c-1.4736-0.3882-2.0161-1.4736-2.5586-2.792c-2.0166-0.7754-3.9551,0.2329-5.583,1.1636c-0.3882,2.791-2.793,4.9624-3.8774,7.2109
	c-1.7837,2.0938-3.4903,3.9556-5.8936,5.0396c-1.3178-1.2398-3.1792-2.3243-2.7915-4.1856c-0.3105,0-0.6206,0.0762-0.853-0.2334
	c-1.3184-0.1553-3.2568,0-4.187,1.6284c2.0928,5.5049,0.5429,11.6314,0.6196,17.292c-0.1548,1.6294-2.1714,3.1797-3.644,2.5586
	c-1.3955-2.3242-3.1797-4.4966-3.334-7.289c-7.1343-2.7134-8.8404,6.3598-12.5625,9.7705c-1.2407,0.7754-3.1021,3.3344-4.187,1.1616
	c-1.7842-0.4629-3.5674,0.6225-5.0406,1.6294c-0.0776,4.2661,2.7139,9.0737-0.3105,12.873
	c-1.5508-1.1631-2.6362-3.0234-3.335-4.7295c-0.6972-4.3442,0.1558-8.9174,3.8775-11.477
	c-1.7051-2.7134-7.0552-0.0777-7.2105-4.7295c-2.3266-2.8696,0.6978-5.9712,0.5425-8.6856
	c-2.6367-0.9301-4.8076,0.5425-7.2891,0.8531c-3.2568,0.6977-6.3588-1.8614-8.0649-4.731
	c-2.0933-3.875-4.1875-8.7617-2.4814-13.1035c-0.6202-0.543-1.396-0.6211-2.2481-0.6211c-1.6284,1.0859-4.2656,0.6211-4.7305,3.1016
	c-2.8691,2.792-6.5908,5.1181-10.6235,3.3349c-4.3428-2.4809-5.8154-7.4448-6.978-11.3984
	c-1.9395-0.5435-3.335,0.7749-4.4981,1.6279l0.3101,0.3096c-1.2402,7.1343-5.5054,15.6641-12.8721,17.602
	c-4.7304,0.7764-7.5224-5.0385-12.2519-2.559c3.0244-0.4649,3.8774,2.6377,6.4355,3.3354c0.5435,2.4038,0.1558,5.0396-0.3096,7.2881
	c0.1543,5.1186-7.0561,8.5293-4.498,13.415c1.1641,0.6978,2.2495,0,2.5591-1.1626c3.1015,0.2325,6.0488,0.6211,8.9179,1.3955
	c3.4112,1.94,5.4278,5.4288,5.2725,9.2281c-1.6289,4.4189-4.3423,8.376-7.2114,12.3296l0.2329,2.4819
	c0.3096,1.0083,1.3179,2.6348,2.7915,1.937c0.543-2.7129,3.4121-2.0151,5.3501-2.4805c3.6445,3.2579,2.7134,8.918,1.6289,13.4146
	c-0.9312,3.8774-4.8853,6.8227-4.7305,10.8564c0.0772,0.8536,1.0855,1.9385,1.9385,1.9385c2.4038-1.6279,5.4282-3.9551,8.1421-2.249
	c4.4204,7.8325,1.939,18.6108,0.853,27.1411c0.543,0.7744,1.2407,2.1714,2.4815,1.937c6.8237-4.2641,12.7168-11.8628,21.479-12.0176
	c4.4209,0.231,9.0737,2.8677,10.624,6.979c2.0156,0.4634,3.9551,2.7911,6.1255,1.085c-1.2402-3.0254-3.5674-5.8926-6.4356-8.064
	c-0.6987-8.2978,3.1788-15.4311,8.1416-21.792c1.1641-3.1001,2.5591,1.2442,4.42,0.3106c0.7758-0.6978,0.7758-1.7046,1.1635-2.5581
	c2.9473,2.9468,5.5835,6.5137,7.5215,10.0806c0.6978,0.7773,1.0855,2.7143-0.31,3.3354c-0.5425,0.7744-0.2325,2.3257,0.8525,2.2495
	c6.9795-3.6465,16.3623-5.4292,23.729-1.397c1.0855,1.0083,1.7832-0.4653,1.7061-1.3955
	c-2.8697-3.8007-1.9395-10.1587,0.2314-13.958c3.5679,2.4038,2.4038,7.0557,2.2495,10.6236
	c0.7759,3.4887-5.1953,6.9008-0.2324,9.4609c2.7915,1.1611,2.2485-3.7227,4.7295-3.645c0.6206,1.1631,1.8613,2.0171,1.9394,3.4106
	c0.7749,1.7842-0.2334,3.8789-0.5434,5.2744c3.7993,6.9009,10.0815-2.8706,14.811,1.937c1.0855,0.7774,2.7144,0.2344,3.334,0
	c0.3106-0.5415,0.6206-1.0844,0-1.3955c-2.4038-0.4648-1.4727-2.2475-1.7051-4.186c2.0157-4.6533,4.9629-10.8564,10.9331-11.167
	c0.7759-0.2324,0.8526-1.0849,0.2329-1.6279c-2.4047,0.6977-3.2578-2.4038-5.0405-3.1016
	c-0.0781-2.4053-3.4902-3.4902-3.0239-6.1264c-2.0943-2.6368-1.7061-6.6685-2.5596-9.5372c1.7061-0.311,4.5762,0.9288,5.0405-1.0883
	c-3.1025-1.316-5.3501-4.0303-7.5219-6.9771c-2.1714-4.3428-4.0323-11.167-0.8526-15.3535c1.085,4.1865,4.6524,7.0557,8.3745,8.918
	c3.024,2.6362,2.3257,6.7461,2.7911,10.313c0.7763,3.4106-4.1094,6.5913,0,9.2265c1.396,1.0879,1.8613-0.6977,2.7924-1.3955
	c1.3179,0.1558,2.8687-0.3872,3.6436,0.8535c2.792,2.791,1.7842,7.0572,0.8535,10.3116c0.0776,1.2426,1.396,1.9404,2.4815,1.9404
	c1.706-1.4737,4.497-0.5415,6.7465-0.7759c3.1016,1.397,2.0933,5.3506,1.9385,8.0654c-1.2407,0.7754-0.3877,2.7129,0.5425,3.6446
	c0.543,0.4653,1.5508,0.7758,2.2485,0.2309c-0.0771-2.9453,3.335-3.4868,5.0401-5.2729c5.0405-1.937,5.1958,5.9707,10.0039,5.896
	c1.7827,0.3105,1.0078-1.3194,1.1631-2.0171c1.9384,1.8608,4.8066,2.4023,7.521,1.706l-0.6197-3.3354
	c0.6197-2.5581,0.6197-6.2031,3.6441-6.979c0.6972,5.2729,6.0478,2.7148,9.5381,4.188c2.248,0.3872,1.0083,4.1098,3.8769,2.4819
	c1.3174-3.4902,5.4287-3.6465,8.6856-4.188c2.4814,0,3.955,1.939,5.2724,3.645c3.4121,1.086,3.7246-3.9541,6.125-5.2729
	c2.7158,1.8608,6.4375,1.6279,8.376,4.7295l-0.543,0.854c0.6963,1.2392,3.4903,0.6196,4.4981,0c0.54-0.854,0-1.939-0.8516-2.5601
	c2.4004-1.9385,4.0303-3.8774,6.668-5.2729c4.8828-2.0948,2.1699,5.1963,4.4951,7.2119c0.1562,1.1626,0.6992,2.792,1.6299,3.9551
	c1.4736,2.5586,4.4209,0.1562,6.2031,2.4819c3.1777-0.5449,5.7373,2.2476,8.6065,0.8506c1.3955,0.1562,3.3339-1.6265,4.1865,0.5449
	c1.3203,1.0068,2.1728-0.6216,3.1035-1.3955c4.8857-1.939,10.0801-5.5835,12.0185-10.6255
	c3.7217-3.1777,8.8418-0.7739,12.5625,0.854c2.8692,2.0166,6.9024,3.8775,8.376,6.979c0.6182-0.0781,1.5479,0.3106,1.9356-0.5415
	c0-4.5766,5.5849-4.9639,8.3759-6.1269c6.4375-0.543,11.71,3.0239,15.3526,8.0639c-1.086,1.6294-2.7119,2.4038-2.5596,4.4986
	c1.1641,1.6279,3.7246,1.5512,5.585,1.0849c4.7295-6.0488,10.6982,1.1641,16.749,0c1.1641,1.5513,3.4902,2.4038,3.4121,4.731
	c-0.9307,1.3174-1.5518,2.791-3.1035,3.4092l0.543,0.5459c1.4736-2.7144,4.6552-2.4834,6.4375-5.0415
	c4.2646-1.8624,9.7714-4.7295,14.2705-1.9385c1.0078,1.164,0.54,2.249,0.2304,3.6445c0.6993,1.7842,2.4815,0.0781,3.6436,0
	c1.0859-0.1562,2.0166,0.1548,2.7939,0.7759c6.2784,0.2324,11.085-3.957,14.4981-8.3745c2.0947-2.9483-0.3877-6.437-0.5401-9.1514
	H427.6469z M251.5473,113.1031h0.7773c-0.3125,1.1631-0.3125,2.4814-0.7773,3.644V113.1031z M85.14,210.8072
	c-1.6289-1.628-3.1796-3.4903-5.2739-3.9551c1.6289-3.1797,1.8618-8.5288-0.5429-11.398l-0.6197-0.5429
	c1.7832-0.6197,3.5674-1.1631,5.3501-1.708c-0.0776,4.8872,1.6294,9.8496,6.4361,12.0224
	C88.164,206.3868,86.6132,208.792,85.14,210.8072z M82.3481,172.8116c-2.8697,0.2309-5.6607,0.5415-8.065,1.706
	c-0.31-3.5683,3.3345-7.6782,0.8535-11.7085c3.4117-1.2422,8.1421-0.5429,9.77-5.0415l7.5225,6.437
	C88.5522,165.8311,84.7514,168.7798,82.3481,172.8116z M111.6591,182.5831c-0.853,1.2392-3.1787,0.8505-3.8765,2.5566
	c0.3872,2.7143,4.0318,3.8008,3.333,6.6684l-3.643,2.794c-2.8697-2.5601-2.7144-6.9024-1.396-10.3145
	c-1.2412-2.7148-4.6533-0.7744-6.669-0.5434l-0.311,0.2339c-0.4644-1.6294,1.8618-3.5679,3.335-4.731
	c2.8691-1.5513,6.1259,0.6978,8.9951-0.852C112.435,179.48,112.5131,181.42,111.6591,182.5831z M130.9677,198.7881l-4.188-2.249
	c1.2407-2.791,2.1719-6.125,1.396-9.4595c1.3184-1.0859,1.7065-2.9467,1.0864-4.4965l-0.853-1.397
	c2.4033-0.854,4.1094-3.4903,5.3501-5.5835c0.7749,1.2422,1.939,3.6445,3.8765,3.9551c-1.9375,3.7212-1.3179,9.228,0.5434,12.7949
	C135.3871,193.5938,132.6737,196.0738,130.9677,198.7881z M179.8197,111.9395v-0.7749l0.2325-2.249L179.8197,111.9395z
	 M240.3803,200.1836l-4.8076-0.309c0.852-3.7227,2.4814-8.8394-1.3955-11.71c-2.7144-0.6211,2.0166-2.4038,1.706-4.1865
	c0.3887-1.94,1.7061-3.4898,0-5.2725c0.4668-0.2344,0.7759-0.7773,1.397-0.5434c0.3091,1.3178,1.7827,2.248,3.1001,2.4804
	l2.4814-0.5415c-0.541,3.9536,0.543,8.2197,3.334,10.8545C242.6313,192.5855,240.6147,196.1519,240.3803,200.1836z M276.0502,54.48
	h0.3125v1.0864h-0.3125V54.48z M274.9672,124.2691c0.54-0.7749,2.4785-2.0166,2.791-3.3345c-0.2344-2.6357,2.169-0.6977,3.334-0.853
	C278.9975,121.7105,277.602,123.8824,274.9672,124.2691z M297.2973,201.0362l-1.9385,0.5429
	c0.0781-2.4799-1.7051-3.8754-3.6436-5.04c-2.2509-0.1548-4.1894-1.4736-3.3339-3.876l-0.543-1.1645
	c3.0996,2.0952,4.6514,6.1255,8.916,5.3511C296.9106,198.2452,297.5316,199.4859,297.2973,201.0362z M291.4037,163.5835
	c-2.3262-0.8525-5.5039-0.5434-8.0644-0.2309c-0.2305-2.0933-0.9297-4.19-2.2471-5.585c1.4736-0.5425,2.2471-0.2319,3.9521-0.311
	c0.3897,0.6992,0.2344,1.4746,1.086,1.9404c4.3428,0.7744,8.6074-6.4365,11.4795-1.3965l0.2304,0.3096
	C295.1244,158.6206,292.5678,161.1797,291.4037,163.5835z M318.2358,171.4161c1.3955,1.0849,3.0996,2.8691,2.247,4.7295
	c-0.5429,0.4653-0.0771,1.3173-0.5429,1.706c-0.8526,0.2329-1.1641-0.7759-1.7041-1.0845V171.4161z M319.0873,210.4986
	c0.0781-5.042-7.289-4.0337-6.1279-9.4624v-1.7061C316.141,201.8897,320.4057,206.0777,319.0873,210.4986z M321.0268,185.3736
	c-1.3955,0.6977-3.1787,2.2495-4.7295,0.8525c-3.2598-3.334-8.5293-3.643-13.1055-3.334c2.4815-3.4887,7.4424-4.0322,11.166-5.3496
	c1.5518,1.8609,5.1172,2.3262,5.5821,5.0406C320.6391,183.357,321.9565,184.2876,321.0268,185.3736z M346.1508,191.8081
	l0.3096,1.3951l-5.042,0.311c-0.9307-2.4023-2.2481-5.1934-4.4951-6.9775c0.3867-3.0235,2.8681-6.5918,1.1611-10.0806
	c1.164-0.7754,1.164-2.0947,1.0859-3.334c1.3955,0.5415,2.0947-1.2427,3.1035-1.1645c1.5518,3.7993,2.9473,7.9111,6.3594,10.6255
	C347.8559,185.063,345.7611,188.2427,346.1508,191.8081z M405.0854,199.3301c-2.4854-1.8608-2.795-8.0639-7.6016-5.2715
	c-1.8613,0.4639-2.8691,4.5738-4.9609,2.4805c-2.794-3.5669,5.2695-4.8857,1.083-7.21c-4.1084-1.7856-5.1162,2.9454-8.376,2.7911
	c-2.2471-3.1797-0.6963-6.5137,0.8555-9.5371l2.791-1.9405c1.5517,0.6211,3.334,0.0781,4.7295-0.5415
	c0-2.4053-2.6348-2.0166-4.1866-2.5586c-2.0947-1.8618-3.5683-4.3437-2.4814-7.2129c0.4648-1.1631,2.3252-1.0068,1.9385-2.5581
	l0.8926,0.3228c5.1982,2.4804,9.6533,4.1738,9.7314,10.6113c-0.9307-0.6211-2.1699-1.1631-3.1035-0.3105
	c-1.1611,0.7739-0.2315,2.0932,0.3125,2.791c6.3584,3.3354,10.1553,10.7011,12.793,16.207
	C408.0287,198.0127,406.8647,199.5625,405.0854,199.3301z"/>
<g>
	<path fill="#FFFFFF" d="M192.0722,143.8106c-1.939,9.6157-4.9639,20.0835,1.3955,29.001
		c0.0771,8.8393,1.8613,18.9214,10.8559,22.0996c1.3184-0.1548,2.5586-0.7759,3.1016-2.0152
		c-2.4819-2.7148-1.1631-6.2812-1.0854-9.7729c1.3955-1.7827,1.2407-5.9673,4.9628-4.728c1.0069-1.7842-1.5517-2.7925-2.4819-3.336
		c-3.4888-4.0302-6.126-9.5371-4.187-14.81c1.0854-1.3179,2.8696-1.7051,4.4976-1.0865c1.0854,0.7769,2.4047,2.0171,3.8774,1.0865
		c-0.3887-5.272-2.481-12.3296,0.3091-17.6016c2.0166,4.3418,12.2529,2.5591,8.6074,10.3901
		c-1.0083,3.8008-2.7129,8.4527-1.396,12.252c1.3189,1.397,3.0249,2.0166,4.731,2.4819c-5.5054,7.9854-9.6939,20.2388-3.878,29.0782
		c-2.6357,2.7128-3.2568,7.4438-1.706,10.8544c0.7763,0.9336,1.2407,2.0171,2.249,2.7945c-1.3174,2.6347-3.2559,4.8838-2.481,8.374
		c-1.2402,0.6196-3.0249,0-4.187,0.543c-2.0947-2.3272-4.0317-4.3438-6.979-5.274c-2.4048-0.3872-4.2651,0.543-6.1259,1.3956
		c-0.6202-1.7066-1.0083-4.0323-2.5591-5.5821c-2.481-2.0166-6.3584-1.9404-8.9175-2.251
		c-0.0772-3.9536-0.3877-8.9921-4.4971-11.165c-7.9878,2.0933-2.1719-7.21-3.8769-10.6221
		c-0.0782-4.1098-3.1797-7.1352-6.6695-8.9174c-4.4204-1.8609-5.1953-6.67-5.04-11.1685c-1.0855-1.5498-2.4819-0.7744-3.9546-0.5415
		c-4.3433,2.7143-3.2568,8.9175-3.0249,13.647c1.3189,4.8857,2.7144,9.6948,5.2734,13.9594
		c-3.7993,2.0152-2.1713,6.7447-1.3955,9.7696c1.2403,4.5766,3.9546,8.3745,7.2886,11.476
		c-5.5054,2.4039-8.2969,8.6084-8.9175,13.959l-6.2031,0.542c-0.6982-3.4902-1.396-7.5205-5.2725-9.227l-2.2495-0.543
		c0.6206-4.2646,2.6372-9.3062-1.0854-13.416c-1.2403-1.085-2.3257-2.4805-3.6446-3.334c1.7061-4.8857,6.9795-8.2197,11.1661-10.624
		c-0.232-1.628-2.0161-1.628-3.1011-2.48c-5.5059-6.2827-3.7998-17.4478-1.396-24.814c0.0771-0.7773,1.396-1.0879,1.1636-2.0166
		c-2.1719-1.2402-4.8858-1.2402-6.98,0h-1.395c0.853-2.0166,3.1015-3.9546,3.0239-6.6684v-12.8721
		c3.0244,1.3955,6.436,0.2319,8.6846-1.9399c2.4814-3.1011,5.3515-5.9698,6.1264-9.7701c3.9546,2.0166,9.6153,2.3267,13.4151-0.2324
		l4.497-2.791C184.0067,133.8853,185.6357,141.3287,192.0722,143.8106z"/>
	<path fill="#FFFFFF" d="M396.3969,166.376c3.0254,1.4717,4.8857,4.1861,6.4375,6.9771c1.3174,2.4834,0.0781,5.1977-1.1651,7.2895
		c2.9473,3.4903,5.6631,7.522,7.2901,11.71c2.5596-3.334,5.6592-8.1416,10.623-8.065c-0.2304-7.3676,4.8858-13.2587,10.3145-17.601
		c-2.7901-2.3257-4.1113-5.7388-5.2725-8.919c-1.5517-0.4663-3.0254-1.6284-3.9551-3.1011
		c-0.7744,0.0772-1.3955,0.4659-1.9384,1.1636c-3.7217,0.3867-6.5909-1.7856-8.916-4.1885
		c0.3085-8.375-10.8584-5.0395-13.1055-12.5605l-2.251,1.937c-4.6514,3.4121-11.3203,4.2651-16.5146,1.3955
		c-0.2344,2.25-1.3174,4.1885-2.4815,6.1265c-0.3877,1.6279-2.4043,2.4038-3.3349,3.334v1.3969
		c-2.8682,1.938-3.877,5.4273-5.5811,7.8321c-0.9336,5.7363-2.3291,11.6318,2.2441,16.2041l4.4209,0.2353
		c0.6993,0.3858,1.7071,1.0835,1.7071,2.0152c-3.4121,3.4887-7.5235,7.7548-7.8321,12.2504l0.543-0.5419
		c1.8604-0.6978,4.2647-2.4805,5.8936,0c0.3095,3.0253,2.5605,5.4287,4.4209,7.5219c0.9267,0,1.9384,0.1548,2.5566-0.5429
		c1.3203,0.0781,4.9639-1.628,4.4209,1.3955c-2.4043,1.706-1.6299,5.6616-1.3955,8.374c0.8525,1.3193,0.8525,3.4126,2.5596,3.8789
		c0.54-0.3105,0.6181-0.9316,0.2314-1.395c1.0859-0.3111,1.5518-1.8609,2.791-1.6299c3.6455-1.937,3.2588,3.1797,5.585,4.188
		c0.0742-0.7759,1.3174-1.0083,0.8515-2.0166c1.3956-0.9302,2.3262-2.4024,4.4991-2.1714c2.0166,0.1543,0.9297,3.4121,2.791,3.334
		c0.4648-0.6978,0.4648-1.0069,0-1.7041c0.8515-1.7066,2.4814-3.336,4.7295-2.7945c0.9297,1.7857,0.7744,4.1099,0,6.1265
		c-2.0166,5.9722-7.6768-0.9287-10.624,2.5601c-3.334,1.7827-6.125-3.5684-8.6065-0.3106
		c-1.9385,0.4654-3.1777-0.6977-4.8076-1.0849c-4.1865-3.0249-6.125-7.522-6.125-12.5621
		c-2.0166-1.8623-4.8076-1.9389-6.6719-4.1879c-0.6181,1.0849-1.5478,3.0249-3.334,3.0249l0.7774,1.163
		c1.6299-0.3105,2.8691-0.6196,4.499-0.3105c0.4648,0.6992,1.5478,1.0864,1.3955,1.9385
		c-3.6465,2.7143-9.0752,4.8872-10.3154,9.7695c2.4043,2.4043,6.3594,4.1104,7.833,7.6021
		c5.3506-0.1563,9.6933,2.3242,15.041,2.1679c3.0254,1.7857,5.8975,4.0337,5.8975,7.8325c2.8652-1.4716,5.8154-2.9453,8.373-5.2724
		c2.2471-0.9307,4.3418,0.3105,6.125,1.397c1.0859,1.1611,1.3174,3.1777,1.9385,4.7295c6.3594,0.0766,11.7851-3.1016,14.8096-8.0655
		c3.3378-8.0635-6.2032-7.2895-6.9776-13.7231c-1.164-3.336-0.6992-7.9873,2.4824-10.624
		c-1.0088-0.4649-1.8603-1.3189-3.0254-1.3956c-3.5683-0.0776-5.7373,2.0152-8.1416,4.1866
		c-3.6435,0.5434-7.2109-1.3189-9.4589-4.4204c-1.6299,1.3955-3.1817,2.791-5.585,2.249c-2.7129-0.9317-4.8076-3.334-5.8906-5.8921
		l-0.2344,0.3091c-2.4043-0.5435-5.1172-1.708-6.2031-4.1865c-1.0088-4.8873,1.3174-9.6153,4.4951-12.5625
		c-1.083-1.8619-2.7871-3.4898-3.334-5.5831c-0.6963-2.6381-0.1533-5.3525,1.6299-7.2895c0,0,4.4326-2.3276,5.4912,0.0874
		C390.0717,167.7915,392.307,162.8453,396.3969,166.376z"/>
	<path fill="#FFFFFF" d="M345.0649,143.5005c3.4121,3.6441,8.5283,4.729,13.3359,3.3335c1.4736,2.7144,3.2568,5.7393,6.4375,6.437
		c-2.7129,8.0645-6.2031,19.8511,1.9385,26.2867c-2.791,7.1333-8.9942,16.6709-2.1729,23.9619
		c-2.8691,3.1015-5.582,5.7363-6.2031,9.5371c-2.791-2.4038-7.5986-0.1548-11.167-0.854c-3.7207,0.4668-5.1943,6.2812-9.1494,4.4209
		c-4.7295-2.9473-9.5371-5.5073-15.1192-6.3594c1.626-1.4722,1.626-3.9541,1.1612-5.8926
		c-2.6348-3.8008-5.8906-7.3657-10.0801-9.7695c0.3896-1.0879,1.0078-2.1714,2.251-2.4819
		c1.3174,1.1626,3.0215,2.4819,4.7295,1.9384c-0.1563-3.955,7.4423-4.7295,4.7295-9.5371
		c-7.4463-2.7939,2.6377-6.9038-1.083-10.8579c-1.4776-1.6279-2.8731-3.9536-5.3545-4.4971
		c0.6211-1.8603,2.0166-4.7309,4.1894-5.583c1.1651-1.3173,1.083-3.1787,3.1006-3.5673c-1.1621-4.4209-7.833-3.6441-7.5215-8.6851
		c2.1699,0.8535,5.6602,0,7.5215-2.2485c0.3896-1.938,2.4814-3.1783,2.4814-5.272c2.4815,0.4643,6.125,1.4726,8.9942,0.2324
		C340.8002,144.2749,343.3568,138.0728,345.0649,143.5005z M344.4438,161.646c-2.9444,0.3096-2.2481,3.5669-2.7911,5.5806
		c-0.9306,1.0098-2.1699,1.3189-3.5683,1.1646c-2.8692,1.0083,0,4.1879-1.7051,5.583c-2.2471-0.4649-3.7207-2.5581-6.125-2.5581
		c-0.6211,0.0766-1.2422,0.9301-0.543,1.3955c3.334,0.5415,1.3174,4.7309,4.4209,5.3506c-0.4658,1.8593-1.0088,4.1865-2.7939,4.9609
		c-0.3096,1.2422,0.6211,1.9399,0.3115,3.103c0.6963,1.0098,1.8613,2.7925,3.334,1.7061c1.2402,1.0864,2.0947,2.3257,2.248,3.8759
		c-0.2343,1.7857-0.9306,3.646-2.248,4.731c0.3877,1.5513,0.6963,3.0234,1.9395,4.188c0.6953,0.4648,1.9384,0.3887,2.5595-0.2329
		c0.0781-2.5596,2.6348-3.877,4.1865-5.3506c3.0997-0.8521,5.504,1.9385,8.376,2.5601l0.5401-1.1646
		c-2.3262-1.8608-4.1866-5.2729-3.334-8.6069c1.5508-2.1714,2.1719-5.9707,5.581-6.2046c-0.3086-2.0152-3.334-0.6978-4.4951-1.085
		c-1.8603-1.1626-3.4902-3.4106-4.7295-5.2729c-2.791-3.5664,0.4649-7.2876,1.3955-10.6236
		C345.6859,163.8941,347.4682,160.3267,344.4438,161.646z"/>
	<path fill="#FFFFFF" d="M136.5512,159.7066c3.0239,3.3335,7.3667,5.2724,11.708,5.583c-1.8613,7.7529-3.2568,19.0757,3.8774,24.581
		c-6.5908,7.2896-13.1045,15.7422-12.2514,25.6666c-5.816-1.5503-12.2525,0.3105-17.9121,1.706
		c0.4648-6.0474-5.1958-10.3115-9.46-13.958c0.6196-2.4038,1.8603-4.2661,3.8765-5.5815l0.3095-0.3106
		c-0.7749-1.0088-2.3257-0.1562-3.1015-1.3955c0-3.0254,3.5669-4.499,4.498-6.979c-0.9311-1.6294-3.0244-0.2329-3.8774-1.939
		c1.706,0.7744,2.0932-1.2422,3.0244-1.9399c0.9302-2.3242-1.2412-4.1099-1.6289-6.2031c2.4819,0.1562,4.8857-0.9302,5.8159-3.334
		c0.3101-3.1016,1.9385-6.9776-0.2324-9.7715v-0.8521c6.8232,1.94,8.9175-6.8232,12.562-9.4594L136.5512,159.7066z
		 M134.3026,166.6866c-2.017,0.8506-1.9394,3.0234-2.25,4.7295c-1.7055,3.2563-3.4887,6.7461-7.5205,7.2895
		c-1.164,1.937,0.7749,2.7144,1.628,3.8775c-1.628,2.2475-3.5674-0.9322-5.2735-0.2344c-1.4731,1.6294,1.3189,2.4038,1.9395,3.5683
		c1.1626,3.4888,0.542,7.5972-1.6289,10.3892c0.1552,1.0869,0.6201,2.1728,1.3955,3.0239c2.0166,1.0879,1.9394-2.0137,3.8769-0.542
		c2.8692,1.0083,2.3267,4.4209,4.7305,6.127c0.7759,0.0762,1.8608,1.2392,2.5591,0c-1.7066-5.0405,3.3335-7.9888,6.979-10.8565
		c1.2402-1.1626,3.1797,1.085,3.8774-0.8554c-1.0083-2.7129-4.8852-0.3072-5.5835-3.6431
		c-0.5424-4.4971-0.0781-9.6152,3.6441-12.5605c-1.3184-2.0948-2.791,0.4633-4.4971,0c-1.706-0.854-2.3257-2.6382-3.0244-4.188
		C133.6039,170.6402,137.0927,167.9258,134.3026,166.6866z"/>
	<path fill="#FFFFFF" d="M257.1283,161.9556c-2.3252,4.4966-3.0215,12.562,0.544,17.2915
		c7.7539,2.8692,0.6211,7.2114,0.8554,11.7085c-0.7002,3.7227-1.3994,8.919,1.626,11.71c-2.0918,3.4887-4.3428,6.2827-6.9775,9.5371
		c-3.1026-2.3257-7.2129-0.4649-10.3145,0.5434c-1.7822,1.1626-4.0312,3.4888-6.125,1.3955
		c-1.0083-1.6284-3.1777-0.311-4.4975-1.0849c-3.7993,0.3091-4.187-3.8775-7.8321-3.957c-1.938-2.6348-2.1713-7.0552-0.7758-10.0005
		c1.163,0.4633,2.9482,0.3867,3.3349-1.1646c-0.3867-0.7744-0.2314-2.0171-1.3955-2.248c-2.3271,0.1548-2.4814-2.9453-3.1016-4.731
		c-1.3969-9.1484,1.7061-17.1357,8.917-22.3306c-0.7763-3.0249-5.1953-2.0947-6.6684-4.1894
		c1.8618,0.2344,4.1094-0.1543,5.583-1.6265l2.25-5.0415c1.6265,1.6294,4.2627,1.5503,6.4341,1.0864
		c3.5664-1.164,4.4199-5.4277,6.9785-7.2124C247.9799,156.6827,252.3246,159.7842,257.1283,161.9556z M250.1518,173.3531
		c-4.4991-1.3174-5.2735,4.5752-9.7715,3.9541c-1.4717-0.3076-1.627-2.7896-3.1001-2.7896
		c-2.4053,4.8062-7.2896-1.0083-10.6245,1.628c0.3877,2.0947,3.7221,0.4653,4.7304,2.56c0.4654,1.5498,0.4654,3.5664-0.2324,5.0386
		c-0.6206,2.0166-3.4121,2.8706-3.9546,4.4204c0.6978,2.7143,3.1016,0.6211,4.8076,1.3955c1.396,0.6211,1.9395,2.0933,1.627,3.6431
		c0.6216,4.3442-2.9453,6.9043-4.4194,10.3164c0,0.9287,0.853,1.3174,1.6294,1.3955c1.9379-2.7925,5.6606-2.6382,8.684-3.336
		c1.087-0.0766,1.2422,1.0865,1.087,1.9405c0.3105,1.2392,1.4726,1.8603,2.5595,2.2475c3.4873-2.1714-2.0166-3.5664-0.623-6.1264
		c2.9482-3.2564,5.042-8.4507,10.3916-7.5205c-0.2315-2.0166-2.7129-1.7828-3.9531-3.1016
		c-1.7852-2.4038-3.4131-4.8076-3.0264-8.0654c0.3887-2.7129,2.249-5.2725,4.4189-6.7461L250.1518,173.3531z"/>
	<path fill="#FFFFFF" d="M81.8051,137.064l3.3349-1.6289c2.7134,6.1255,7.9092,14.0366,15.896,13.958
		c0.6978,4.2651,2.8692,8.8403,7.2891,10.6231c-1.7837,3.6455-2.6367,9.3066,0,12.7954l1.9385,2.5581
		c-5.5054,0.9306-11.9419,3.1811-14.8106,8.6084c0.3868,1.4721,0.4649,2.9472,2.0166,3.9541
		c3.6431-2.1714,1.938,3.103,3.5664,4.4204c1.7061,2.8677,4.3418,5.8926,7.2891,6.9775l-1.0859,4.731
		c-7.9868,5.894-11.0113,14.8115-11.4766,24.3471c-9.6924-2.8671-19.4629,0.7007-26.52,7.5254
		c1.3193-5.663,1.0083-12.8745,0.3105-19.31c-0.6201-2.4043-2.3257-4.5752-4.497-6.125c-1.8614-0.6216-4.1099-1.1646-6.1265-0.5435
		c3.5674-5.1181,3.7993-13.0288,1.939-18.9995c-1.3955-2.791-4.4971-3.3325-6.6685-4.1865
		c2.6357-4.5747,6.6685-9.7695,4.4199-15.353c-0.9311-4.3423-5.6616-7.7544-9.7705-8.607l-6.979-0.8535
		c1.2407-5.6611,4.4971-10.7773,3.334-17.0596c4.4204,1.2403,9.3057,0.232,12.8721-2.2485c3.645-2.793,5.2734-6.5142,7.2895-10.0029
		C69.786,136.5982,75.602,139.002,81.8051,137.064z M85.14,147.4551c-5.8168,0.232-2.3266,7.3667-6.6694,9.77
		c-4.73,2.0928-10.4682,1.6289-15.6636,2.4815c-0.7749,0.0776-2.0161,0.9306-1.6279,1.9394
		c2.6358,0.9292,5.5054-1.8618,8.0635,0.3096c2.2495,1.8604,1.707,5.1943,1.3965,7.8325c-0.2329,3.8755-5.8936,7.2115-2.482,10.8545
		c0.7759,0.4668,2.3267,1.0083,3.0245,0c0.3105-3.5669,4.2651-4.1084,6.746-5.2729c3.5674-3.5664,6.5137,2.0171,10.314,0.5434
		l-1.1641-3.334c1.5508-3.8774,5.6617-4.9624,8.6851-6.979c1.3965-0.854,3.4121-0.0781,4.7305-1.1645
		c0.1552-0.5415-0.2334-0.7739-0.5435-1.083c-5.7378-0.4668-10.6225-3.4131-14.5-7.5225c-1.0854-2.3271,0.7749-4.1098,0.5435-6.437
		L85.14,147.4551z M89.6371,186.5367c-6.2812,1.163-10.5459,8.9941-17.6025,6.6665c-0.7754,0.2343-2.0161,0.5449-1.938,1.708
		c1.2402,0.3886,1.938,0.3886,3.334,0.2324c1.4726,0.7739,2.3257,2.3257,3.1025,3.6445c1.1626,3.1797-1.7851,5.4292-3.4131,7.833
		c0.9302,5.5816,5.5835-0.311,8.1426,2.7891c3.5664,3.2593-1.3184,8.9194,2.791,11.7119c0.9312,0,2.0166,1.2393,2.7925,0
		c-1.6299-4.0337,0.2314-7.9888,2.481-11.167c1.6279-3.8008,5.7378-4.2661,8.3745-6.1264
		c-1.7056-2.4024-5.1177-1.8609-7.2119-3.9541c-3.1788-2.4053-2.4034-6.1265-1.7061-9.4605c0.6206-1.1645,2.1714-2.0933,1.939-3.645
		L89.6371,186.5367z"/>
	<path fill="#FFFFFF" d="M300.6313,128.4571c1.165-0.3106,2.248-0.543,3.3339-0.8531c0.4659,6.2032,5.585,11.2437,10.9366,13.4141
		c-0.7774,4.5757-2.4043,10.5469,1.3955,14.1909l3.334,2.5586c-4.0342,4.731-7.9112,10.7779-5.8946,17.6021
		c-5.1162,0.5434-9.8486,2.7925-13.6484,6.1269c-1.3174,1.0865-1.7041,2.8687-1.083,4.4204c0.9297,2.5581,2.5566,0,3.874,0
		c4.7324-0.1562,10.0801-1.3955,12.5625,3.4121v0.5415c-2.248,0.6978-4.4209,2.6368-5.582,4.7315
		c-0.3877,4.8838-1.1651,10.9326,3.8769,13.647c0.6992,5.7378-5.8935,9.3047-10.0019,12.019
		c-4.9639,1.937-12.9492,2.5601-17.6045-0.543c-3.0215-3.2578-3.5645-8.2202-2.791-12.2519
		c-0.543-1.4736-1.7823-0.7759-2.791-0.8521h-0.8516l-8.919,8.0635c-2.0166-2.4038-4.7294-4.5747-8.0644-4.4204
		c0.7744-3.1782,5.6601-4.1865,4.4209-7.8311c-1.0088-1.3969-3.0254-0.3105-4.1895-1.3969
		c-0.9306-5.9707,1.4737-11.9409,4.1895-17.0581c-4.3428-2.792-7.3672-7.211-7.2109-12.2515
		c0.3085-3.9551,2.3251-7.291,4.7294-10.3159c0.3086-1.7818-1.5517-1.8584-2.5605-2.5567l-3.877,0.3086
		c0.8555-2.7129,4.4981-4.9619,3.877-8.684c0.1562-4.0318-2.1689-7.0567-3.334-10.6241c2.6377,1.0879,6.2813,2.9478,8.919,0.6211
		c3.5654-3.8774,7.3642-7.9863,6.2031-13.4145c1.7051,1.0078,4.8857,0.4653,6.9775-0.3106l5.8164-5.2729
		C289.5424,126.3623,295.0492,129.4649,300.6313,128.4571z M299.2358,153.271c-4.1114-2.8696-6.668,3.1787-10.6231,3.3345
		c-2.4043-2.4048-6.9775-2.4048-10.0029-1.0859c-0.4649-0.4668-0.9297-1.0865-1.7071-0.8531
		c-1.0087,1.3174-3.6435-0.3105-4.7294,1.3946c0.0781,2.6372,3.3339,1.9394,4.498,2.7929c1.1611,2.5567,1.4736,5.9703-0.3086,8.1416
		c0.2305,0.5416,0.7734,0.9302,0.54,1.6294c1.0079,1.085,2.0948,3.2544,3.9551,2.7911c0.7774-2.482,3.4903-4.0332,5.585-5.2745
		c4.4209-2.9453,5.5039,4.0337,9.459,3.0249l0.3095-4.9619c0.6993-2.5586,3.4151-2.6377,5.2725-3.6445
		c1.1641-0.4653,2.251,1.0068,3.1035-0.311C303.0356,157.6119,301.0219,155.9058,299.2358,153.271z M285.2787,187.0796
		l-0.2344,1.6285c-2.4003,0-3.9521-2.1714-6.7431-1.3956c-0.6992,0.4634-1.8643,1.1626-1.3985,2.2476
		c1.7071,0.9302,4.1895-0.0762,5.3506,2.248c0.3125,0.6993,0.6211,2.0166-0.3095,2.4834c-1.086,1.4732-0.4649,3.5665,0.5439,4.8077
		c2.791,2.7905,3.4121-2.8706,6.7461-1.3955c2.791,0.6977,0.4648,3.7226,1.0859,5.8159c1.4737,1.0844,2.0137,3.7226,4.4961,3.1015
		c2.0948-2.3276,4.2637-4.5766,7.5235-4.188c-2.1729-2.4038-2.8692-6.1269-1.708-9.2299c-0.3086-0.4619-0.7745-0.6177-1.3955-0.5401
		C293.3422,197.3164,290.3949,187.9322,285.2787,187.0796z"/>
</g>
<g>
</g>
<g>
</g>
<g>
</g>
<g>
</g>
<g>
</g>
<g>
</g>
<g>
</g>
<g>
</g>
<g>
</g>
<g>
</g>
<g>
</g>
<g>
</g>
</svg>
