<?xml version="1.0" encoding="utf-8"?>
<!-- Generator: Adobe Illustrator 22.1.0, SVG Export Plug-In . SVG Version: 6.00 Build 0)  -->
<svg version="1.1" id="レイヤー_4" xmlns="http://www.w3.org/2000/svg" xmlns:xlink="http://www.w3.org/1999/xlink" x="0px"
	 y="0px" viewBox="0 0 600 300" enable-background="new 0 0 600 300" xml:space="preserve">
<path fill="#221714" d="M794.0667,337.5665c-0.8634,0.0592-1.8056,0.1473-2.8228,0.2734l2.2402-2.6693"/>
<g>
	<path opacity="0.5" fill="#56B6D0" d="M304.7027,106.1746c-0.9363-1.1396-1.5782-2.5473-2.1946-3.9781L176.7003,268.8407
		c1.5995,1.5485,3.153,3.2061,5.1098,4.0175c0.4931,0.2045,1.009,0.3472,1.538,0.4544l124.2695-164.6067
		C306.5341,107.9438,305.5006,107.1458,304.7027,106.1746z"/>
	<path opacity="0.5" fill="#56B6D0" d="M264.4379,73.3824c-0.4644-0.1926-0.9489-0.3304-1.4454-0.4359L138.6992,237.5849
		c1.0579,0.7473,2.0654,1.5309,2.8461,2.4813c0.9559,1.1635,1.6051,2.6063,2.2333,4.0681L269.6091,77.4598
		C267.9878,75.8945,266.4199,74.2043,264.4379,73.3824z"/>
	<path opacity="0.5" fill="#56B6D0" d="M290.0718,91.5434c-0.011-0.009-0.0202-0.0206-0.0312-0.0297L161.6666,261.5569
		c0.4586,0.488,0.9408,0.9442,1.4891,1.3113c1.717,1.1495,3.9021,1.5297,6.0408,1.9921L297.2621,95.2258
		C294.9224,93.9366,292.0823,93.1953,290.0718,91.5434z"/>
	<path opacity="0.5" fill="#56B6D0" d="M283.0923,83.3725c-1.6924-1.1331-3.8397-1.5188-5.949-1.9724l-128.08,169.654
		c2.3251,1.2637,5.1239,2.0091,7.1129,3.6432c0.033,0.0271,0.0609,0.0612,0.0935,0.0889L284.641,84.7468
		C284.1658,84.2335,283.6643,83.7554,283.0923,83.3725z"/>
	<path opacity="0.5" fill="#56B6D0" d="M328.1512,183.4676c0.3331-3.4228,2.869-6.7783,2.8981-10.2867l-75.9915,100.6578
		c3.0797-0.494,6.5684,0.1854,9.3784-0.9799c0.9993-0.4144,1.8878-1.061,2.7364-1.7898l61.6299-81.6346
		C328.4456,187.4335,327.9628,185.405,328.1512,183.4676z"/>
	<path opacity="0.5" fill="#56B6D0" d="M323.907,141.5242c-0.6064-3.1605,0.1638-6.8024-1.0444-9.7161
		c-0.1847-0.4454-0.42-0.8668-0.6812-1.2756L211.2749,277.4385l0.8912,0.6728c0.2044,0.0059,0.4081,0.0167,0.6107,0.0364
		c2.1499,0.2092,4.2731,1.2883,6.4244,2.0693L323.907,141.5242z"/>
	<path opacity="0.5" fill="#56B6D0" d="M328.189,163.0501c-0.0121-0.0924-0.0287-0.1846-0.0377-0.2772
		c-0.3412-3.5071,1.5193-7.3137,0.8468-10.7131c-0.1565-0.7913-0.4479-1.5478-0.8104-2.2856l-96.3801,127.6642l1.0499,0.7927
		c0.2044-0.0347,0.4091-0.0636,0.6139-0.0836c2.3325-0.2269,4.7969,0.5175,7.1864,0.8455L328.189,163.0501z"/>
	<path opacity="0.5" fill="#56B6D0" d="M181.8117,73.3818c-0.8795,0.3647-1.6741,0.9074-2.4313,1.5275l-61.9142,82.011
		c0.3547,1.964,0.8155,3.9523,0.6306,5.8528c-0.335,3.4426-2.9008,6.8168-2.9008,10.3473c0,0.0267,0.0032,0.0532,0.0035,0.0799
		l76.1157-100.8222C188.205,72.9119,184.6601,72.2007,181.8117,73.3818z"/>
	<path opacity="0.5" fill="#56B6D0" d="M316.6082,123.9951c-0.1346-0.2079-0.2807-0.4106-0.3967-0.6271
		c-1.3882-2.5919-1.4457-5.9814-2.5715-8.7189L193.0825,274.3385c2.422,0.9302,4.6013,2.8946,7.0074,3.9955L316.6082,123.9951z"/>
	<path opacity="0.5" fill="#56B6D0" d="M246.2363,67.9443L129.6886,222.3228c0.1161,0.1832,0.2462,0.36,0.3479,0.55
		c1.4039,2.6212,1.444,6.0597,2.6075,8.8129L253.2501,71.9314C250.821,71.0249,248.6393,69.0646,246.2363,67.9443z"/>
	<path opacity="0.5" fill="#56B6D0" d="M290.0698,254.699c2.7006-2.2188,6.9006-2.7919,9.3699-5.261
		c2.4693-2.4692,3.0425-6.6693,5.2614-9.3698c2.2149-2.6957,6.2245-4.0724,8.1709-6.9796c1.939-2.8962,1.6851-7.1268,3.3386-10.2141
		c1.6438-3.0688,5.3082-5.2012,6.6514-8.4403c0.7379-1.7794,0.7362-3.831,0.7611-5.8785l-41.3422,54.7614
		c0.2754-0.14,0.5532-0.276,0.8094-0.4475C285.9973,260.9234,287.3741,256.9138,290.0698,254.699z"/>
	<path opacity="0.5" fill="#56B6D0" d="M156.6619,91.0821c-0.1609,0.1537-0.3129,0.3193-0.4836,0.4596
		c-2.7006,2.2188-6.9006,2.7919-9.3699,5.261c-2.4693,2.4692-3.0425,6.6693-5.2614,9.3698
		c-2.2148,2.6957-6.2245,4.0724-8.1708,6.9796c-1.939,2.8962-1.6851,7.1268-3.3387,10.214
		c-1.6437,3.0689-5.3082,5.2013-6.6514,8.4404c-0.5505,1.3276-0.6877,2.8074-0.7331,4.3234L156.6619,91.0821z"/>
	<path opacity="0.5" fill="#56B6D0" d="M212.7766,68.0931c-2.301,0.2239-4.7304-0.4974-7.0897-0.8318l-87.6116,116.0495
		c0.0061,0.0524,0.0162,0.1046,0.0214,0.157c0.3413,3.5071-1.5192,7.3137-0.8468,10.7131c0.1627,0.8222,0.4694,1.6073,0.852,2.3723
		l97.4962-129.1425C214.6597,67.7391,213.7207,68.0013,212.7766,68.0931z"/>
	<path opacity="0.5" fill="#56B6D0" d="M233.4713,68.0931c-2.122-0.2065-4.2182-1.2597-6.3409-2.038L122.3626,204.8294
		c0.5671,3.1341-0.171,6.7242,1.0229,9.6033c0.196,0.4726,0.4516,0.9167,0.7329,1.3485L235.636,68.066
		C234.9061,68.1384,234.1824,68.1623,233.4713,68.0931z"/>
</g>
<g>
	<path opacity="0.5" fill="#DE90AE" d="M443.8238,91.5434c-0.011-0.009-0.0202-0.0206-0.0312-0.0297L315.4185,261.5569
		c0.4586,0.488,0.9409,0.9442,1.4892,1.3113c1.717,1.1495,3.9021,1.5297,6.0407,1.9921L451.0141,95.2258
		C448.6744,93.9366,445.8343,93.1953,443.8238,91.5434z"/>
	<path opacity="0.5" fill="#DE90AE" d="M418.1899,73.3824c-0.4644-0.1926-0.9489-0.3304-1.4454-0.4359L292.4512,237.5849
		c1.0579,0.7473,2.0654,1.5309,2.8461,2.4813c0.9559,1.1635,1.6051,2.6063,2.2333,4.068L423.3611,77.4598
		C421.7397,75.8944,420.1718,74.2043,418.1899,73.3824z"/>
	<path opacity="0.5" fill="#DE90AE" d="M436.8443,83.3725c-1.6923-1.133-3.8395-1.5188-5.9487-1.9724L302.8154,251.0541
		c2.3251,1.2637,5.1239,2.0091,7.1128,3.6432c0.033,0.0271,0.0609,0.0612,0.0935,0.0889L438.3929,84.7468
		C437.9177,84.2335,437.4163,83.7554,436.8443,83.3725z"/>
	<path opacity="0.5" fill="#DE90AE" d="M458.4547,106.1746c-0.9361-1.1394-1.578-2.5469-2.1942-3.9775L330.4526,268.841
		c1.5994,1.5484,3.1528,3.2057,5.1095,4.0172c0.4932,0.2045,1.0092,0.3472,1.5385,0.4545l124.2696-164.6063
		C460.2864,107.9442,459.2527,107.1459,458.4547,106.1746z"/>
	<path opacity="0.5" fill="#DE90AE" d="M477.659,141.5244c-0.6064-3.1605,0.1638-6.8026-1.0445-9.7163
		c-0.1847-0.4454-0.42-0.8666-0.6812-1.2755l-110.906,146.9059l0.8912,0.6729c0.2042,0.0059,0.4078,0.0166,0.6102,0.0363
		c2.15,0.2092,4.2733,1.2885,6.4247,2.0695L477.659,141.5244z"/>
	<path opacity="0.5" fill="#DE90AE" d="M481.9033,183.4676c0.3331-3.4229,2.8693-6.7784,2.8981-10.2871l-75.9921,100.6584
		c3.0798-0.4942,6.5688,0.1853,9.379-0.98c0.9988-0.4142,1.8868-1.0604,2.735-1.7886l61.6312-81.6361
		C482.1974,187.4333,481.7147,185.4048,481.9033,183.4676z"/>
	<path opacity="0.5" fill="#DE90AE" d="M481.941,163.05c-0.0121-0.0924-0.0287-0.1846-0.0377-0.2771
		c-0.3413-3.5071,1.5192-7.3137,0.8468-10.7131c-0.1565-0.7913-0.4479-1.5479-0.8104-2.2856l-96.3801,127.6642l1.0499,0.7927
		c0.2044-0.0347,0.409-0.0636,0.6139-0.0836c2.3325-0.2269,4.7969,0.5175,7.1864,0.8455L481.941,163.05z"/>
	<path opacity="0.5" fill="#DE90AE" d="M470.3601,123.9951c-0.1346-0.2079-0.2806-0.4105-0.3966-0.6271
		c-1.3882-2.592-1.4458-5.9814-2.5715-8.7189L346.8345,274.3385c2.422,0.9302,4.6013,2.8946,7.0074,3.9955L470.3601,123.9951z"/>
	<path opacity="0.5" fill="#DE90AE" d="M453.1917,249.438c2.4693-2.4692,3.0425-6.6693,5.2614-9.3698
		c2.2148-2.6957,6.2245-4.0724,8.1708-6.9796c1.939-2.8962,1.6851-7.1268,3.3387-10.2141c1.6437-3.0688,5.3082-5.2012,6.6514-8.4403
		c0.5326-1.2844,0.6782-2.7112,0.7283-4.1753l-33.6252,44.5397c0.0365-0.0311,0.0679-0.0693,0.1049-0.0997
		C446.5223,252.4802,450.7224,251.9072,453.1917,249.438z"/>
	<path opacity="0.5" fill="#DE90AE" d="M310.4138,91.0822c-0.1608,0.1536-0.3129,0.3193-0.4835,0.4595
		c-2.7006,2.2188-6.9006,2.7919-9.3699,5.261c-2.4693,2.4692-3.0425,6.6693-5.2614,9.3698
		c-2.2149,2.6957-6.2245,4.0724-8.1709,6.9796c-1.939,2.8962-1.6851,7.1268-3.3386,10.214
		c-1.6438,3.0689-5.3082,5.2013-6.6514,8.4404c-0.5506,1.3276-0.6878,2.8074-0.7332,4.3234L310.4138,91.0822z"/>
	<path opacity="0.5" fill="#DE90AE" d="M335.5637,73.3818c-0.88,0.3649-1.675,0.9081-2.4326,1.5286l-61.913,82.0096
		c0.3548,1.9641,0.8156,3.9525,0.6307,5.8531c-0.335,3.4426-2.9008,6.8168-2.9008,10.3473c0,0.0266,0.0032,0.053,0.0035,0.0795
		l76.1152-100.8217C341.9565,72.9119,338.4119,72.2007,335.5637,73.3818z"/>
	<path opacity="0.5" fill="#DE90AE" d="M387.2233,68.0931c-2.1222-0.2065-4.2185-1.2598-6.3414-2.0381L276.1146,204.8292
		c0.5672,3.1342-0.171,6.7244,1.0229,9.6035c0.1959,0.4725,0.4515,0.9167,0.7328,1.3484L389.3875,68.066
		C388.6578,68.1384,387.9342,68.1623,387.2233,68.0931z"/>
	<path opacity="0.5" fill="#DE90AE" d="M366.5286,68.0931c-2.301,0.2239-4.7304-0.4974-7.0897-0.8318l-87.6115,116.0494
		c0.0061,0.0524,0.0162,0.1046,0.0214,0.157c0.3412,3.5071-1.5193,7.3137-0.8468,10.7131c0.1627,0.8221,0.4694,1.6072,0.8519,2.3723
		L369.35,67.4107C368.4116,67.7392,367.4727,68.0013,366.5286,68.0931z"/>
	<path opacity="0.5" fill="#DE90AE" d="M399.9886,67.9445L283.4407,222.3228c0.1161,0.1832,0.2461,0.3601,0.3478,0.55
		c1.4039,2.6212,1.4439,6.0598,2.6075,8.8129L407.0024,71.9315C404.5732,71.0251,402.3914,69.0648,399.9886,67.9445z"/>
</g>
<g>
	<path fill="#221714" d="M283.1196,23.2638l6.8667,38.9428c1.1457,0.7607,2.3,1.5549,3.4632,2.3835l-7.3788-41.8467
		c-0.1437-0.8151-0.9204-1.3593-1.736-1.2156C283.5196,21.672,282.9759,22.4488,283.1196,23.2638"/>
	<path fill="#221714" d="M268.183,27.5364l10.1255,27.8207c1.3025,0.6626,2.6282,1.3811,3.9656,2.1307l-11.2746-30.9766
		c-0.283-0.7777-1.1427-1.1787-1.9204-0.8956h-0.0005C268.301,25.8985,267.9,26.7587,268.183,27.5364"/>
	<path fill="#221714" d="M254.2159,34.3381l8.425,14.5931c1.3991,0.4384,2.835,0.9248,4.3074,1.4646l-10.1362-17.5568
		c-0.4141-0.7165-1.3306-0.9622-2.0471-0.5486l-0.0005,0.0005C254.0474,32.7051,253.8018,33.6211,254.2159,34.3381"/>
	<path fill="#221714" d="M241.8265,41.3499l-0.0005,0.0005c-0.634,0.5321-0.717,1.4767-0.1845,2.1112l1.417,1.6889
		c1.3025,0.0893,2.7248,0.2223,4.2593,0.4126l-3.3802-4.0283C243.4056,40.9008,242.4605,40.8183,241.8265,41.3499"/>
	<path fill="#221714" d="M358.1733,41.3499l0.0005,0.0005c0.6345,0.5321,0.717,1.4767,0.185,2.1112l-1.4171,1.6889
		c-1.3029,0.0893-2.7248,0.2223-4.2598,0.4126l3.3806-4.0283C356.5946,40.9008,357.5393,40.8183,358.1733,41.3499"/>
	<path fill="#221714" d="M317.77,57.6293c1.3321-0.7447,2.6534-1.452,3.9608-2.119l10.2245-28.0906
		c0.283-0.7782-0.118-1.6379-0.8961-1.9209h-0.0005c-0.7777-0.283-1.6374,0.118-1.9204,0.8956L317.77,57.6293z"/>
	<path fill="#221714" d="M306.6625,64.6543c1.1588-0.8214,2.3122-1.6088,3.4608-2.3666l6.891-39.0826
		c0.1437-0.815-0.4005-1.5923-1.2156-1.7355c-0.8146-0.1442-1.5918,0.4-1.736,1.2151L306.6625,64.6543z"/>
	<path fill="#221714" d="M301.5681,68.4607v-46.811c0-0.8272-0.6709-1.4981-1.4981-1.4981h-0.001
		c-0.8277,0-1.4986,0.6709-1.4986,1.4981v46.778c0.5058,0.3976,1.0097,0.7845,1.519,1.1962
		C300.5831,69.2243,301.0749,68.8476,301.5681,68.4607"/>
	<path fill="#221714" d="M333.0536,50.4845c1.4811-0.5617,2.9365-1.0806,4.3574-1.5515l8.5265-14.7688
		c0.4141-0.7165,0.1685-1.6331-0.5481-2.0467l-0.0009-0.0005c-0.7165-0.4136-1.6331-0.1684-2.0471,0.5481L333.0536,50.4845z"/>
</g>
<g>
	<path fill="#231815" d="M189.2036,192.9619c-13.3853,0-22.4497-8.7998-22.4497-21.8164c0-12.8066,9.3276-21.9229,22.397-21.9229
		c4.9014,0,9.2749,1.2646,13.333,3.9521l-2.4243,6.7979c-3.1616-2.6875-6.6401-3.9521-10.9087-3.9521
		c-8.853,0-14.9663,6.1133-14.9663,15.0723c0,9.1162,6.1133,15.0713,15.5464,15.0713c4.6372,0,8.4844-1.2646,12.7529-4.2158v7.958
		C198.4785,191.9609,193.9995,192.9619,189.2036,192.9619z"/>
	<path fill="#231815" d="M228.5166,192.9619c-12.7007,0-21.9756-9.2217-21.9756-21.8691c0-12.5957,9.2749-21.8701,21.7646-21.8701
		c12.542,0,21.7646,9.2744,21.7646,21.8701C250.0703,183.582,240.7954,192.9619,228.5166,192.9619z M228.3057,156.0205
		c-8.063,0-14.334,6.5869-14.334,15.0723c0,8.3789,6.271,15.0713,14.1758,15.0713c8.2212,0,14.4922-6.4814,14.4922-15.124
		C242.6396,162.6074,236.3687,156.0205,228.3057,156.0205z"/>
	<path fill="#231815" d="M283.4277,192.1191l-20.5-31.6719v31.6719h-7.4307v-42.0537h8.8535l20.5,31.6719v-31.6719h7.4302v42.0537
		H283.4277z"/>
	<path fill="#231815" d="M319.9482,192.9619c-13.3867,0-22.4497-8.7998-22.4497-21.8164c0-12.8066,9.3267-21.9229,22.397-21.9229
		c4.9004,0,9.2754,1.2646,13.332,3.9521l-2.4238,6.7979c-3.1621-2.6875-6.6406-3.9521-10.9082-3.9521
		c-8.8535,0-14.9668,6.1133-14.9668,15.0723c0,9.1162,6.1133,15.0713,15.5469,15.0713c4.6367,0,8.4844-1.2646,12.752-4.2158v7.958
		C329.2236,191.9609,324.7432,192.9619,319.9482,192.9619z"/>
	<path fill="#231815" d="M338.5508,192.1191v-42.0537h26.665v6.7979h-19.2354v10.2236h17.5488v6.6934h-17.5488v11.541h19.9209
		v6.7979H338.5508z"/>
	<path fill="#231815" d="M391.46,174.5703c-2.4248,1.1064-4.5322,1.4756-9.0117,1.4756h-3.7949v16.0732h-7.4297v-42.0537h11.6992
		c4.3213,0,6.5342,0.4219,8.9053,1.7393c3.9531,2.1602,6.2188,6.3242,6.2188,11.4355
		C398.0469,168.5098,395.6758,172.5684,391.46,174.5703z M386.6641,157.1797c-0.8955-0.2637-2.2666-0.3164-4.1104-0.3164h-3.9004
		v12.3848h3.9004c2.3711,0,3.583-0.0527,4.6377-0.4746c2.2129-0.8428,3.4248-2.8457,3.4248-5.7441
		C390.6162,159.9199,389.2461,157.918,386.6641,157.1797z"/>
	<path fill="#231815" d="M421.2861,156.8633v35.2559h-7.4307v-35.2559h-13.2266v-6.7979h33.8848v6.7979H421.2861z"/>
</g>
<g>
</g>
<g>
</g>
<g>
</g>
<g>
</g>
<g>
</g>
<g>
</g>
</svg>
