<?xml version="1.0" encoding="utf-8"?>
<!-- Generator: Adobe Illustrator 22.1.0, SVG Export Plug-In . SVG Version: 6.00 Build 0)  -->
<svg version="1.1" xmlns="http://www.w3.org/2000/svg" xmlns:xlink="http://www.w3.org/1999/xlink" x="0px" y="0px"
	 viewBox="0 0 300 131" enable-background="new 0 0 300 131" xml:space="preserve">
<g id="レイヤー_1">
</g>
<g id="レイヤー_2" display="none">
	<path display="inline" opacity="0.3" fill="#56B6D0" d="M18.0584,13.8383v70.3714c0,0.9775,0.9199,1.6938,1.8676,1.4543
		l64.5431-16.3132c0.3928-0.0993,0.809-0.0354,1.154,0.177l22.0731,13.5905c1.3135,0.8087,2.8456-0.6534,2.0991-2.0033
		l-7.8719-14.2344c-0.4761-0.8608-0.0086-1.9392,0.9451-2.1802l29.7976-7.5313c0.6659-0.1683,1.1325-0.7674,1.1325-1.4543V13.8383
		c0-0.8285-0.6716-1.5-1.5-1.5H19.5584C18.73,12.3383,18.0584,13.0098,18.0584,13.8383z"/>
</g>
<g id="レイヤー_3">
</g>
<g id="レイヤー_4">
	<g>
		<path opacity="0.5" fill="#DE90AE" d="M78.8347,34.541v77.4131l65.2529-17.6733c0,0,9.4588,13.8283,25.9323,14.2274
			c0,0-12.4895-5.6026-9.0767-18.7926l31.0832-8.4187V34.541H78.8347z"/>
		<path opacity="0.5" fill="#56B6D0" d="M70.3752,26.8396v77.4131l65.2529-17.6733c0,0,9.4588,13.8283,25.9323,14.2273
			c0,0-12.4895-5.6026-9.0767-18.7926l31.0832-8.4187v-46.756H70.3752z"/>
		<path fill="#FFFFFF" d="M183.5668,34.541v39.0546l-31.0832,8.4187c0,0-3.6389,12.8059,9.0767,18.7926
			c0,0-14.1614,1.0416-25.9323-14.2273l-56.7934,15.3821V34.541H183.5668z"/>
		<path opacity="0.5" fill="#56B6D0" d="M220.9614,16.3115v34.8179l-31.4689-7.9489c0,0-4.5616,6.2195-12.5061,6.399
			c0,0,6.0232-2.5199,4.3773-8.4523l-14.9902-3.7864V16.3115H220.9614z"/>
		<path opacity="0.5" fill="#DE90AE" d="M217.6791,17.9527v34.8179l-31.4689-7.9489c0,0-4.5616,6.2195-12.5061,6.399
			c0,0,6.0232-2.5199,4.3773-8.4523l-14.9902-3.7864V17.9527H217.6791z"/>
		<path fill="#FFFFFF" d="M217.6791,17.9527v32.3477l-28.1866-7.1198c0,0-0.8602,1.1386-1.8819,1.9949l-1.4004-0.3537
			c0,0-2.0977,2.6312-4.2601,3.8123c0,0-2.1705,0.9105-4.9638,0.9456c0,0,6.0232-2.5488,4.3773-8.4523l-14.9902-3.7864V17.9527
			H217.6791z"/>
		<g opacity="0.5">
			<g>
				<path fill="none" stroke="#56B6D0" stroke-miterlimit="10" d="M175.3165,26.1296c0.7261,0,0.7261,1.42,1.4522,1.42
					c0.725,0,0.725-1.42,1.45-1.42c0.7246,0,0.7246,1.42,1.4492,1.42c0.7249,0,0.7249-1.42,1.4499-1.42
					c0.7261,0,0.7261,1.42,1.4522,1.42c0.726,0,0.726-1.42,1.452-1.42c0.7253,0,0.7253,1.42,1.4507,1.42
					c0.7258,0,0.7258-1.42,1.4517-1.42c0.7267,0,0.7267,1.42,1.4533,1.42c0.7258,0,0.7258-1.42,1.4517-1.42
					c0.7267,0,0.7267,1.42,1.4534,1.42c0.7263,0,0.7263-1.42,1.4526-1.42c0.727,0,0.727,1.42,1.454,1.42
					c0.7249,0,0.7249-1.42,1.4499-1.42c0.7249,0,0.7249,1.42,1.4499,1.42c0.7274,0,0.7274-1.42,1.4547-1.42
					c0.7261,0,0.7261,1.42,1.4523,1.42c0.7271,0,0.7271-1.42,1.4542-1.42c0.7279,0,0.7279,1.42,1.4559,1.42
					c0.7269,0,0.7269-1.42,1.4538-1.42c0.7286,0,0.7286,1.42,1.4572,1.42c0.7298,0,0.7298-1.42,1.4596-1.42s0.7298,1.42,1.4595,1.42
					"/>
			</g>
			<g>
				<path fill="none" stroke="#56B6D0" stroke-miterlimit="10" d="M175.3165,33.4165c0.7261,0,0.7261,1.42,1.4522,1.42
					c0.725,0,0.725-1.42,1.45-1.42c0.7246,0,0.7246,1.42,1.4492,1.42c0.7249,0,0.7249-1.42,1.4499-1.42
					c0.7261,0,0.7261,1.42,1.4522,1.42c0.726,0,0.726-1.42,1.452-1.42c0.7253,0,0.7253,1.42,1.4507,1.42
					c0.7258,0,0.7258-1.42,1.4517-1.42c0.7267,0,0.7267,1.42,1.4533,1.42c0.7258,0,0.7258-1.42,1.4517-1.42
					c0.7267,0,0.7267,1.42,1.4534,1.42c0.7263,0,0.7263-1.42,1.4526-1.42c0.727,0,0.727,1.42,1.454,1.42
					c0.7249,0,0.7249-1.42,1.4499-1.42c0.7249,0,0.7249,1.42,1.4499,1.42c0.7274,0,0.7274-1.42,1.4547-1.42
					c0.7261,0,0.7261,1.42,1.4523,1.42c0.7271,0,0.7271-1.42,1.4542-1.42c0.7279,0,0.7279,1.42,1.4559,1.42
					c0.7269,0,0.7269-1.42,1.4538-1.42c0.7286,0,0.7286,1.42,1.4572,1.42c0.7298,0,0.7298-1.42,1.4596-1.42s0.7298,1.42,1.4595,1.42
					"/>
			</g>
		</g>
		<g>
			<path fill="#231815" d="M98.0195,69.665c-1.5225,0-2.9375-0.418-4.2119-1.2197l0.7158-2.2139
				c1.1006,0.7852,2.2529,1.1855,3.3379,1.1855c1.5938,0,2.6797-0.7666,2.6797-1.9004c0-1.2202-1.0156-1.7432-2.5391-2.2314
				c-2.6748-0.8716-3.6357-1.9873-3.6357-3.9224c0-2.4404,1.8857-4.1655,4.5459-4.1655c1.1553,0,2.2568,0.2964,3.3574,0.9233
				l-0.5762,2.2485c-0.9082-0.6104-1.8184-0.9243-2.7109-0.9243c-1.2607,0-2.1543,0.7324-2.1543,1.7783
				c0,0.9414,0.4209,1.3252,2.084,1.9004c1.9951,0.6797,2.5537,0.9937,3.165,1.6562c0.6465,0.7148,0.9258,1.6387,0.9258,2.5625
				C103.0029,67.8877,100.96,69.665,98.0195,69.665z"/>
			<path fill="#231815" d="M111.1475,63.7227v5.6738h-2.4619v-5.6738l-4.8369-8.2568h2.8291l3.2471,5.7607l3.2305-5.7607h2.8281
				L111.1475,63.7227z"/>
			<path fill="#231815" d="M130.6045,69.3965l-1.2734-10.4937l-3.2812,10.4937h-2.6885l-3.2812-10.4937l-1.2744,10.4937h-2.4785
				l1.833-13.9307h3.1416l3.4033,10.8057l3.4043-10.8057h3.1416l1.832,13.9307H130.6045z"/>
			<path fill="#231815" d="M141.1162,63.5801c-0.8037,0.3657-1.502,0.4878-2.9863,0.4878h-1.2578v5.3286h-2.4619V55.4673h3.877
				c1.4316,0,2.165,0.1392,2.9512,0.5747c1.3096,0.7148,2.0605,2.0923,2.0605,3.7866
				C143.2988,61.5757,142.5127,62.918,141.1162,63.5801z M139.5264,57.8198c-0.2969-0.0874-0.751-0.105-1.3613-0.105h-1.293v4.1055
				h1.293c0.7852,0,1.1875-0.0176,1.5361-0.1572c0.7334-0.2798,1.1357-0.9434,1.1357-1.9043
				C140.8369,58.728,140.3828,58.0645,139.5264,57.8198z"/>
			<path fill="#231815" d="M151.9414,69.665c-4.2041,0-7.2773-3.0498-7.2773-7.2339c0-4.167,3.0732-7.2339,7.207-7.2339
				c4.1523,0,7.207,3.0669,7.207,7.2339C159.0781,66.5625,156.0059,69.665,151.9414,69.665z M151.8711,57.4448
				c-2.6689,0-4.7451,2.1792-4.7451,4.9863c0,2.772,2.0762,4.9858,4.6934,4.9858c2.7207,0,4.7969-2.1445,4.7969-5.0034
				C156.6162,59.624,154.54,57.4448,151.8711,57.4448z"/>
			<path fill="#231815" d="M164.2793,69.665c-1.5225,0-2.9375-0.418-4.2119-1.2197l0.7158-2.2139
				c1.1006,0.7852,2.2529,1.1855,3.3379,1.1855c1.5938,0,2.6797-0.7666,2.6797-1.9004c0-1.2202-1.0156-1.7432-2.5391-2.2314
				c-2.6748-0.8716-3.6357-1.9873-3.6357-3.9224c0-2.4404,1.8857-4.1655,4.5459-4.1655c1.1553,0,2.2568,0.2964,3.3574,0.9233
				l-0.5762,2.2485c-0.9082-0.6104-1.8184-0.9243-2.7109-0.9243c-1.2607,0-2.1543,0.7324-2.1543,1.7783
				c0,0.9414,0.4209,1.3252,2.084,1.9004c1.9951,0.6797,2.5537,0.9937,3.165,1.6562c0.6465,0.7148,0.9258,1.6387,0.9258,2.5625
				C169.2627,67.8877,167.2197,69.665,164.2793,69.665z"/>
			<path fill="#231815" d="M171.292,69.3965V55.4658h2.5146v13.9307H171.292z"/>
			<path fill="#231815" d="M187.5439,66.9463c-0.8721,1.7773-2.7236,2.7188-5.3086,2.7188c-2.6729,0-4.5762-1.0107-5.3975-2.876
				c-0.3838-0.855-0.541-1.832-0.541-3.228v-8.0952h2.4619v7.9907c0,1.2036,0.1045,1.8843,0.4023,2.4424
				c0.541,0.9946,1.5713,1.5181,3.0742,1.5181c1.5889,0,2.6719-0.5928,3.1611-1.71c0.2275-0.5405,0.3145-1.1689,0.3145-2.2505
				v-7.9907h2.4619v8.0952C188.1729,65.0439,187.9805,66.0742,187.5439,66.9463z"/>
			<path fill="#231815" d="M203.8125,69.3965l-1.2734-10.4937l-3.2812,10.4937h-2.6885l-3.2812-10.4937l-1.2744,10.4937h-2.4785
				l1.833-13.9307h3.1416l3.4033,10.8057l3.4043-10.8057h3.1416l1.832,13.9307H203.8125z"/>
		</g>
	</g>
</g>
<g id="レイヤー_5" display="none">
</g>
<g id="レイヤー_6">
</g>
</svg>
