<?xml version="1.0" encoding="utf-8"?>
<!-- Generator: Adobe Illustrator 22.1.0, SVG Export Plug-In . SVG Version: 6.00 Build 0)  -->
<svg version="1.1" xmlns="http://www.w3.org/2000/svg" xmlns:xlink="http://www.w3.org/1999/xlink" x="0px" y="0px"
	 viewBox="0 0 300 131" enable-background="new 0 0 300 131" xml:space="preserve">
<g id="レイヤー_1">
</g>
<g id="レイヤー_2" display="none">
</g>
<g id="レイヤー_3">
	<g>
		<g>
			<polygon opacity="0.5" fill="#DE90AE" points="80.7034,96.3699 86.9453,105.0236 133.6358,75.243 123.7436,61.5286 			"/>
			<defs>
				
					<filter id="Adobe_OpacityMaskFilter" filterUnits="userSpaceOnUse" x="112.938" y="-79.5383" width="207.4315" height="168.3257">
					<feColorMatrix  type="matrix" values="1 0 0 0 0  0 1 0 0 0  0 0 1 0 0  0 0 0 1 0"/>
				</filter>
			</defs>
			<mask maskUnits="userSpaceOnUse" x="112.938" y="-79.5383" width="207.4315" height="168.3257" id="SVGID_1_">
				<g filter="url(#Adobe_OpacityMaskFilter)">
					<g>
						
							<line opacity="0.5" fill="none" stroke="#56B6D0" stroke-width="4" stroke-miterlimit="10" x1="100.0843" y1="84.9319" x2="149.3084" y2="3.8069"/>
						
							<line opacity="0.5" fill="none" stroke="#56B6D0" stroke-width="4" stroke-miterlimit="10" x1="107.0109" y1="84.2279" x2="156.2349" y2="3.103"/>
						
							<line opacity="0.5" fill="none" stroke="#56B6D0" stroke-width="4" stroke-miterlimit="10" x1="113.9374" y1="83.524" x2="163.1615" y2="2.3991"/>
						
							<line opacity="0.5" fill="none" stroke="#56B6D0" stroke-width="4" stroke-miterlimit="10" x1="120.864" y1="82.8201" x2="170.088" y2="1.6951"/>
						
							<line opacity="0.5" fill="none" stroke="#56B6D0" stroke-width="4" stroke-miterlimit="10" x1="127.7905" y1="82.1161" x2="177.0146" y2="0.9912"/>
						
							<line opacity="0.5" fill="none" stroke="#56B6D0" stroke-width="4" stroke-miterlimit="10" x1="134.7171" y1="81.4122" x2="183.9411" y2="0.2873"/>
						
							<line opacity="0.5" fill="none" stroke="#56B6D0" stroke-width="4" stroke-miterlimit="10" x1="141.6436" y1="80.7083" x2="190.8677" y2="-0.4166"/>
						
							<line opacity="0.5" fill="none" stroke="#56B6D0" stroke-width="4" stroke-miterlimit="10" x1="148.5702" y1="80.0043" x2="197.7942" y2="-1.1206"/>
						
							<line opacity="0.5" fill="none" stroke="#56B6D0" stroke-width="4" stroke-miterlimit="10" x1="155.4967" y1="79.3004" x2="204.7208" y2="-1.8245"/>
						
							<line opacity="0.5" fill="none" stroke="#56B6D0" stroke-width="4" stroke-miterlimit="10" x1="162.4233" y1="78.5965" x2="211.6473" y2="-2.5284"/>
						
							<line opacity="0.5" fill="none" stroke="#56B6D0" stroke-width="4" stroke-miterlimit="10" x1="169.3498" y1="77.8926" x2="218.5739" y2="-3.2324"/>
						
							<line opacity="0.5" fill="none" stroke="#56B6D0" stroke-width="4" stroke-miterlimit="10" x1="176.2764" y1="77.1886" x2="225.5004" y2="-3.9363"/>
						
							<line opacity="0.5" fill="none" stroke="#56B6D0" stroke-width="4" stroke-miterlimit="10" x1="183.2029" y1="76.4847" x2="232.427" y2="-4.6402"/>
						
							<line opacity="0.5" fill="none" stroke="#56B6D0" stroke-width="4" stroke-miterlimit="10" x1="190.1295" y1="75.7808" x2="239.3535" y2="-5.3442"/>
					</g>
				</g>
			</mask>
			<g mask="url(#SVGID_1_)">
				<defs>
					<polygon id="SVGID_2_" points="320.3695,-49.082 298.4014,-79.5383 112.938,40.52 147.7533,88.7874 					"/>
				</defs>
				<clipPath id="SVGID_3_">
					<use xlink:href="#SVGID_2_"  overflow="visible"/>
				</clipPath>
				<circle clip-path="url(#SVGID_3_)" fill="#DE90AE" cx="142.5082" cy="58.2873" r="17.6103"/>
			</g>
		</g>
		
			<line opacity="0.5" fill="none" stroke="#DE90AE" stroke-width="3" stroke-miterlimit="10" x1="130.9041" y1="42.2855" x2="154.2432" y2="74.6424"/>
	</g>
</g>
<g id="レイヤー_4">
	<g>
		<path fill="#56B6D0" d="M214.782,18.4139v32.1274l-29.0372-7.3346c0,0-4.2091,5.7389-11.5397,5.9045
			c0,0,5.5578-2.3252,4.0391-7.7991l-13.8319-3.4938V18.4139H214.782z"/>
		<path fill="#DE90AE" d="M211.7533,19.9282v32.1274l-29.0372-7.3346c0,0-4.2091,5.7389-11.5397,5.9045
			c0,0,5.5578-2.3252,4.0391-7.7991l-13.8318-3.4938V19.9282H211.7533z"/>
		<path fill="#FFFFFF" d="M211.7533,19.9282v29.848l-26.0085-6.5696c0,0-0.7937,1.0507-1.7365,1.8407l-1.2922-0.3264
			c0,0-1.9356,2.4279-3.9309,3.5177c0,0-2.0028,0.8401-4.5802,0.8725c0,0,5.5578-2.3518,4.0391-7.7991l-13.8319-3.4938v-17.89
			H211.7533z"/>
	</g>
	<g>
		<g>
			<path fill="#231815" d="M134.6816,101.8418V87.9131h2.4619v11.6807h4.9238v2.248H134.6816z"/>
			<path fill="#231815" d="M143.6582,101.8418V87.9141h8.835v2.248h-6.373v3.3848h5.8145v2.2119h-5.8145v3.835h6.6006v2.248
				H143.6582z"/>
			<path fill="#231815" d="M161.418,102.1113c-4.4355,0-7.4385-2.9102-7.4385-7.2158c0-4.2363,3.0908-7.251,7.4209-7.251
				c1.624,0,3.0732,0.418,4.417,1.3066l-0.8027,2.248c-1.0479-0.8887-2.2002-1.3076-3.6143-1.3076
				c-2.9336,0-4.959,2.0225-4.959,4.9863c0,3.0156,2.0254,4.9863,5.1514,4.9863c1.5361,0,2.8105-0.4189,4.2246-1.3945v2.6309
				C164.4902,101.7803,163.0068,102.1113,161.418,102.1113z"/>
			<path fill="#231815" d="M173.4961,90.1621v11.6807h-2.4619V90.1621h-4.3818v-2.248h11.2266v2.248H173.4961z"/>
			<path fill="#231815" d="M190.5068,99.3926c-0.8721,1.7783-2.7236,2.7188-5.3086,2.7188c-2.6729,0-4.5762-1.0107-5.3975-2.875
				c-0.3838-0.8555-0.541-1.832-0.541-3.2285v-8.0947h2.4619v7.9902c0,1.2041,0.1045,1.8848,0.4023,2.4424
				c0.541,0.9951,1.5713,1.5186,3.0742,1.5186c1.5889,0,2.6719-0.5938,3.1611-1.71c0.2275-0.541,0.3145-1.1689,0.3145-2.251v-7.9902
				h2.4619v8.0947C191.1357,97.4912,190.9434,98.5205,190.5068,99.3926z"/>
			<path fill="#231815" d="M200.4375,101.8428l-3.8945-5.8135h-0.6631v5.8135h-2.4268V87.9141h4.0508
				c1.3623,0,2.0078,0.1221,2.7412,0.4883c1.3096,0.6445,2.0605,1.9697,2.0605,3.5977c0,2.0293-1.1523,3.4199-3.1953,3.8721
				l4.2773,5.9707H200.4375z M198.9883,90.4248c-0.4014-0.1924-0.873-0.2627-1.7119-0.2627h-1.3965v3.7451h1.3799
				c1.7637,0,2.6016-0.6123,2.6016-1.9072C199.8613,91.2998,199.5293,90.6875,198.9883,90.4248z"/>
			<path fill="#231815" d="M204.2783,101.8418V87.9141h8.835v2.248h-6.373v3.3848h5.8145v2.2119h-5.8145v3.835h6.6006v2.248
				H204.2783z"/>
		</g>
	</g>
	<g>
		<path fill="none" stroke="#DE90AE" stroke-miterlimit="10" d="M171.7985,30.3252c1.0161,0,1.0161,2.4,2.0323,2.4
			c1.0173,0,1.0173-2.4,2.0346-2.4c1.0162,0,1.0162,2.4,2.0324,2.4c1.0174,0,1.0174-2.4,2.0347-2.4c1.0168,0,1.0168,2.4,2.0336,2.4
			c1.0178,0,1.0178-2.4,2.0355-2.4c1.0171,0,1.0171,2.4,2.0343,2.4c1.0176,0,1.0176-2.4,2.0353-2.4c1.0177,0,1.0177,2.4,2.0353,2.4
			c1.016,0,1.016-2.4,2.0319-2.4c1.0173,0,1.0173,2.4,2.0347,2.4c1.0185,0,1.0185-2.4,2.037-2.4c1.0186,0,1.0186,2.4,2.0372,2.4
			c1.0189,0,1.0189-2.4,2.0378-2.4c1.0205,0,1.0205,2.4,2.041,2.4s1.0205-2.4,2.041-2.4"/>
	</g>
</g>
<g id="レイヤー_5" display="none">
</g>
<g id="レイヤー_6">
</g>
</svg>
