<?xml version="1.0" encoding="utf-8"?>
<!-- Generator: Adobe Illustrator 22.1.0, SVG Export Plug-In . SVG Version: 6.00 Build 0)  -->
<svg version="1.1" xmlns="http://www.w3.org/2000/svg" xmlns:xlink="http://www.w3.org/1999/xlink" x="0px" y="0px"
	 viewBox="0 0 300 131" enable-background="new 0 0 300 131" xml:space="preserve">
<g id="レイヤー_1">
</g>
<g id="レイヤー_2" display="none">
</g>
<g id="レイヤー_3">
</g>
<g id="レイヤー_4">
</g>
<g id="レイヤー_5" display="none">
</g>
<g id="レイヤー_6">
	<g>
		<g>
			<path opacity="0.5" fill="#56B6D0" d="M178.2791,51.2858c0,0-22.7127-6.8485-45.0994,13.3519c0,0-31.0624-11.7825-54.425,10.9959
				l22.7145,38.5304c0,0,26.0474-22.2229,54.5874-11.9717c24.1365-20.0575,45.0558-14.7459,45.0558-14.7459L178.2791,51.2858z"/>
			<path opacity="0.5" fill="#DE90AE" d="M176.8362,54.819c0,0-22.7127-6.8485-45.0994,13.3519c0,0-31.0625-11.7825-54.425,10.9959
				l22.7145,38.5304c0,0,26.0474-22.223,54.5874-11.9717c24.1365-20.0575,45.0557-14.7459,45.0557-14.7459L176.8362,54.819z"/>
		</g>
		<path fill="#FFFFFF" d="M79.5994,77.0666l21.8697,37.0974c0,0,24.512-21.9457,54.5874-11.9717c0,0,20.2526-17.012,41.0386-15.2894
			L176.8362,54.819c0,0-22.9406-7.0554-45.0994,13.3519C131.7368,68.171,103.7992,56.789,79.5994,77.0666z"/>
	</g>
	<g>
		<defs>
			<filter id="Adobe_OpacityMaskFilter" filterUnits="userSpaceOnUse" x="152.5019" y="32.5042" width="63.7507" height="47.8749">
				<feFlood  style="flood-color:white;flood-opacity:1" result="back"/>
				<feBlend  in="SourceGraphic" in2="back" mode="normal"/>
			</filter>
		</defs>
		<mask maskUnits="userSpaceOnUse" x="152.5019" y="32.5042" width="63.7507" height="47.8749" id="SVGID_1_">
			<g filter="url(#Adobe_OpacityMaskFilter)">
				<g>
					
						<line fill="none" stroke="#231815" stroke-width="0.5" stroke-miterlimit="10" x1="238.4705" y1="38.9465" x2="166.1341" y2="86.616"/>
					
						<line fill="none" stroke="#231815" stroke-width="0.5" stroke-miterlimit="10" x1="234.6847" y1="36.2212" x2="162.3483" y2="83.8907"/>
					
						<line fill="none" stroke="#231815" stroke-width="0.5" stroke-miterlimit="10" x1="230.8989" y1="33.4959" x2="158.5625" y2="81.1654"/>
					
						<line fill="none" stroke="#231815" stroke-width="0.5" stroke-miterlimit="10" x1="227.1131" y1="30.7706" x2="154.7768" y2="78.4401"/>
					
						<line fill="none" stroke="#231815" stroke-width="0.5" stroke-miterlimit="10" x1="223.3274" y1="28.0453" x2="150.991" y2="75.7148"/>
					
						<line fill="none" stroke="#231815" stroke-width="0.5" stroke-miterlimit="10" x1="219.5416" y1="25.32" x2="147.2052" y2="72.9895"/>
					
						<line fill="none" stroke="#231815" stroke-width="0.5" stroke-miterlimit="10" x1="215.7558" y1="22.5947" x2="143.4195" y2="70.2642"/>
				</g>
			</g>
		</mask>
		
			<rect x="150.2361" y="50.2995" transform="matrix(0.8345 -0.551 0.551 0.8345 -0.5859 110.9326)" mask="url(#SVGID_1_)" fill="#56B6D0" width="68.2824" height="12.2844"/>
		<g>
			<path fill="#FFFFFF" stroke="#56B6D0" stroke-width="0.75" stroke-miterlimit="10" d="M159.2388,79.9798l-16.8807,4.2831
				c-0.3597,0.0956-0.6312-0.3254-0.3959-0.6137l10.889-13.3375"/>
		</g>
		<path fill="#56B6D0" d="M147.0981,83.0372l-2.1684-3.2616l-3.1997,3.9497c-0.2403,0.2966,0.0388,0.7276,0.4078,0.6296
			L147.0981,83.0372z"/>
	</g>
	<g>
		<g>
			<path fill="#231815" d="M80.7383,44.085h-3.0381l-2.8643-11.1758l-2.8633,11.1753h-3.0381l-4.0859-13.9297h2.6016l2.9863,11.0518
				l2.8633-11.0518h3.0732l2.8633,11.0518l2.9854-11.0518h2.6016L80.7383,44.085z"/>
			<path fill="#231815" d="M92.9385,44.3535c-4.2041,0-7.2773-3.0498-7.2773-7.2334c0-4.167,3.0732-7.2339,7.207-7.2339
				c4.1523,0,7.207,3.0669,7.207,7.2339C100.0752,41.2515,97.0029,44.3535,92.9385,44.3535z M92.8682,32.1338
				c-2.6689,0-4.7451,2.1792-4.7451,4.9863c0,2.772,2.0762,4.9858,4.6934,4.9858c2.7207,0,4.7969-2.1445,4.7969-5.0034
				C97.6133,34.313,95.5371,32.1338,92.8682,32.1338z"/>
			<path fill="#231815" d="M108.8955,44.085l-3.8945-5.814h-0.6631v5.814h-2.4268V30.1562h4.0508
				c1.3623,0,2.0078,0.1221,2.7412,0.4878c1.3096,0.6445,2.0605,1.9697,2.0605,3.5977c0,2.0293-1.1523,3.4204-3.1953,3.8726
				l4.2773,5.9707H108.8955z M107.4463,32.6665c-0.4014-0.1924-0.873-0.2627-1.7119-0.2627h-1.3965v3.7451h1.3799
				c1.7637,0,2.6016-0.6123,2.6016-1.9072C108.3193,33.5415,107.9873,32.9292,107.4463,32.6665z"/>
			<path fill="#231815" d="M120.5918,44.085l-5.4648-7.0869v7.0869h-2.4619V30.1548h2.4619v6.0054l5.0801-6.0054h3.0039
				l-5.6221,6.4243l6.1104,7.5059H120.5918z"/>
			<path fill="#231815" d="M128.2188,44.3535c-1.5225,0-2.9375-0.418-4.2119-1.2197l0.7158-2.2134
				c1.1006,0.7847,2.2529,1.1855,3.3379,1.1855c1.5938,0,2.6797-0.7671,2.6797-1.9004c0-1.2202-1.0156-1.7432-2.5391-2.2314
				c-2.6748-0.8716-3.6357-1.9873-3.6357-3.9224c0-2.4404,1.8857-4.1655,4.5459-4.1655c1.1553,0,2.2568,0.2964,3.3574,0.9233
				l-0.5762,2.2485c-0.9082-0.6104-1.8184-0.9243-2.7109-0.9243c-1.2607,0-2.1543,0.7324-2.1543,1.7783
				c0,0.9414,0.4209,1.3252,2.084,1.9004c1.9951,0.6797,2.5537,0.9937,3.165,1.6562c0.6465,0.7148,0.9258,1.6387,0.9258,2.5625
				C133.2021,42.5762,131.1592,44.3535,128.2188,44.3535z"/>
			<path fill="#231815" d="M143.0605,44.085v-6.2461h-5.584v6.2461h-2.4619V30.1548h2.4619v5.436h5.584v-5.436h2.4619V44.085
				H143.0605z"/>
			<path fill="#231815" d="M154.6582,44.3535c-4.2041,0-7.2773-3.0498-7.2773-7.2334c0-4.167,3.0732-7.2339,7.207-7.2339
				c4.1523,0,7.207,3.0669,7.207,7.2339C161.7949,41.2515,158.7227,44.3535,154.6582,44.3535z M154.5879,32.1338
				c-2.6689,0-4.7451,2.1792-4.7451,4.9863c0,2.772,2.0762,4.9858,4.6934,4.9858c2.7207,0,4.7969-2.1445,4.7969-5.0034
				C159.333,34.313,157.2568,32.1338,154.5879,32.1338z"/>
			<path fill="#231815" d="M170.3369,38.269c-0.8037,0.3657-1.502,0.4878-2.9863,0.4878h-1.2578v5.3281h-2.4619V30.1562h3.877
				c1.4316,0,2.165,0.1392,2.9512,0.5747c1.3096,0.7148,2.0605,2.0923,2.0605,3.7866
				C172.5195,36.2646,171.7334,37.6069,170.3369,38.269z M168.7471,32.5088c-0.2969-0.0874-0.751-0.105-1.3613-0.105h-1.293v4.1055
				h1.293c0.7852,0,1.1875-0.0176,1.5361-0.1572c0.7334-0.2798,1.1357-0.9434,1.1357-1.9043
				C170.0576,33.417,169.6035,32.7534,168.7471,32.5088z"/>
		</g>
	</g>
	<g>
		<path fill="none" stroke="#56B6D0" stroke-miterlimit="10" d="M101.8851,91.2861c0.9124-0.7581,1.5093,0.5853,2.7723-0.2259
			c0.564-0.3622,0.52-1.9944,1.3126-2.4303c0.6341-0.3488,1.9844,0.5518,2.7566,0.1872c0.6742-0.3183,0.8322-1.9384,1.6063-2.2489
			c0.7028-0.2819,1.9349,0.7757,2.7162,0.5149c0.7243-0.2418,1.0722-1.8307,1.861-2.0429c0.7424-0.1998,1.8404,0.997,2.6373,0.8329
			c0.7558-0.1556,1.2913-1.6913,2.0941-1.8068c0.7654-0.1101,1.7112,1.2103,2.5174,1.1437c0.772-0.0638,1.4883-1.5234,2.2962-1.5412
			c0.7758-0.017,1.5563,1.4078,2.3638,1.4386c0.775,0.0295,1.6603-1.3338,2.4631-1.2554c0.773,0.0755,1.3798,1.5828,2.1775,1.7078
			c0.7676,0.1203,1.8057-1.131,2.5952-0.961c0.7599,0.1636,1.1931,1.7301,1.9724,1.9432c0.7501,0.2051,1.9193-0.9251,2.6866-0.6712"
			/>
	</g>
</g>
</svg>
